<svg width="672" height="263" viewBox="0 0 672 263" fill="none" xmlns="http://www.w3.org/2000/svg">
<g clip-path="url(#clip0_204_375)">
<path d="M52.7081 111.272C53.1805 112.848 53.5583 114.058 53.911 115.283C54.292 116.607 54.7989 117.918 54.9816 119.273C55.2398 121.179 55.1894 123.126 55.3878 125.045C55.6239 127.314 55.986 129.567 56.2946 131.826C56.3355 132.141 56.4174 132.456 56.4269 132.746C56.5402 136.726 56.5465 140.712 56.7795 144.682C56.9496 147.632 57.5667 150.556 57.6958 153.505C57.8658 157.359 57.7808 161.228 57.7304 165.091C57.7304 165.721 57.1952 166.352 57.1605 167.004C57.0598 168.831 57.085 170.669 57.0787 172.502C57.0787 172.868 57.1668 173.23 57.1794 173.596C57.3683 179.183 57.5415 184.766 57.7367 190.353C57.7997 192.18 57.5258 194.134 58.0831 195.807C59.1537 199.012 58.8263 202.204 58.8231 205.434C58.8231 206.467 59.4151 207.491 59.4875 208.534C59.5631 209.665 59.2923 210.815 59.2734 211.956C59.2293 215.006 59.2734 218.056 59.2104 221.094C59.2097 223.167 59.0983 225.238 58.8766 227.298C58.7066 228.634 58.6373 231.766 58.9585 233.547C59.3521 235.721 59.5882 237.927 59.9031 240.117C60.1456 241.746 60.4038 243.375 60.7344 244.988C60.7942 245.275 61.3138 245.738 61.4996 245.684C63.1621 245.212 65.0766 245.001 66.3676 244.002C67.6586 243.003 68.5718 241.219 69.3558 239.647C70.9995 236.402 72.4259 233.03 74.0286 229.778C74.3435 229.12 75.1465 228.71 75.5558 228.077C75.814 227.68 75.6534 227.03 75.8707 226.589C77.76 222.767 79.6492 218.942 81.6581 215.173C83.1286 212.394 84.8069 209.728 86.2711 206.946C86.7529 206.029 87.1308 204.882 87.0458 203.883C86.8316 201.381 87.9904 199.431 89.1743 197.465C89.602 196.857 90.0701 196.279 90.5755 195.735C90.8148 194.96 91.0384 194.043 91.3785 193.173C92.2602 190.942 93.0914 188.683 94.1274 186.521C95.9065 182.803 97.8083 179.145 99.7039 175.493C99.9275 175.061 100.586 174.844 100.778 174.412C101.023 173.851 100.976 173.167 101.093 172.547C101.174 172.149 101.237 171.648 101.502 171.403C103.706 169.402 103.706 166.285 105.35 164.004C106.046 163.04 106.546 161.937 107.122 160.888C108.328 158.698 109.188 156.196 110.822 154.394C112.457 152.591 112.466 150.121 113.914 148.318C114.698 147.339 115.262 146.182 116.049 145.208C116.928 144.121 118.055 143.223 118.861 142.089C119.27 141.515 119.337 140.602 119.33 139.845C119.311 137.488 120.883 135.992 122.136 134.309C122.325 134.105 122.453 133.852 122.504 133.578C122.552 131.618 124.139 130.559 125.077 129.123C125.13 129.041 125.37 129.082 125.732 129.041C125.593 129.485 125.458 129.838 125.382 130.2C125.256 130.83 125.004 131.461 125.089 132.075C125.3 133.603 125.914 135.106 125.93 136.625C126.026 140.853 126.496 145.065 127.335 149.21C127.923 152.361 128.245 155.594 128.547 158.802C128.862 161.953 128.985 165.104 129.177 168.255C129.252 169.616 129.561 171.066 129.211 172.32C128.644 174.355 129.895 176.038 129.841 177.938C129.737 181.228 129.668 184.527 129.765 187.813C129.803 189.045 130.348 190.261 130.657 191.484C130.71 191.685 130.739 191.891 130.742 192.098C130.742 195.275 130.742 198.454 130.767 201.63C130.814 202.355 130.903 203.077 131.034 203.792C131.28 205.761 131.544 207.727 131.765 209.7C132.061 212.325 132.37 214.946 132.58 217.577C132.716 219.244 132.653 220.93 132.744 222.619C132.861 224.74 133.04 226.854 133.191 228.975C133.251 229.392 133.272 229.814 133.254 230.235C133.141 231.215 133.355 232.204 134.315 232.412C135.191 232.601 136.236 232.397 137.112 232.097C138.192 231.668 139.227 231.13 140.201 230.493C141.964 229.435 141.41 227.301 142.288 225.805C142.88 224.803 143.17 223.627 143.671 222.562C143.722 222.476 143.791 222.401 143.873 222.343C143.955 222.284 144.048 222.243 144.146 222.222C144.439 220.804 144.546 219.594 144.946 218.488C146.366 214.575 147.89 210.702 149.37 206.807C150.796 203.051 152.204 199.299 152.833 195.287C153.026 194.093 153.973 193.031 154.518 191.884C154.912 191.052 155.192 190.167 155.57 189.329C155.677 189.092 155.96 188.935 156.165 188.743L156.571 188.982L154.801 195.007L153.822 195.196C154.08 198.085 152.878 200.578 152.138 203.171C151.435 205.692 151.451 208.474 149.502 210.636C150.384 211.745 149.7 213.09 149.357 214.335C148.709 216.679 147.874 218.973 147.087 221.267C146.97 221.611 146.646 221.879 146.511 222.213C146.334 222.673 146.278 223.177 146.117 223.646C145.635 225.033 145.119 226.41 144.631 227.796C143.456 231.146 142.298 234.501 141.12 237.851C140.714 239.004 140.235 240.132 139.86 241.298C139.546 242.36 139.316 243.453 139.092 244.367L133.475 248.564C133.059 246.441 132.813 244.704 132.369 243.022C131.78 240.901 131.722 238.667 132.199 236.518C132.596 234.681 131.768 232.579 131.472 230.597C131.157 228.556 130.827 226.517 130.562 224.469C130.527 224.21 130.858 223.908 130.6 223.753C130.255 223.234 129.951 222.689 129.693 222.121C129.218 220.842 128.657 219.553 128.462 218.217C128.326 217.3 128.985 216.279 128.881 215.347C128.411 211.086 127.76 206.839 127.262 202.591C127.152 201.646 127.435 200.672 127.489 199.708C127.564 198.312 127.756 196.891 127.599 195.517C127.398 193.743 126.878 192.007 126.538 190.246C126.464 189.73 126.441 189.209 126.469 188.689C126.469 186.442 126.705 184.199 126.396 181.946C125.949 178.659 125.766 175.329 125.181 172.068C124.781 169.815 123.902 167.656 123.251 165.435C123.059 164.912 122.933 164.368 122.876 163.815C122.862 161.72 122.381 159.654 121.468 157.768C121.393 157.632 121.343 157.484 121.32 157.33C121.081 154.901 120.788 152.475 120.631 150.039C120.527 148.426 120.612 146.797 120.612 144.972C120.143 145.104 119.604 145.089 119.469 145.319C117.951 147.868 116.515 150.471 115.01 153.029C114.668 153.567 114.243 154.048 113.751 154.453C113.193 154.942 111.773 154.989 112.982 156.259C113.067 156.347 112.765 157.078 112.535 157.148C111.033 157.601 111.317 158.981 110.961 160.015C110.309 161.88 109.874 163.859 108.974 165.592C107.951 167.562 106.398 169.251 105.29 171.182C104.392 172.758 103.791 174.494 103.086 176.176C101.911 179.05 100.856 181.974 99.5842 184.804C98.4853 187.249 97.1124 189.53 96.2938 192.152C95.664 194.197 94.1148 195.933 93.145 197.909C92.4144 199.406 91.665 201 91.4635 202.62C91.1675 205.014 90.2543 206.892 88.3997 208.373C88.3334 208.452 88.2849 208.544 88.2577 208.643C88.2305 208.742 88.2252 208.846 88.2423 208.947C88.7051 211.565 87.1906 213.497 86.0539 215.602C84.8941 217.738 83.8534 219.936 82.9366 222.187C82.1116 224.223 81.6015 226.388 80.8426 228.455C79.9672 230.846 79.0793 233.247 78.0087 235.551C76.4784 238.815 74.734 241.979 73.1438 245.218C71.1065 249.377 69.2802 253.65 67.0415 257.696C66.4117 258.837 65.8984 260.34 64.2737 261.036C63.5872 261.329 63.0519 262.369 62.0475 262.085C61.487 261.928 60.6809 261.48 60.5833 261.033C59.9535 258.197 59.456 255.361 59.0435 252.491C58.7286 250.241 58.9301 247.855 58.2783 245.725C57.5163 243.239 57.6328 240.766 57.5037 238.28C57.4691 237.583 57.8848 236.865 58.0674 236.241C57.9288 235.45 57.7525 234.665 57.6643 233.887C57.4219 231.996 57.1637 230.081 57.0125 228.171C56.9653 227.572 57.3274 226.952 57.3274 226.344C57.3077 225.555 57.2106 224.769 57.0377 223.999C56.9055 223.369 56.5686 222.739 56.4835 222.109C56.1403 219.534 56.2253 216.84 55.4728 214.398C54.2133 210.267 54.2605 206.098 54.2762 201.901C54.2762 197.972 54.4715 194.043 54.4778 190.113C54.4778 189.225 54.0369 188.342 53.87 187.444C53.6402 186.206 53.2938 184.952 53.3253 183.711C53.3851 181.533 53.7441 179.368 53.8889 177.191C54.0653 174.491 54.314 171.781 54.2227 169.087C54.1503 166.846 53.5929 164.625 53.3316 162.385C53.2718 161.899 53.615 161.357 53.5426 160.878C53.4701 160.399 53.108 159.933 52.875 159.479L52.5003 159.634C52.261 155.941 52.1224 152.241 51.7509 148.561C51.5305 146.374 51.2503 144.2 50.0506 142.174C49.235 140.8 48.9674 139.064 48.6399 137.448C48.0825 134.709 47.6953 131.933 47.1757 129.186C47.0435 128.496 46.8041 127.582 46.3003 127.245C43.7624 125.552 45.1888 122.984 44.7511 120.848C44.5559 119.903 44.7008 118.898 44.4992 117.962C43.9304 115.298 43.3006 112.648 42.61 110.012C42.2479 108.638 39.9807 107.239 38.5165 107.422C39.0928 109.675 37.0051 110.273 35.8117 110.941C33.3115 112.334 31.1893 113.941 29.5141 116.273C28.8056 117.246 27.4769 117.776 26.4283 118.497C26.1995 118.61 25.9804 118.742 25.7733 118.891C24.1706 120.467 22.6245 122.099 20.9809 123.646C19.9229 124.648 18.7106 125.489 17.6652 126.501C16.7646 127.426 15.9132 128.398 15.1147 129.412C14.1952 130.512 13.3765 131.703 12.3878 132.737C11.1094 134.079 9.71764 135.314 8.35736 136.575C7.62999 137.246 6.84277 137.851 6.13114 138.531C5.47934 139.162 4.89997 139.88 3.85142 138.922C4.06554 139.357 4.57564 139.943 4.44339 140.205C3.96483 141.125 3.35962 141.973 2.64544 142.725C2.56672 142.811 1.30721 142.218 1.23164 141.818C0.787659 139.458 -0.295551 137.199 0.104346 134.687C0.334208 133.241 1.45521 132.305 2.57933 132.825C2.74937 130.585 2.91624 130.396 5.04482 130.184C5.2369 128.083 6.72942 126.781 8.02672 125.269C9.44053 123.624 11.3833 122.49 12.2871 120.281C12.7625 119.118 14.3117 118.39 15.354 117.445C15.7308 117.103 16.0745 116.727 16.3805 116.32C16.5222 116.128 16.4434 115.747 16.6009 115.595C18.3296 113.951 20.1181 112.369 21.8216 110.699C22.6749 109.864 23.3425 108.843 24.1801 107.986C25.3357 106.798 26.5542 105.67 27.7791 104.554C28.6482 103.76 29.555 103.01 30.465 102.267C31.2995 101.589 32.1812 100.965 33.003 100.272C33.321 99.9436 33.6166 99.5941 33.8878 99.2259C34.2404 98.8289 34.5427 98.2806 34.9899 98.0915C36.7028 97.3227 37.8805 95.9898 39.1368 94.6632C40.0122 93.74 41.3725 93.2957 42.3423 92.4575C43.7529 91.1971 45.7335 90.8064 46.8639 89.1206C47.3804 88.3486 48.3502 88.4589 48.6367 89.505C49.1216 91.2759 49.679 93.072 49.8018 94.8838C50.0537 98.5925 50.0065 102.32 50.145 106.038C50.1529 106.807 50.3456 107.562 50.7068 108.24C51.068 108.917 51.587 109.498 52.2201 109.933C52.6074 110.213 52.6294 111.033 52.7081 111.272Z" fill="white"/>
<path d="M169.175 174.021L164.726 169.704L162.899 170.65L161.813 172.039L161.048 171.365C161.634 169.644 162.213 167.921 162.814 166.204C162.906 165.942 163.879 163.412 163.913 163.295C164.288 162.016 164.811 160.774 165.022 159.46C165.368 157.343 166.838 155.89 168.8 156.473C169.428 156.667 170.003 157.003 170.478 157.457C170.954 157.91 171.319 158.467 171.543 159.085C172.339 161.389 173.054 163.724 173.92 166.018C174.55 167.644 175.381 169.169 176.046 170.798C176.449 171.778 176.905 172.805 176.99 173.835C177.126 175.726 177.954 177.219 178.879 178.779C179.424 179.702 179.509 180.897 179.824 181.955C180.542 184.284 181.279 186.606 182.013 188.932C182.378 190.085 182.286 191.109 181.928 192.344C181.569 193.579 182.12 195.057 182.504 196.365C183.033 198.125 183.68 199.847 184.44 201.52C185.366 203.587 186.446 205.588 187.463 207.614C187.507 207.705 187.614 207.768 187.655 207.86C189.302 211.383 190.562 211.127 193.323 208.622C193.638 208.345 193.874 207.91 194.23 207.781C195.968 207.151 196.459 205.805 196.862 204.123C197.133 202.988 198.232 202.059 198.915 201.006C199.299 200.416 199.625 199.791 199.888 199.138C200.446 197.726 201.293 196.617 202.82 196.239C203.746 196.009 204.47 194.607 205.795 195.851C204.637 197.578 203.399 199.295 202.307 201.104C201.611 202.207 201.061 203.396 200.669 204.639C199.659 208.128 198.086 211.427 196.012 214.408C194.302 216.875 193.093 219.689 191.418 222.187C190.757 223.177 190.158 224.762 188.357 224.393C188.109 224.34 187.756 224.362 187.636 224.204C185.747 221.759 183.625 219.478 182.945 216.292C182.753 215.4 182.29 214.571 182 213.699C181.897 213.29 181.821 212.876 181.773 212.457C181.704 212.104 181.616 211.758 181.543 211.405C181.332 210.359 180.646 209.092 181.008 208.31C181.978 206.221 181.128 204.328 180.847 202.393C180.643 200.984 180.3 199.412 179.481 198.312C177.223 195.275 176.675 191.355 174.128 188.478C173.53 187.801 173.533 186.609 173.199 185.674C172.497 183.707 171.782 181.747 171.023 179.803C170.447 178.322 169.764 176.889 169.194 175.392C169.043 174.941 169.175 174.421 169.175 174.021Z" fill="white"/>
<path d="M524.545 11.7919C524.599 12.107 524.759 12.4379 524.69 12.7372C524.284 14.4388 523.985 16.2033 523.336 17.7977C522.741 19.2629 521.957 20.7628 520.883 21.894C519.177 23.6901 518.723 25.9368 518.178 28.1204C517.105 32.4089 516.289 36.7636 515.313 41.0742C514.768 43.4343 514.053 45.7566 513.455 48.1072C513.336 48.5658 513.31 49.0435 513.376 49.5126C513.987 53.6089 511.865 57.2892 511.563 61.2469C511.498 62.0456 511.382 62.8393 511.213 63.6227C511.106 64.1175 510.996 64.8485 510.656 65.0186C509.204 65.7434 509.081 67.2842 508.323 68.428C506.846 70.6558 505.312 72.8394 503.854 75.0861C502.431 77.2697 501.14 79.5447 499.654 81.6874C498.876 82.8123 497.812 83.7387 496.666 84.9802C495.938 81.5141 496.162 78.7602 498.155 76.0692C500.227 73.2711 501.6 70.0508 503.029 66.8305C504.632 63.2163 505.114 59.6714 505.297 55.887C505.425 52.8516 505.765 49.8288 506.314 46.8405C506.698 44.8239 507.775 42.9459 508.316 40.945C508.768 39.0868 509.11 37.2034 509.34 35.3047C509.755 32.4971 509.888 29.6329 510.58 26.8884C510.895 25.7004 512.246 24.7551 513.2 23.7657C514.438 22.4833 515.518 21.1914 515.968 19.3543C516.489 17.3189 517.183 15.3318 518.043 13.4147C518.455 12.4694 519.302 11.71 519.995 10.8939C520.94 9.8194 524.013 9.6776 524.98 10.708C525.125 10.8655 524.841 11.4264 524.756 11.8014L524.545 11.7919ZM508.524 56.5866C508.556 56.7536 508.587 56.9206 508.622 57.0844C509.349 56.7693 510.161 56.5771 510.782 56.1202C511.201 55.8051 511.345 55.1308 511.613 54.6172L511.21 54.3809L508.524 56.5866Z" fill="white"/>
<path d="M326.675 85.1189C327.503 83.1432 328.372 82.8375 330.088 83.8585C330.246 83.9498 330.718 83.7513 330.872 83.5434C331.401 82.9132 331.874 82.283 332.818 82.8596C332.899 82.8984 332.987 82.9186 333.076 82.9186C333.166 82.9186 333.254 82.8984 333.335 82.8596C334.783 81.9143 336.143 80.8146 337.674 80.0237C338.87 79.4187 340.265 79.2107 341.616 78.9902C342.06 78.5774 342.246 77.4966 343.342 78.4954C343.581 78.4061 343.79 78.2497 343.943 78.0449C344.538 77.1279 345.486 76.9893 346.44 76.7246C348.125 76.2551 350.219 76.0944 351.343 74.9915C353.748 72.6535 357.077 72.8173 359.718 71.2103C361.173 70.3281 362.704 71.4498 363.79 72.4707C364.259 72.1556 364.668 71.7712 365.144 71.6578C365.386 71.5979 365.752 72.0517 366.06 72.288C365.844 72.5246 365.608 72.7418 365.355 72.9371C363.528 74.0904 361.724 75.2846 359.841 76.3402C358.727 76.9704 357.467 77.3296 356.302 77.8716C354.173 78.8673 352.073 79.9323 349.941 80.9249C348.52 81.5824 347.081 82.2021 345.624 82.784C343.959 83.4457 342.252 84.0097 340.586 84.6746C339.465 85.122 339.012 84.9897 338.725 84.0885C336.103 85.4119 333.435 86.7227 330.803 88.0966C328.171 89.4704 325.926 91.487 322.846 92.3252C319.933 93.1192 317.355 95.1044 314.574 96.4404C311.98 97.7008 309.309 98.7721 306.658 99.812C306.1 100.144 305.523 100.443 304.929 100.707C303.024 101.438 301.041 101.992 299.205 102.856C297.302 103.73 295.487 104.786 293.786 106.007C291.982 107.327 290.404 108.956 288.726 110.447L288.282 110.289C288.496 109.599 288.723 108.912 288.911 108.219C289.226 107.135 289.91 106.13 289.601 104.907C289.574 104.806 289.569 104.7 289.587 104.596C289.605 104.493 289.645 104.395 289.705 104.308C291.09 103.102 291.484 101.192 292.939 99.9853C294.45 98.7249 295.48 96.9792 297.514 96.2608C300.411 95.2367 303.131 93.6392 306.082 92.8829C308.636 92.2275 310.906 90.9923 313.375 90.1888C316.312 89.2435 319.105 87.8319 322.009 86.7479C323.192 86.3068 324.653 86.5211 325.29 85.0023C325.356 84.8888 326.124 85.0684 326.675 85.1189Z" fill="white"/>
<path d="M413.028 185.207C412.524 187.262 412.524 187.262 410.972 187.69C410.89 187.41 410.805 187.129 410.71 186.814C410.635 186.893 410.556 186.94 410.537 187C410.298 187.775 410.178 188.613 409.794 189.3C409.536 189.764 408.903 190.013 408.437 190.356C408.091 189.861 407.634 189.411 407.458 188.853C407.385 188.626 407.921 188.223 408.21 187.832C406.437 186.95 407.007 185.144 407.171 183.509C407.347 181.76 407.873 180.027 407.892 178.281C407.914 176.076 407.455 173.898 407.432 171.705C407.414 169.73 407.719 167.754 407.845 165.775C407.873 165.34 407.634 164.877 407.706 164.464C408.172 161.884 408.355 159.186 409.281 156.773C410.622 153.253 411.683 149.771 411.772 145.971C411.888 140.762 412.13 135.554 412.445 130.355C412.587 128.042 413.119 125.757 413.321 123.448C413.418 122.335 413.034 121.185 413.097 120.063C413.255 117.272 412.496 114.392 413.944 111.71C414.001 111.505 414.016 111.291 413.988 111.08C414.092 107.989 414.177 104.895 414.303 101.803C414.401 99.5819 414.599 97.3636 414.675 95.1422C414.731 93.4911 414.401 93.1003 412.417 92.4103C415.305 90.9041 416.35 87.4947 419.817 86.9338L420.522 85.4529C420.749 86.1209 420.894 86.3383 420.887 86.5525C420.768 89.9588 420.698 93.3713 420.468 96.7712C420.32 98.9769 419.905 101.183 419.653 103.388C419.401 105.594 419.25 107.734 418.989 109.898C418.941 110.286 418.475 110.617 418.4 111.011C418.264 111.707 418.312 112.435 418.227 113.141C418.142 113.847 417.984 114.552 417.868 115.258C417.82 115.573 417.783 115.869 417.761 116.178C417.591 118.674 417.423 121.171 417.257 123.668C417.228 124.081 417.058 124.516 417.143 124.897C417.855 128.048 416.885 131.038 416.356 134.085C415.937 136.483 415.9 138.941 415.531 141.348C415.031 144.603 414.366 147.83 413.79 151.072C413.61 152.087 413.475 153.111 413.34 154.129C413.025 156.442 412.663 158.748 412.417 161.061C412.001 164.978 411.696 168.907 411.28 172.824C410.965 175.713 410.458 178.581 410.235 181.473C410.04 184.016 410.647 184.665 413.028 185.207Z" fill="white"/>
<path d="M327.15 171.655C327.434 171.904 328.221 172.257 328.331 172.758C328.605 173.999 329.572 174.113 330.419 174.276C332.242 174.626 334.037 173.574 335.091 171.967C335.45 171.422 336.247 171.166 336.848 170.776C338.262 173.079 336.266 174.276 335.482 175.672C334.283 177.834 332.819 179.838 331.124 181.637C329.975 182.835 328.321 183.707 326.731 184.246C326.051 184.473 324.65 183.701 324.127 182.986C323.305 181.864 322.572 180.424 322.484 179.075C322.288 176.069 320.953 173.558 319.678 170.984C319.587 170.798 319.313 170.624 319.335 170.479C319.766 167.804 317.468 165.536 318.195 162.785C318.289 162.422 317.534 161.906 317.361 161.398C316.665 159.328 316.151 157.192 315.358 155.166C314.671 153.417 313.585 151.829 312.892 150.083C312.417 148.892 312.241 147.562 312.058 146.28C311.96 145.416 311.69 144.581 311.264 143.824C310.839 143.066 310.266 142.401 309.58 141.868C307.955 140.608 308.116 138.85 308.799 137.438C309.832 135.302 311.318 133.373 312.685 131.41C313.113 130.796 315.087 131.186 315.323 131.94C316.268 134.917 317.074 137.926 318.003 140.91C318.469 142.41 319.118 143.85 319.606 145.344C319.987 146.516 320.188 147.748 320.569 148.92C321.451 151.63 322.458 154.299 323.283 157.028C324.042 159.571 324.581 162.18 325.267 164.748C325.664 166.235 326.187 167.691 326.612 169.159C326.82 169.881 326.933 170.624 327.15 171.655Z" fill="white"/>
<path d="M619.387 40.1415C619.214 39.464 619.138 39.1773 619.044 38.8086C618.952 38.9945 618.877 39.0764 618.883 39.1521C619.015 40.7276 618.149 41.6477 616.899 42.4071C616.235 42.7939 615.642 43.2916 615.145 43.8786C613.949 45.3627 613.13 47.3447 611.647 48.3656C609.094 50.1522 608.325 53.2528 606.005 55.0835C605.12 55.783 604.254 56.3975 603.996 57.5665C603.947 57.7152 603.849 57.843 603.718 57.9289C601.829 59.2271 600.016 60.6261 598.051 61.7605C597.056 62.3371 596.344 61.4107 595.932 60.5379C595.598 59.8289 595.396 59.0569 595.056 58.0864L602.343 51.693C602.478 52.2665 602.544 52.5564 602.544 52.5501L604.339 51.6048L602.868 51.4725C603.183 51.0156 603.445 50.6343 603.715 50.2656C604.614 49.041 605.513 47.8184 606.414 46.5979C608.566 43.7263 611.093 41.1563 613.927 38.9567C614.991 38.1545 616.008 37.2907 616.972 36.3697C618.801 34.5421 620.549 32.6358 622.325 30.7578C624.101 28.8798 625.949 26.9451 627.744 25.0198C629.032 23.6397 630.112 21.9949 631.595 20.8794C633.534 19.4205 634.429 16.7831 637.181 16.2002C637.943 16.0426 638.497 14.9681 639.18 14.3505C642.199 11.6476 645.467 9.23782 648.942 7.15365C650.711 6.07601 652.685 5.22523 654.187 3.85454C654.89 3.22434 655.507 2.45552 656.392 2.03958C657.276 1.62365 658.202 1.30854 659.323 0.867401C659.877 4.39022 657.941 6.6747 656.697 9.16084C655.123 12.3118 651.838 10.9254 649.14 11.8266L652.112 11.9873L647.632 15.841C646.413 15.2108 645.245 15.9922 644.149 16.8871C642.077 18.5792 640.034 20.3122 637.981 22.0358C637.792 22.1934 637.666 22.4959 637.464 22.5589C634.911 23.3593 633.342 25.5019 631.44 27.1341C630.376 28.0479 629.236 29.1476 628.852 30.7263C628.707 31.2998 628.002 31.7315 627.561 32.2388C626.544 33.4109 625.622 34.6839 624.501 35.7521C622.92 37.252 621.21 38.5912 619.387 40.1415ZM648.145 10.2952L647.282 9.53581C647.304 11.4831 645.985 11.6092 644.744 11.7069V13.714H647.698C647.83 12.6458 647.972 11.6407 648.145 10.2952Z" fill="white"/>
<path d="M581.601 126.318L577.508 125.915C577.356 125.899 577.167 125.789 577.057 125.846C574.28 127.216 572.532 124.355 570.089 124.078C568.83 123.933 567.765 122.275 566.584 121.333C566.317 121.119 565.873 121.119 565.64 120.895C563.861 119.257 561.704 117.836 560.473 115.854C559.386 114.095 559.742 111.795 560.35 109.574C561.128 106.716 563.382 104.91 564.591 102.399C566.103 99.248 567.806 96.1978 569.459 93.1193C569.807 92.4026 570.257 91.7403 570.794 91.153C573.055 88.9001 574.258 86.0547 575.436 83.1841C575.729 82.4752 575.921 81.637 576.428 81.1265C577.952 79.5889 577.457 77.5722 577.344 75.9368C577.256 74.6764 575.751 73.4412 574.724 72.3384C574.034 71.5979 573.868 71.1473 574.554 70.2871C575.32 69.2571 575.988 68.1579 576.55 67.0038C577.048 66.0585 577.429 66.1813 578.15 66.8336C580.7 69.1496 582.41 72.0737 584.133 74.9789C584.794 76.0944 584.337 77.1531 583.582 78.319C582.064 80.6633 580.905 83.244 579.589 85.7207C578.685 87.4159 577.848 89.1521 576.827 90.7623C576.015 92.0511 574.938 93.1634 574.047 94.4175C573.417 95.3313 572.939 96.3585 572.369 97.3195C570.895 99.7994 569.283 102.207 567.96 104.772C566.676 107.292 565.715 110.037 566.386 112.873C566.823 114.507 567.634 116.017 568.754 117.284C570.032 118.753 571.544 119.997 572.847 121.491C574.9 123.823 577.69 125.745 581.229 125.543C581.355 125.543 581.484 125.641 581.614 125.694C581.617 125.905 581.61 126.113 581.601 126.318Z" fill="white"/>
<path d="M292.747 165.52C291.972 168.671 290.228 170.483 288.024 171.507C288.068 171.973 288.275 172.452 288.115 172.732C287.527 173.721 286.862 174.661 286.125 175.543C285.442 176.343 284.62 177.024 283.823 177.79C284.453 178.968 284.138 179.242 281.581 179.394C281.507 179.668 281.472 179.951 281.477 180.235C281.776 182.283 281.345 183.071 279.333 184.06C277.718 184.851 276.915 184.473 275.324 183.162C272.412 180.761 273.145 177.746 273.539 174.73C273.567 174.525 273.643 174.157 273.58 174.131C272.292 173.577 273.048 172.493 272.843 171.652C272.418 169.931 271.603 168.315 271.096 166.61C270.856 165.81 270.582 164.562 270.985 164.118C272.503 162.438 270.598 160.475 271.666 158.862C270.46 158.439 270.699 157.315 270.639 156.464C270.576 155.55 270.976 154.608 270.954 153.685C270.926 152.842 270.749 152.011 270.431 151.23C269.801 149.654 270.116 148.29 270.856 147.37C270.541 146.377 270.267 145.728 270.11 145.054C270.019 144.657 270.214 144.172 270.066 143.813C269.718 143.051 269.33 142.308 268.904 141.588C268.274 141.957 267.645 142.316 267.015 142.7C266.631 143 266.168 143.179 265.683 143.217C266.391 142.067 267.093 140.914 267.811 139.773C268.243 139.089 269.216 138.015 269.071 137.816C268.274 136.802 269.197 136.294 269.505 135.664C269.754 135.16 270.255 134.779 270.63 134.328C270.823 134.143 270.975 133.918 271.074 133.669C271.357 132.488 271.388 131.193 272.865 130.714C273.277 130.54 273.673 130.329 274.046 130.084C274.352 130.553 274.617 131.049 274.836 131.565C274.959 131.94 274.858 132.39 274.858 132.907L273.167 133.37L274.786 133.855C274.814 134.309 274.843 134.82 274.871 135.314C273.319 135.878 273.237 136.174 274.273 137.303C274.902 137.999 275.104 140.69 274.616 141.575C274.577 141.685 274.562 141.803 274.573 141.919C274.583 142.035 274.618 142.148 274.676 142.25C275.117 143.05 274.921 144.966 274.452 145.442C274.717 146.135 275.082 146.702 275.135 147.313C275.233 148.516 275.233 149.725 275.135 150.927C275.091 151.495 274.717 152.03 274.531 152.594C274.414 152.95 274.181 153.524 274.326 153.663C275.309 154.608 275.29 155.449 274.276 156.398L275.183 156.042C275.302 156.174 275.419 156.24 275.425 156.313C275.759 160.365 276.087 164.416 276.411 168.466C276.54 170.041 276.411 171.693 278.042 172.754C278.357 172.956 278.313 173.7 278.435 174.204C280.243 172.978 280.573 175.688 281.864 175.209L285.372 173.983C284.862 173.41 284.928 173.054 285.885 172.351C287.123 171.444 287.844 169.862 288.902 168.671C289.475 168.041 290.294 167.612 290.977 167.061C291.207 166.875 291.333 166.556 291.556 166.358C291.938 166.058 292.336 165.778 292.747 165.52Z" fill="white"/>
<path d="M214.524 186.313L216.48 187.129L215.809 188.106L216.883 188.267C216.921 190.473 217.827 192.228 219.241 193.784C219.721 194.313 220.159 194.877 220.551 195.473C222.163 197.928 225.026 198.359 227.346 196.522C227.762 196.192 228.341 196.069 228.845 195.848C227.966 193.819 233.688 188.503 237.618 188.065L236.399 187.63C236.764 187.101 237.082 186.613 237.429 186.14C237.775 185.667 238.074 185.302 238.411 184.88C238.591 184.659 238.764 184.338 239 184.271C240.448 183.862 241.116 182.759 241.812 181.536C242.605 180.147 243.701 178.937 244.611 177.598C245.241 176.652 245.713 175.628 246.318 174.677C246.594 174.325 246.911 174.008 247.262 173.731C247.388 174.267 247.738 174.878 247.577 175.326C247.328 176.085 246.724 176.725 246.349 177.453C245.974 178.18 245.66 179.012 245.316 179.791C245.125 180.304 244.891 180.8 244.617 181.275C242.8 183.994 240.911 186.669 239.132 189.414C238.383 190.57 238.055 192.054 237.161 193.053C235.703 194.682 234.916 196.885 232.665 197.909C231.783 198.309 231.405 199.759 230.731 200.685C229.853 201.898 228.886 203.048 227.998 204.255C227.308 205.2 226.811 206.316 225.986 207.091C224.928 208.099 223.82 209.171 222.207 209.334C220.834 209.473 219.707 209.101 219.1 207.79C218.048 205.519 217.053 203.221 216.033 200.934C215.456 199.639 214.886 198.344 214.31 197.046C214.269 196.951 214.162 196.812 214.191 196.771C215.198 195.439 213.542 194.534 213.643 193.384C213.759 192.108 214.065 190.863 214.228 189.578C214.383 188.635 214.42 187.656 214.524 186.313Z" fill="white"/>
<path d="M558.788 75.6091C558.19 75.0735 557.579 74.7867 557.475 74.3708C557.315 73.722 557.369 73.0389 557.63 72.4235C558.093 71.4782 558.814 70.6558 559.396 69.7609C560.155 68.595 560.64 67.0762 561.685 66.32C562.884 65.52 563.869 64.4381 564.554 63.169C564.951 62.397 565.58 61.729 565.889 60.9286C566.8 58.6518 567.112 56.1794 566.796 53.7475C566.553 51.9451 566.638 50.0892 567.681 48.3183C568.329 47.2123 568.254 45.6904 568.543 44.3638C568.734 43.3814 569.051 42.4281 569.488 41.5279C568.994 40.4439 569.693 39.6373 570.354 38.8212C571.846 37.0604 573.103 35.1124 574.092 33.0265C574.109 32.977 574.138 32.9326 574.177 32.8973C575.556 31.7031 576.885 30.4427 578.349 29.365C578.78 29.0499 579.593 29.2516 580.162 29.0153L581.973 28.5741V30.0803L583.654 30.3198C583.207 31.158 582.914 31.826 582.515 32.4247C581.734 33.5968 580.918 34.7459 580.068 35.8719C579.693 36.3697 579.123 36.7226 578.783 37.2457C578.334 38.0211 577.94 38.8277 577.606 39.6593C577.452 40.0712 577.323 40.4921 577.221 40.9197C576.932 40.9418 576.629 40.9859 576.327 40.9828C574.025 40.9481 573.065 41.7422 572.442 43.992C572.278 44.5781 571.771 45.0696 571.305 45.788C571.21 45.7124 571.595 45.8826 571.585 46.0307C571.484 47.6944 571.182 49.3581 571.229 51.0124C571.258 51.9357 571.604 53.1267 572.249 53.6719C572.895 54.217 573.588 53.4355 573.922 52.5879C574.207 51.9154 574.712 51.3599 575.354 51.0124C575.213 53.0417 575.159 55.0835 574.872 57.0907C574.8 57.6138 573.997 58.036 573.446 58.5811C574.199 59.413 573.984 60.3866 573.024 61.3508C571.5 62.8728 569.998 64.4199 568.543 66.008C567.999 66.6067 567.674 67.4039 567.136 68.0121C566.374 68.866 565.514 69.6348 564.689 70.432C563.398 71.6704 562.454 73.312 560.281 73.4034C559.771 73.4381 559.314 74.7962 558.788 75.6091Z" fill="white"/>
<path d="M431.344 92.133C432.443 95.4163 433.517 98.2995 434.36 101.249C435.05 103.675 435.362 106.205 436.026 108.641C436.971 112.054 438.117 115.406 439.058 118.819C439.468 120.306 439.49 121.897 439.836 123.407C440.207 125.211 440.715 126.985 441.354 128.713C442.103 130.604 442.805 130.811 444.887 130.37C445.139 130.317 445.397 130.298 446.08 130.203C445.743 131.18 445.51 131.958 445.202 132.705C444.991 133.219 444.544 133.651 444.421 134.183C443.964 136.14 442.169 135.998 440.828 136.512C440.602 136.542 440.372 136.515 440.159 136.432C439.947 136.35 439.759 136.214 439.613 136.039C438.249 133.518 436.854 131.016 435.702 128.404C434.442 125.546 433.45 122.568 432.295 119.663C431.728 118.245 430.947 116.909 430.45 115.469C429.755 113.601 429.228 111.674 428.875 109.712C428.724 108.723 429.357 107.623 429.565 106.561C429.673 105.899 429.725 105.229 429.719 104.557C429.747 102.733 429.628 100.899 429.785 99.0872C429.958 97.0832 430.361 95.0981 430.698 93.1003C430.73 92.8545 430.994 92.6371 431.344 92.133Z" fill="white"/>
<path d="M381.483 130.581C381.059 130.059 380.68 129.501 380.349 128.915C380.281 128.737 380.256 128.546 380.276 128.357C380.297 128.168 380.362 127.986 380.466 127.828C381.467 126.747 381.495 126.775 380.113 126.154C380.919 123.476 380.617 123.221 378.388 121.336C376.993 120.155 376.029 118.415 375.053 116.815C374.785 116.38 375.273 115.539 375.251 114.89C375.182 112.807 375.012 110.73 374.937 108.647C374.918 108.131 375.088 107.608 374.937 107.173C374.278 104.249 373.62 101.321 372.943 98.3058L375.037 97.9403L373.381 97.2723C373.696 93.2642 375.585 89.9462 377.818 86.5368C378.479 87.167 379.118 88.7866 379.546 86.7133C379.562 86.6408 380.016 86.5431 380.088 86.6219C380.271 86.8141 380.51 87.1576 380.444 87.3466C380.025 88.5787 379.814 90.0155 379.011 90.9608C377.185 93.135 377.711 95.6022 377.594 98.0348C377.446 101.211 379.502 103.549 380.551 106.268C381.225 108.008 381.81 109.785 382.544 111.496C382.809 112.104 383.397 112.583 383.87 113.09C384.333 113.633 384.843 114.134 385.394 114.587C386.108 115.129 386.549 115.498 385.283 115.866C385.208 115.892 385.356 116.837 385.482 117.332C385.542 117.565 385.979 117.801 385.935 117.946C385.441 119.635 385.743 121.529 384.556 123.051C384.147 123.574 383.712 124.311 383.753 124.894C383.822 125.89 382.727 126.23 382.809 127.279C382.881 128.225 382.317 129.227 382.034 130.203L381.483 130.581Z" fill="white"/>
<path d="M515.58 111.836C515.58 112.079 515.662 112.447 515.53 112.558C514.428 113.503 513.382 114.565 512.126 115.23C510.869 115.895 509.405 115.888 507.963 115.091C506.877 114.489 505.642 114.461 504.632 113.336C503.089 111.606 503.079 109.92 503.64 107.979C503.713 107.777 503.723 107.557 503.668 107.349C502.585 104.624 503.696 101.825 503.378 99.0746C503.104 96.7082 502.84 94.3481 502.79 91.9534C502.761 90.5701 502.191 89.1364 503.734 87.8256C505.277 86.5147 506.197 84.5926 507.466 82.9919C507.714 82.6768 508.41 82.3617 508.681 82.4972C509.021 82.6579 509.311 83.2818 509.311 83.7103C509.415 88.3675 509.411 93.0247 509.534 97.6787C509.61 100.584 509.821 103.486 510.029 106.385C510.277 109.596 512.526 111.408 515.58 111.836Z" fill="white"/>
<path d="M376.001 148.665L380.044 145.782C379.641 148.35 378.224 149.799 376.734 151.227C375.894 152.04 374.905 152.828 374.398 153.836C372.713 157.195 369.045 158.071 366.347 155.515C364.706 153.94 363.034 152.364 361.737 150.518C360.921 149.368 360.811 147.732 360.313 146.343C360.112 145.782 359.684 145.303 359.426 144.767C359.111 144.137 358.862 143.488 358.588 142.845C358.41 142.325 358.191 141.819 357.933 141.333C357.543 140.718 356.472 140.268 357.618 139.414C356.696 136.31 359.917 134.854 360.452 132.318C360.591 131.687 361.101 131.101 361.504 130.38C362.404 130.556 362.546 131.439 362.316 132.217C361.888 133.644 361.686 134.873 363.261 135.721C363.462 135.828 363.506 136.25 363.601 136.534C364.186 138.289 364.514 140.189 365.411 141.768C366.388 143.482 367.776 145.013 369.19 146.415C370.878 148.095 373.057 148.637 375.437 148.391C375.683 148.363 375.941 148.634 376.001 148.665Z" fill="white"/>
<path d="M579.378 115.107C580.364 113.336 581.406 111.896 581.995 110.289C582.842 107.97 584.124 105.796 584.013 103.111C583.935 101.192 584.571 99.2511 584.838 97.3132C584.859 96.9061 584.798 96.499 584.659 96.1159C584.149 94.2914 584.684 92.2559 585.818 91.3452C587.102 90.3117 587.783 88.9379 588.9 87.8791C589.744 87.0788 590.352 87.4411 590.764 88.2194C591.014 88.7838 591.149 89.3922 591.161 90.0092C591.542 94.783 590.61 99.4622 589.886 104.119C589.606 105.919 589.07 107.983 587.915 109.265C586.523 110.812 586.066 112.731 584.873 114.307C584.073 115.362 583.673 116.714 582.918 117.81C582.488 118.4 581.863 118.818 581.154 118.989C580.805 119.058 580.266 118.327 579.86 117.911C579.614 117.617 579.396 117.301 579.208 116.966C578.947 116.569 578.402 116.052 578.506 115.794C578.664 115.416 579.265 115.192 579.378 115.107Z" fill="white"/>
<path d="M475.216 85.1188C477.577 86.1177 477.766 88.2887 479.155 89.7855C479.561 89.1143 479.945 88.4999 480.311 87.8728C480.811 87.0094 481.772 86.8645 482.376 87.6522C483.673 89.3475 484.807 91.2255 484.659 93.3965C484.363 97.6976 483.944 102.002 483.302 106.262C483.081 107.74 482.058 109.098 481.384 110.541C480.994 110.711 480.515 110.948 480.015 111.115C479.813 111.181 479.385 111.149 479.36 111.067C478.966 109.864 477.486 109.054 478.056 107.497C478.132 107.283 478.157 106.867 478.056 106.801C476.532 105.953 477.193 104.438 477.039 103.247C476.828 101.595 476.954 99.897 476.96 98.2207C476.982 96.2788 476.621 94.3516 475.899 92.5489C475.062 90.4409 475.411 87.8634 475.216 85.1188Z" fill="white"/>
<path d="M209.291 155.496C208.466 153.543 209.392 151.882 211.316 152.074C211.379 152.746 211.404 153.401 211.508 154.047C211.634 154.806 211.823 155.556 211.993 156.338C213.057 157.037 214.373 157.797 215.567 158.72C216.76 159.643 217.906 160.778 218.98 161.739C218.548 163.242 218.117 164.782 217.657 166.314C217.317 167.442 216.993 168.579 216.549 169.663C216.41 170 215.9 170.186 215.837 170.234C215.579 171.592 215.349 172.783 215.088 174.154C213.646 172.915 212.38 171.875 211.171 170.776C210.085 169.789 209.055 168.737 208.022 167.7C207.846 167.524 207.594 167.281 207.603 167.07C207.71 164.622 207.852 162.177 208.003 159.735C208.007 158.915 208.094 158.098 208.261 157.296C208.416 156.706 208.888 156.19 209.291 155.496Z" fill="white"/>
<path d="M526.771 91.383C526.771 91.2791 526.705 91.131 526.755 91.0679C528.235 89.417 529.457 87.5515 530.38 85.5348C531.425 83.2661 533.166 81.2998 534.089 78.9933C535.477 75.5272 536.734 72.0107 538.519 68.7053C539.697 66.5248 540.673 64.2372 541.747 62C541.888 61.6849 542.062 61.1807 542.244 61.1712C543.819 61.1082 545.393 61.1334 547.065 61.1334C547.054 60.7709 547.076 60.408 547.131 60.0495C547.21 59.6854 547.374 59.3451 547.61 59.0569C547.734 59.0326 547.862 59.0373 547.983 59.0706C548.105 59.104 548.218 59.1651 548.312 59.2491C548.488 59.6745 548.75 60.2984 548.57 60.5978C547.975 61.5777 547.087 62.3875 546.527 63.3833C545.815 64.6437 545.333 66.0175 544.716 67.3283C543.57 69.7577 542.392 72.1745 541.237 74.604C540.944 75.2342 540.749 75.8864 540.405 76.4725C539.653 77.7613 538.869 79.0374 538.025 80.2695C537.099 81.6265 536.125 82.951 535.103 84.2429C534.87 84.5391 534.356 84.6115 534.13 84.7187C534.098 85.2449 534.243 85.8278 534.016 86.124C531.079 89.9745 528.708 91.6635 526.771 91.383Z" fill="white"/>
<path d="M266.655 117.662L253.871 121.759C253.871 120.93 253.711 119.789 253.915 118.718C254.133 117.58 255.065 116.641 254.529 115.252C254.428 114.984 255.842 114.121 256.57 113.55C257.226 113.022 257.985 112.637 258.798 112.42C259.612 112.203 260.461 112.159 261.293 112.29C261.451 112.301 261.607 112.253 261.731 112.154C264.423 109.703 268.312 110.752 271.202 108.518C271.319 109.101 271.441 109.325 271.385 109.486C270.708 111.376 270.025 113.292 269.303 115.183C268.79 116.528 268.337 117.918 267.638 119.162C267.222 119.9 266.003 120.158 266.315 121.384C266.331 121.444 265.95 121.601 265.755 121.699C265.623 121.456 265.333 121.163 265.393 120.98C265.704 120.019 266.107 119.074 266.655 117.662Z" fill="white"/>
<path d="M458.587 117.155C459.138 116.068 459.671 114.855 460.348 113.727C460.853 112.975 461.422 112.268 462.048 111.612C462.322 111.297 462.775 110.746 462.961 110.815C463.415 110.998 463.782 111.347 463.988 111.792C464.484 113.017 464.91 114.27 465.263 115.545C465.631 116.868 466.179 117.949 467.395 118.784C468.256 119.373 468.894 120.234 469.208 121.229C469.596 122.783 470.701 123.47 471.806 124.298C472.207 124.607 472.472 125.059 472.546 125.559C472.565 125.833 471.96 126.132 471.655 126.441C470.959 127.15 470.04 127.758 469.649 128.612C469.114 129.769 468.408 129.731 467.568 129.324C465.921 128.496 464.526 127.243 463.525 125.694C462.813 124.654 461.868 123.769 461.185 122.713C460.697 121.963 460.477 121.047 460.133 120.193C459.819 119.458 460.259 118.28 458.874 118.17C458.77 118.167 458.707 117.625 458.587 117.155Z" fill="white"/>
<path d="M425.26 66.1467C425.175 66.9691 425.235 67.6875 425.018 68.3114C423.488 72.6629 420.348 75.7068 416.941 78.5206L416.598 78.2749L418.487 74.1061C417.039 73.6902 418.012 72.5306 418.173 71.6956C418.557 69.6159 419.517 67.5993 419.58 65.5196C419.678 62.252 421.397 60.1944 423.733 58.3795C424.395 57.8627 425.135 57.4341 426.148 56.7819C426.347 59.4886 426.511 61.7258 426.677 64.0292L424.905 64.2435C426.278 65.2423 426.271 65.5826 425.26 66.1467Z" fill="white"/>
<path d="M386.37 74.4874L385.649 76.7183C384.364 74.4968 385.469 68.1444 386.852 67.6465C386.965 67.0163 386.971 66.4366 387.182 65.9418C387.718 64.6814 388.457 63.5093 388.892 62.2237C389.112 61.5651 388.813 60.7458 388.81 59.9959C388.791 57.2293 389.635 56.2494 392.321 55.6759C393.146 55.5026 393.927 55.115 394.985 54.7306C394.99 54.5453 395.044 54.3647 395.142 54.2075C395.284 54.0185 395.589 53.9491 395.823 53.8231C395.879 54.0563 396.068 54.3777 395.977 54.5069C393.94 57.4373 394.447 61.0988 393.168 64.2277C392.102 66.8333 390.813 69.3414 389.314 71.7239C388.835 72.4896 388.439 73.3278 387.85 73.9958C387.57 74.3141 386.93 74.3172 386.37 74.4874Z" fill="white"/>
<path d="M538.674 91.1467C538.929 91.5941 539.509 92.1424 539.509 92.6907C539.509 94.9468 539.194 97.2092 539.285 99.459C539.397 101.227 539.709 102.976 540.214 104.674C540.399 105.265 540.419 105.895 540.273 106.496C540.126 107.097 539.819 107.647 539.383 108.086C538.768 108.703 538.105 109.267 537.399 109.775C536.826 110.239 535.173 109.063 534.565 108.178C533.403 106.476 533.834 104.746 533.992 102.935C534.143 101.067 534.125 99.19 533.938 97.3258C533.809 95.9898 534.127 95.0508 535.182 94.2284C536.328 93.3366 537.367 92.3094 538.674 91.1467Z" fill="white"/>
<path d="M546.401 44.764L547.774 44.5245C546.776 42.4889 548.294 41.4365 549.245 40.0028C550.712 37.7971 552.393 39.7791 554.053 39.2277C553.344 42.2841 553.02 45.2146 551.616 47.8551C551.343 48.4668 551.119 49.099 550.945 49.7457C550.444 51.1983 549.663 52.3327 548.127 52.9471C547.393 53.237 546.908 54.1445 546.175 54.4501C545.62 54.6802 544.852 54.4029 544.178 54.3525C544.298 53.8672 544.386 53.3757 544.543 52.9062C545.428 50.2751 546.971 47.8236 546.401 44.764Z" fill="white"/>
<path d="M467.455 82.0309V86.395C466.787 87.2079 466.384 87.6806 466.003 88.169C465.729 88.5251 465.55 88.9851 465.216 89.2655C462.75 91.3168 461.617 94.2095 460.203 96.9445C459.759 97.8079 458.874 98.4413 458.059 98.9927C457.404 100.332 456.758 101.674 456.078 103.001C456.01 103.071 455.926 103.124 455.834 103.157C455.741 103.189 455.643 103.199 455.546 103.187C455.463 103.153 455.389 103.098 455.334 103.027C455.279 102.957 455.243 102.872 455.231 102.783C455.546 101.173 455.738 99.5252 456.251 97.9812C456.566 97.0706 457.347 96.2986 458.754 97.058C458.44 96.6609 458.14 96.2608 457.548 95.4825C458.367 94.2221 459.22 92.6875 460.3 91.3263C462.19 88.9441 463.959 86.521 465.165 83.6914C465.502 82.8974 466.356 82.3239 466.973 81.6464L467.455 82.0309Z" fill="white"/>
<path d="M254.067 161.134H256.085L254.233 164.316C254.473 165.261 253.358 168.847 252.344 169.446C252.25 169.068 252.155 168.702 252.067 168.359L248.638 173.249L247.907 172.802C248.723 171.154 249.482 169.465 250.373 167.867C251.185 166.437 252.237 165.142 253.075 163.724C253.503 162.999 253.695 162.136 254.067 161.134Z" fill="white"/>
<path d="M487.216 81.8481C485.742 80.7452 485.257 79.1666 485.875 77.4713C486.407 76.0507 486.416 74.4866 485.9 73.0599C485.695 72.4297 486.114 71.6042 486.246 70.8542C486.98 71.5128 488.542 71.308 488.516 72.6913C488.46 74.6639 488.296 76.632 488.025 78.5868C487.89 79.6582 487.515 80.6822 487.216 81.8481Z" fill="white"/>
<path d="M472.193 76.2677C472.426 75.8392 472.568 75.3224 472.911 75.0073C474.319 73.7469 475.745 72.5023 477.26 71.371C477.628 71.0938 478.327 71.2639 478.875 71.2292C478.809 71.8594 478.938 72.6062 478.636 73.0757C478.091 73.8337 477.432 74.5032 476.684 75.0609C476.155 75.4926 475.537 76.3213 474.794 75.2342C474.448 75.3455 474.12 75.508 473.821 75.7163C473.396 75.9904 473.003 76.3118 472.593 76.6143L472.193 76.2677Z" fill="white"/>
<path d="M308.488 118.16C308.818 116.793 309.026 115.844 309.272 114.908C309.671 113.396 310.071 111.88 310.515 110.38C310.632 109.838 310.87 109.33 311.211 108.893C311.501 108.578 312.074 108.547 312.521 108.389L312.817 108.814C312.834 108.588 312.886 108.366 312.971 108.156C313.131 107.952 313.315 107.769 313.519 107.611C313.639 107.853 313.907 108.134 313.853 108.329C313.748 108.888 313.527 109.418 313.204 109.886C311.457 112.041 310.547 114.612 309.476 117.108C309.335 117.404 309.02 117.612 308.488 118.16Z" fill="white"/>
<path d="M536.917 29.5037C536.866 29.5037 536.775 29.4722 536.775 29.4596C536.816 28.3725 537.329 26.7056 536.829 26.3086C535.286 25.0702 536.684 24.3644 536.904 23.4159C536.996 23.0221 536.618 22.5431 536.589 22.0894C536.536 21.7278 536.619 21.3593 536.822 21.0558C536.955 20.8995 537.117 20.7714 537.3 20.6794C537.483 20.5874 537.682 20.5332 537.887 20.5202C538.148 20.5202 538.62 21.0684 538.586 21.3079C538.192 24.0272 538.337 26.8379 537.21 29.4281C537.172 29.4785 537.014 29.4785 536.917 29.5037Z" fill="white"/>
<path d="M387.623 92.5867C387.784 94.0299 387.976 95.3817 388.048 96.7397C388.064 97.0107 387.617 97.3101 387.384 97.5968L386.981 97.4708C387.012 96.9225 387.044 96.3774 387.078 95.807C385.677 95.2966 385.422 94.0425 385.287 92.5867H387.623Z" fill="white"/>
<path d="M525.912 93.4091C525.156 92.0889 526.179 92.029 527.14 91.862C527.596 93.1224 526.888 93.9133 526.088 94.6475C525.792 94.9278 525.476 95.1868 525.144 95.4226C524.829 95.6337 524.514 95.7913 524.171 95.9741C524.076 95.4856 523.739 94.7515 523.934 94.5593C524.432 94.0645 525.172 93.8093 525.912 93.4091Z" fill="white"/>
<path d="M378.923 130.944H381.382C381.083 131.647 380.919 132.296 380.544 132.787C380.403 132.979 379.531 132.957 379.439 132.787C379.168 132.277 379.105 131.643 378.923 130.944Z" fill="white"/>
<path d="M266.353 122.953L264.75 127.15L264.234 127.015C264.467 125.738 264.675 124.453 264.977 123.192C265.006 123.066 265.607 123.073 266.353 122.953Z" fill="white"/>
<path d="M296.6 157.749C296.957 156.752 297.312 155.754 297.665 154.756C298.461 156.168 297.794 157.053 297.06 157.907L296.6 157.749Z" fill="white"/>
<path d="M672 5.7514C671.235 7.26703 670.476 8.78897 669.698 10.3014C668.769 12.0975 667.9 13.8054 666.128 15.1414C664.5 16.3671 663.552 18.472 662.226 20.1263C660.9 21.7805 659.48 23.2773 658.161 24.9063C657.645 25.5365 657.393 26.4031 656.835 26.9828C656.458 27.3767 655.633 27.7674 655.233 27.613C654.697 27.3956 654.096 26.8316 654.757 25.8958C655.229 25.2309 655.333 24.2761 655.491 23.4285C655.67 22.458 654.439 21.7868 653.372 22.2532C649.955 23.7373 647.276 26.2959 644.335 28.4733C643.022 29.4132 641.786 30.4552 640.638 31.5896C639.164 33.0958 637.952 34.8603 636.438 36.3161C634.923 37.7719 633.128 38.9567 631.529 40.3431C630.924 40.8662 630.493 41.6035 630.036 42.2747C628.655 44.2937 626.968 46.085 625.036 47.5841C622.888 49.2825 620.942 51.1384 619.409 53.5048C618.355 55.1762 616.944 56.5934 615.278 57.6547C611.471 59.9455 609.345 63.8433 606.118 66.654C605.919 66.8241 605.916 67.218 605.875 67.3503C608.394 69.8018 611.423 71.6987 612.73 74.9789C613.586 77.0681 614.088 79.2852 614.216 81.5393C614.44 87.0378 614.531 92.5678 614.267 98.0537C614.116 101.161 613.162 104.22 610.624 106.467C610.207 106.897 609.922 107.439 609.805 108.027C609.405 109.744 608.29 110.941 607.1 112.123C604.934 114.278 602.843 116.515 600.629 118.623C599.685 119.531 598.485 120.199 597.411 120.971C595.919 122.055 594.423 123.139 592.946 124.245C592.058 124.91 591.237 125.666 590.323 126.29C589.835 126.624 589.206 126.974 588.655 126.951C585.962 126.838 583.27 126.636 580.587 126.387C579.498 126.287 578.434 125.959 577.353 125.757C574.938 125.332 573.26 123.971 571.871 121.976C571.125 120.889 569.932 120.117 568.975 119.169C565.738 115.955 565.237 114.162 566.386 109.492C567.161 106.341 568.66 103.662 570.395 101.053C571.824 98.9076 573.487 96.9225 574.894 94.7514C575.908 93.2011 576.651 91.4744 577.549 89.8453C578.731 87.6963 579.929 85.5557 581.145 83.4236C582.114 81.7157 583.185 80.0551 584.054 78.2969C584.271 77.8589 584.079 76.9892 583.755 76.5512C581.97 74.1281 581.079 71.037 578.402 69.2535C578.191 69.1117 578.197 68.68 578.021 68.4469C577.24 67.4354 576.683 67.5299 576.094 68.6769C575.208 70.4056 574.003 71.9506 572.542 73.2301C570.705 74.7926 569.271 76.7748 568.361 79.009C567.583 80.9941 566.27 82.7902 565.086 84.5831C564.009 86.2217 562.759 87.7341 561.638 89.3569C560.422 91.1089 559.295 92.927 558.077 94.679C556.375 97.1529 554.096 99.1752 551.439 100.571C550.957 100.827 550.394 101.353 550.293 101.832C549.924 103.672 548.63 104.693 547.242 105.657C546.001 106.514 544.723 107.337 543.463 108.143C542.037 109.044 540.339 108.181 539.842 106.757C538.469 102.837 539.574 98.832 539.156 94.8964C539.07 94.0866 538.705 93.3209 538.504 92.6339C536.262 94.4962 534.139 96.0213 532.307 97.8362C530.273 99.8529 528.484 102.118 526.617 104.302C525.653 105.424 524.309 106.467 523.915 107.768C522.99 110.872 519.992 111.449 517.885 112.457C514.066 114.284 510.209 112.429 509.535 107.466C508.556 100.272 509.324 93.0719 508.93 85.8877C508.892 85.185 508.329 83.8962 508.121 83.9183C507.176 84.0223 506.569 84.6367 506.062 85.6293C504.802 88.1123 503.124 90.318 500.255 91.2002C498.785 91.654 497.248 92.0699 496.521 93.6045C495.995 94.7105 495.746 95.9488 495.208 97.0453C493.778 99.9411 492.22 102.771 490.799 105.663C489.379 108.556 488.041 111.408 486.706 114.297C486.218 115.346 485.922 116.503 485.33 117.486C484.738 118.469 484.357 119.506 482.971 119.862C482.112 120.082 481.419 121.037 480.704 121.718C478.941 123.397 477.209 125.111 475.462 126.807C474.076 128.152 472.993 126.744 472.052 126.205C470.628 125.395 469.155 124.506 468.739 122.537C468.541 121.614 467.656 120.646 466.815 120.092C465.096 118.967 464.992 117.098 464.296 115.498C463.946 114.675 463.846 113.739 463.48 112.926C463.037 111.931 462.372 112.003 461.705 112.952C460.102 115.23 458.732 117.773 456.739 119.644C455.423 120.88 454.056 122.008 452.941 123.463C450.901 126.126 448.741 128.694 446.644 131.309C445.813 132.34 442.67 132.22 442.125 131.051C440.614 127.799 439.121 124.595 438.687 120.902C438.35 118.047 437.072 115.309 436.284 112.501C435.796 110.765 435.491 108.981 435.025 107.242C434.204 104.179 433.345 101.133 432.449 98.1041C432.043 96.7334 431.504 95.4005 431.007 93.9574C430.764 94.0771 430.406 94.1433 430.377 94.2725C430.11 95.3596 429.703 96.4782 429.716 97.5621C429.744 100.448 428.406 103.234 429.291 106.218C429.555 107.103 428.863 108.238 428.765 109.274C428.56 111.414 428.806 113.657 428.249 115.69C427.159 119.682 427.046 123.7 427.178 127.758C427.273 130.667 428.107 133.669 427.616 136.455C426.794 141.112 427.301 145.728 427.131 150.357C426.995 154.453 427.228 158.55 427.077 162.618C426.999 164.748 426.762 166.972 426.01 168.942C425.506 170.278 424.209 171.611 422.921 172.291C420.748 173.445 420.222 175.499 419.309 177.38C418.497 179.05 417.785 180.767 416.989 182.447C416.778 182.894 416.267 183.244 416.173 183.707C415.713 185.844 413.903 185.979 412.309 186.376C411.154 186.663 409.841 185.746 409.907 184.53C410.011 182.693 409.085 180.667 410.716 179.044C410.801 178.959 410.77 178.745 410.779 178.587C410.993 175.792 411.217 172.997 411.409 170.199C411.636 166.985 411.743 163.761 412.083 160.56C412.366 157.86 412.678 155.121 413.389 152.516C414.465 148.535 415.099 144.447 415.279 140.327C415.442 136.912 416.412 133.537 416.992 130.14C417.106 129.517 417.124 128.879 417.045 128.25C416.662 125.326 416.877 122.354 417.675 119.515C417.699 119.359 417.705 119.2 417.691 119.042C417.691 117.253 417.675 115.46 417.691 113.686C417.722 113.225 417.819 112.77 417.98 112.337C418.16 111.805 418.61 111.288 418.588 110.762C418.525 108.01 418.923 105.268 419.766 102.648C420.285 100.953 420.033 99.0116 420.081 97.1777C420.14 95.0854 420.112 92.9869 420.194 90.8757C420.238 89.776 420.433 88.67 420.559 87.5829L420.112 87.3088C418.437 88.6542 416.828 90.1005 415.074 91.32C413.185 92.6245 412.42 95.2304 409.879 95.7534C409.844 95.7534 409.828 95.87 409.79 95.8763C406.557 96.4498 405.13 99.5599 402.668 101C400.001 102.575 398.26 104.976 395.848 106.738C394.56 107.683 394.138 109.889 393.508 111.619C392.987 113.021 392.636 114.481 392.463 115.967C392.321 117.202 392.557 118.488 392.642 119.748C392.664 120.063 392.803 120.35 392.803 120.653C392.803 123.747 393.01 126.863 392.714 129.929C392.566 131.445 391.625 132.948 390.825 134.319C389.586 136.501 388.188 138.588 386.64 140.564C384.685 142.949 382.73 145.52 380.233 147.216C378.495 148.394 376.706 150.051 374.121 149.973C370.541 149.853 368.138 147.975 366.214 145.306C364.778 143.327 363.629 141.185 363.5 138.62C363.426 138.011 363.115 137.456 362.634 137.076C361.441 136.215 361.444 135.087 361.822 133.95C362.137 132.973 361.929 132.374 361.255 131.974C359.841 134.397 358.128 136.625 357.161 139.143C356.028 142.146 354.035 144.528 352.123 146.888C350.133 149.355 349.034 152.26 347.321 154.85C344.777 158.698 342.853 162.955 340.709 167.061C340.438 167.581 340.58 168.343 340.259 168.8C339.701 169.6 339.056 170.542 338.218 170.905C336.433 171.677 335.192 172.969 333.961 174.371C332.78 175.713 329.811 176.205 328.407 175.316C328.136 175.146 328.114 174.61 327.928 174.27C326.365 171.433 325.295 168.35 324.764 165.154C324.383 162.926 323.633 160.743 322.893 158.6C322.182 156.53 321.193 154.551 320.481 152.481C320.065 151.274 320.028 149.941 319.681 148.7C319.244 147.124 318.617 145.627 318.167 144.065C317.717 142.502 317.461 140.869 316.964 139.319C316.319 137.287 315.57 135.289 314.722 133.332C314.237 132.233 312.852 132.308 312.156 133.332C310.918 135.144 309.508 136.865 308.503 138.793C307.911 139.927 308.122 141.497 306.91 142.357C304.391 144.146 303.308 147.017 301.629 149.421C300.789 150.628 300.587 152.257 299.935 153.631C299.551 154.431 298.991 155.314 298.257 155.752C296.969 156.524 296.701 157.699 296.368 158.953C296.254 159.391 295.908 159.769 295.656 160.166C295.53 160.362 295.228 160.576 295.259 160.727C295.656 162.592 294.123 163.424 293.254 164.625C292.498 165.662 291.84 166.771 291.153 167.858C291.049 168.022 291.049 168.356 290.933 168.39C288.234 169.219 287.498 171.948 285.778 173.719C284.355 175.187 282.806 176.555 280.699 176.221C279.641 176.054 278.643 175.039 277.777 174.232C275.954 172.537 275.825 170.23 275.743 167.93C275.428 158.994 275.105 150.058 274.773 141.122C274.676 138.405 274.635 135.686 274.439 132.976C274.392 132.671 274.275 132.381 274.096 132.13C273.917 131.878 273.682 131.672 273.41 131.527C273.035 131.385 272.39 131.949 271.87 132.217C271.782 132.273 271.712 132.354 271.668 132.45C270.785 134.145 269.904 135.842 269.027 137.539C268.214 139.114 267.389 140.69 266.615 142.297C265.519 144.556 264.477 146.841 263.39 149.106C262.723 150.496 262.15 151.958 261.284 153.202C260.704 154.041 259.539 154.463 258.894 155.27C258.163 156.19 257.71 157.327 257.162 158.386C256.665 159.35 256.274 160.248 255.081 160.768C254.316 161.102 253.661 162.236 253.421 163.134C252.801 165.48 251.625 167.642 249.992 169.436C248.937 170.634 248.531 172.383 247.653 173.769C246.462 175.66 245.067 177.396 243.817 179.236C242.923 180.553 242.202 181.996 241.242 183.26C240.527 184.205 239.497 184.895 238.704 185.781C237.825 186.77 237.066 187.867 236.229 188.894C235.936 189.263 235.601 189.597 235.231 189.89C234.573 190.4 233.839 190.813 233.206 191.349C230.445 193.68 227.765 196.113 224.944 198.366C223.243 199.724 221.118 198.996 220.044 197.064C219.358 195.839 218.284 194.83 217.597 193.598C217.072 192.653 216.886 191.534 216.539 190.495C216.366 189.981 216.121 189.489 215.988 188.966C215.614 187.498 215.519 185.907 214.877 184.574C214.09 182.906 213.804 181.045 214.055 179.217C214.291 177.204 214.896 175.231 215.283 173.23C215.368 172.805 215.22 172.332 215.17 171.822C216.543 171.166 216.634 169.566 217.135 168.267C217.572 167.133 217.664 165.866 217.985 164.682C218.174 164.189 218.416 163.718 218.706 163.276C216.675 161.572 214.527 159.971 212.641 158.102C211.545 157.018 210.793 155.563 210.988 153.82C211.221 151.709 211.52 149.582 211.47 147.471C211.404 145.366 211.796 143.271 212.619 141.333C213.498 139.237 214.178 137.032 215.289 135.072C216.099 133.644 217.704 132.671 218.529 131.246C219.531 129.52 221.659 128.662 221.977 126.419C222.062 125.82 222.758 125.215 223.313 124.796C224.789 123.678 226.527 122.846 227.818 121.557C229.494 119.881 231.71 119.843 233.666 119.036C233.927 118.929 234.264 118.825 234.393 118.614C236.506 115.11 239.853 114.24 243.61 114.316C244.177 114.381 244.701 114.654 245.08 115.082C246.292 116.418 247.816 116.865 249.52 116.802C250.644 116.761 251.135 117.344 251.179 118.334C251.223 119.323 250.493 119.44 249.649 119.789C248.144 120.462 246.773 121.4 245.6 122.559C242.183 125.811 238.751 129.066 235.605 132.57C233.546 134.929 231.727 137.489 230.177 140.211C228.994 142.268 228.105 144.48 227.535 146.784C227.296 147.729 227.333 149.368 228.795 149.988C230.189 150.575 231.38 149.673 232.107 148.873C233.877 146.916 236.131 145.722 238.282 144.38C239.526 143.598 242.12 144.326 242.8 145.442C243.481 146.557 242.693 147.962 241.61 149.343C239.732 151.759 238.026 154.305 236.506 156.962C235.05 159.5 233.762 162.131 232.652 164.839C231.172 168.406 229.188 171.822 229.021 175.839C228.987 176.693 228.584 177.541 228.584 178.392C228.584 179.624 229.934 180.38 230.898 179.687C232.472 178.537 234.028 177.301 235.501 176.006C236.002 175.565 236.201 174.796 236.61 174.229C238.002 172.285 239.419 170.36 240.839 168.434C242.375 166.348 244.022 164.338 245.442 162.173C246.862 160.009 247.961 157.762 249.259 155.591C250.452 153.565 251.715 151.577 252.908 149.554C253.122 149.113 253.279 148.647 253.377 148.167C253.475 147.83 253.406 147.348 253.617 147.156C255.729 145.205 256.265 142.35 257.76 140.053C258.267 139.275 258.954 138.61 259.42 137.81C260.456 136.039 261.394 134.211 262.392 132.415C263.274 130.84 264.244 129.28 265.062 127.654C265.49 126.769 265.795 125.83 265.969 124.862C266.268 123.344 266.265 121.869 267.229 120.413C268.643 118.275 269.531 115.833 269.82 113.286C269.93 112.34 270.645 111.499 271.08 110.607L270.806 110.292C270.006 110.607 269.231 110.963 268.397 111.187C266.967 111.578 265.491 111.817 264.074 112.236C263.283 112.476 262.606 113.103 261.816 113.345C260.969 113.604 260.046 113.616 259.155 113.746C257.852 113.935 257.644 113.115 257.427 112.079C256.951 109.791 256.513 107.296 258.003 105.484C259.372 103.817 261.466 102.648 263.403 101.561C265.881 100.196 268.592 99.2573 271.086 97.9182C271.81 97.5275 272.113 96.3805 272.638 95.599C273.696 94.0235 274.843 92.5111 275.825 90.8725C277.454 88.1753 279.016 85.4381 280.51 82.661C280.901 81.9363 280.825 80.9563 281.222 80.2348C282.544 77.8022 284.056 75.4767 285.347 73.0253C285.977 71.7964 286.159 70.3343 286.726 69.0582C287.935 66.3326 288.565 66.0427 291.342 66.5878C293.943 67.1014 294.315 68.0467 293.546 70.64C292.863 72.9496 292.545 75.3665 292.142 77.7581C291.632 80.7641 291.238 83.7891 290.706 86.792C290.539 87.7373 290.095 88.6259 289.762 89.5397L290.193 89.8358C291.286 89.4924 292.397 89.2057 293.465 88.8023C295.984 87.835 298.54 86.9117 300.996 85.79C305.474 83.7513 309.885 81.5645 314.341 79.488C315.528 78.9302 316.8 78.5427 317.997 78.0133C319.801 77.1972 321.558 76.274 323.35 75.4547C326.933 73.8193 330.554 72.269 334.122 70.5958C336.134 69.6505 338.067 68.5256 340.035 67.4858C340.242 67.3369 340.48 67.2357 340.731 67.1896C344.538 67.2337 347.444 64.8925 350.697 63.462C351.79 62.983 352.92 62.5955 354.019 62.1323C355.436 61.5367 356.872 60.9727 358.242 60.2795C359.973 59.4035 361.519 59.5453 362.738 61.02C363.16 61.5859 363.712 62.0422 364.347 62.3503C364.982 62.6585 365.682 62.8096 366.387 62.7908C368.098 62.8229 369.8 63.0341 371.466 63.421C371.955 63.5282 372.641 64.3947 372.609 64.8768C372.534 66.1372 371.696 66.9186 370.355 67.1707C368.688 67.4476 367.042 67.8403 365.43 68.346C364.205 68.762 363.094 69.5182 361.935 70.1327C361.793 70.1987 361.675 70.3093 361.601 70.4478C360.657 73.0757 357.945 72.9906 356.012 74.0619C354.397 74.9568 352.523 75.1049 350.927 76.4032C349.504 77.5627 347.296 77.7455 345.457 78.4229C344.865 78.6404 344.365 79.0972 343.782 79.3682C343.407 79.5384 342.938 79.4943 342.557 79.655C342.072 79.8926 341.602 80.1599 341.15 80.4553C340.073 80.6538 338.864 80.6917 337.809 81.1202C336.575 81.618 335.476 82.4499 334.323 83.1463C333.479 83.6536 332.875 84.5957 331.584 84.2019C331.228 84.0947 330.604 84.8604 330.009 85.289C327.884 84.3216 327.254 84.517 325.916 86.3004C325.447 86.5462 324.971 86.8046 324.502 87.0315C323.85 87.3466 323.195 87.6617 322.525 87.9232C320.935 88.5534 319.335 89.1552 317.739 89.7634C315.219 90.7234 312.7 91.6802 310.181 92.6339C310.037 92.6875 309.838 92.6339 309.725 92.7253C307.596 94.3355 304.863 94.3765 302.549 95.4825C299.236 97.058 295.24 97.5401 293.156 101.154C290.986 101.485 291.641 104.274 289.824 104.992C289.469 105.134 289.311 105.937 289.195 106.486C289.066 107.091 289.302 107.869 289.003 108.323C287.466 110.651 288.127 113.26 287.91 115.747C287.646 118.794 287.35 121.85 287.365 124.884C287.384 128.25 287.806 131.606 287.916 134.968C287.948 135.885 287.494 136.817 287.261 137.741C287.151 138.169 286.918 138.604 286.946 139.026C286.994 140.063 287.167 141.093 287.261 142.127C287.482 144.493 287.63 146.853 287.938 149.223C288.004 149.714 288.634 150.483 289.018 150.502C289.695 150.518 290.662 150.237 291.018 149.736C292.432 147.736 293.745 145.665 294.951 143.532C298.194 137.804 301.362 132.034 304.573 126.29C306.148 123.485 307.785 120.722 309.297 117.889C309.983 116.607 310.399 115.183 311.028 113.865C311.425 113.037 312.168 112.343 312.439 111.49C312.71 110.636 314.149 109.999 312.974 108.679C312.697 108.364 313.488 107.103 313.784 106.281C314.429 104.479 315.043 102.66 315.736 100.88C316.032 100.133 316.555 99.4779 316.942 98.7626C317.436 97.852 317.887 96.9256 318.378 96.0055L317.975 95.7345C318.623 95.4194 319.285 95.1579 319.918 94.8302C322.468 93.5225 322.474 93.5068 324.499 95.514C326.524 97.5211 328.347 99.6386 327.83 102.66C327.516 104.485 326.694 106.243 325.941 107.967C325.189 109.69 325.248 109.671 326.886 110.506C328.522 111.362 330.089 112.343 331.574 113.44C332.124 113.891 332.494 114.523 332.617 115.223C332.931 117.155 332.988 119.124 333.246 121.065C333.583 123.561 334.062 126.035 334.396 128.53C334.541 129.614 334.455 130.736 334.518 131.826C334.717 135.198 334.518 138.667 335.277 141.909C335.888 144.481 336.477 146.998 336.71 149.629C336.736 149.909 336.836 150.177 337 150.404C337.165 150.632 337.387 150.812 337.644 150.925C337.901 151.038 338.183 151.081 338.462 151.048C338.741 151.015 339.005 150.908 339.229 150.738C339.89 150.25 340.35 149.428 340.759 148.678C341.474 147.37 341.968 145.936 342.753 144.679C344.107 142.517 345.801 140.551 347.013 138.317C348.934 134.772 350.517 131.048 352.366 127.456C353.181 125.88 354.318 124.44 355.2 122.884C355.653 122.012 356.025 121.099 356.308 120.158C356.936 118.288 358.026 116.607 359.476 115.271C360.024 114.76 360.38 114.036 360.795 113.38C363.195 109.634 365.572 105.871 367.996 102.141C368.343 101.62 368.807 101.188 369.35 100.88C369.747 100.66 370.418 100.537 370.78 100.726C371.727 101.291 372.64 101.912 373.513 102.585C373.371 103.448 372.663 104.51 374.099 105.106C374.206 105.153 374.036 105.856 373.998 106.253C373.929 106.927 373.46 107.699 374.543 108.071C374.672 108.115 374.647 108.66 374.659 108.975C374.703 110.298 374.788 111.625 374.757 112.948C374.719 114.618 375.402 116.377 374.127 117.918C373.868 118.312 373.728 118.772 373.724 119.244C373.57 121.45 373.321 123.674 373.381 125.883C373.48 128.871 374.556 131.744 376.445 134.06C377.191 135.005 379.877 134.81 380.538 133.701C382.005 131.24 383.511 128.773 383.344 125.723C383.326 125.473 383.403 125.227 383.561 125.033C385.428 123.24 385.189 120.801 385.516 118.567C385.759 116.906 385.016 115.68 383.659 114.549C382.773 113.832 382.135 112.856 381.832 111.757C381.256 109.615 380.053 107.626 378.998 105.638C376.933 101.759 376.382 97.7323 377.739 93.532C378.054 92.5867 378.816 91.8021 379.247 90.8851C381.02 87.1039 382.667 83.2818 384.524 79.5573C385.523 77.5596 388.098 77.276 389.758 78.7506C391.808 80.5751 392.743 83.1085 394.135 85.3677C395.196 87.0787 394.815 88.8086 395.167 90.5007C395.539 92.2684 395.58 94.1055 395.778 96.0244C396.959 95.5171 398.193 95.1642 399.242 94.5025C401.761 92.886 404.28 91.2002 406.683 89.3947C408.733 87.8957 410.677 86.2564 412.501 84.4886C413.408 83.5843 413.799 82.1789 414.533 81.0729C414.891 80.604 415.367 80.2378 415.912 80.011C417.171 79.4249 418.431 78.905 418.963 77.4902C419.064 77.3134 419.212 77.1683 419.391 77.0712C422.301 75.0955 423.535 71.9791 424.952 68.9794C425.412 68.0057 426.303 67.1171 426.41 66.1277C426.561 64.7161 426.095 63.2509 426.044 61.8046C426.064 60.8618 426.195 59.9247 426.435 59.0128C426.614 58.1494 427.169 57.286 427.096 56.4636C426.851 53.6939 429.121 52.1436 431.146 51.3999C431.482 51.2739 431.807 51.1164 432.141 50.984C433.655 50.3759 435.623 51.5197 435.563 53.1425C435.444 56.5235 435.223 59.9014 434.88 63.2666C434.754 64.4829 434.165 65.6551 433.75 66.9627C435.853 67.4669 437.213 66.6476 438.429 65.6173C439.644 64.5869 440.649 63.2887 441.936 62.3717C442.751 61.8111 443.743 61.572 444.723 61.7006C445.835 61.9306 446.641 62.6459 446.729 64.2214C446.823 65.9576 447.626 67.6497 448.095 69.367C448.41 70.5549 448.782 71.7365 448.987 72.9465C449.301 74.8844 449.49 76.8443 449.796 78.7853C450.164 81.1297 450.602 83.4645 451.011 85.8057C451.074 86.1618 451.153 86.5179 451.219 86.8771C451.503 88.4337 451.784 89.9913 452.063 91.55C452.298 92.5488 452.465 93.5627 452.561 94.5844C452.623 96.1095 452.85 97.4487 453.82 98.7721C454.513 99.6985 454.639 101.101 454.834 102.32C454.916 102.834 455.952 103.445 454.862 104.012C454.926 104.223 455.033 104.419 455.177 104.586C455.253 104.649 455.631 104.535 455.694 104.412C456.345 103.133 456.953 101.835 457.479 100.764C458.332 99.9348 459.195 99.3235 459.762 98.5074C461.705 95.7219 463.704 92.9522 465.351 89.9997C466.069 88.7078 466.799 88.169 468.254 88.232C468.314 83.8868 470.011 80.3293 473.147 77.4682C475.575 79.2422 474.81 81.6937 474.8 83.9656C474.8 84.2807 474.851 84.5957 474.867 84.936C474.907 85.7427 474.926 86.5525 474.977 87.3592C475.147 90.0186 474.769 92.6655 476.016 95.2965C476.784 96.9193 476.605 99.0179 476.734 100.912C476.841 102.531 476.831 104.163 476.781 105.786C476.712 108.168 477.889 110.147 478.78 112.214C478.875 112.432 479.369 112.706 479.511 112.63C480.141 112.315 480.944 112 481.224 111.461C484.133 105.789 484.404 99.6512 484.03 93.5005C483.882 91.09 482.232 89.1931 480.355 87.6396C479.832 87.2048 479.234 86.8109 478.85 86.2721C478.195 85.3325 477.613 84.3444 477.108 83.3164C476.906 82.891 476.842 82.4126 476.926 81.9489C477.508 79.113 477.959 76.2456 478.847 73.5137C479.453 71.8021 480.403 70.2325 481.636 68.9006C482.408 68.0404 483.784 67.5929 484.974 67.2747C486.611 66.8566 488.283 66.5918 489.968 66.4838C492.112 66.3262 492.928 67.3314 493.281 69.4174C493.832 72.644 494.71 75.8171 495.331 79.0342C495.617 80.512 495.608 82.0434 495.771 83.5496C495.856 84.3531 496.023 85.1503 496.237 86.4485C497.812 84.5957 499.279 83.1085 500.441 81.4069C502.4 78.5364 504.166 75.5335 505.999 72.5841C507.022 70.933 507.753 69.0046 509.075 67.656C512.019 64.6594 511.131 60.7238 512.139 57.2577C512.369 56.4668 512.491 55.638 512.769 54.866C513.178 53.8945 513.273 52.8189 513.039 51.7907C512.743 50.4483 513.398 48.8949 513.669 47.4391C513.742 47.0421 514.019 46.6577 514.003 46.2764C513.877 43.5382 515.392 41.2569 516.037 38.7361C516.149 38.4454 516.206 38.1368 516.207 37.8254C515.823 34.769 516.969 31.9772 517.816 29.1696C518.597 26.5795 519.318 24.002 521.595 22.0232C522.709 21.059 522.854 18.9572 523.408 17.3628C524.155 15.2328 524.668 12.9767 525.713 11.0167C526.258 10.0053 527.697 9.36561 528.862 8.81103C530.364 8.0832 531.951 7.54447 533.585 7.20716C534.376 7.05907 535.402 7.52226 536.164 7.9697C537.997 9.01965 539.762 10.1847 541.448 11.4579C543.709 13.2004 545.84 14.9586 545.585 18.4153C545.27 22.4864 545.585 26.6079 545.34 30.6758C545.239 32.3427 544.603 34.0789 543.813 35.5725C542.603 37.8633 541.385 40.299 539.571 42.0793C536.851 44.7387 535.723 48.3277 533.412 51.2172C531.054 54.1508 529.101 57.4121 526.916 60.4937C526.038 61.7321 525.008 62.8601 524.066 64.0544C523.821 64.3695 523.673 64.7444 523.437 65.0627C522.958 65.7275 522.583 66.5972 521.932 66.9753C520.493 67.8104 519.882 68.8281 519.913 70.5423C520.052 77.673 520.03 84.8069 520.137 91.9376C520.15 93.3428 520.343 94.7405 520.71 96.0969C520.943 96.9351 521.654 97.6409 522.344 98.665C522.231 98.665 522.571 98.7689 522.706 98.6461C524.262 97.2376 525.833 95.8417 527.303 94.3481C528.818 92.8072 530.096 91.0175 531.712 89.5932C534.398 87.2174 535.821 83.9655 537.905 81.1801C539.184 79.4722 540.11 77.5028 541.142 75.6154C542.131 73.8004 543.063 71.9571 543.961 70.0948C544.323 69.3386 544.713 68.5193 544.76 67.7064C544.889 65.5668 546.65 64.5207 547.663 62.9799C548.022 62.4662 548.344 61.9281 548.627 61.3697C549.235 60.0337 549.732 58.7292 551.502 58.4109C553.438 58.0612 555.299 57.2734 557.236 56.952C559.257 56.6149 560.12 57.9761 559.169 59.8667C557.91 62.3875 557.28 65.0942 556.754 67.8356C556.604 68.7439 556.388 69.6401 556.109 70.5171C555.183 73.2143 556.351 75.1837 558.095 76.8727C561.298 76.2267 562.765 73.6051 564.708 71.5349C566.528 69.6064 568.537 67.8608 570.376 65.9418C573.165 63.0404 574.783 59.2083 574.916 55.1843C574.998 53.6592 574.368 52.0806 574.535 50.5775C574.718 48.9044 575.436 47.2847 575.927 45.6431C576.242 44.5749 576.585 43.513 576.897 42.4417C577.054 41.8965 577.032 41.2474 577.328 40.8063C579.218 37.9704 580.918 34.9895 583.176 32.4971C584.75 30.7514 587.203 29.8786 589.631 29.4154C589.835 29.3776 590.131 29.4438 590.242 29.3272C591.725 27.7517 592.704 29.4249 593.428 30.1055C593.982 30.6254 594.168 32.1316 593.834 32.9036C592.402 36.1995 592.134 39.8358 590.371 43.0845C589.209 45.2114 588.982 47.8519 588.352 50.2656C588.3 50.4745 588.313 50.6947 588.39 50.8958C589.65 53.8829 590.881 56.8827 592.169 59.8415C592.342 60.2385 592.773 60.7395 593.145 60.7868C593.783 60.88 594.395 61.1038 594.942 61.4443C595.49 61.7848 595.962 62.2346 596.328 62.7656C596.841 63.4462 597.323 63.2698 598.123 62.9263C600.538 61.8802 602.166 59.9927 603.961 58.2219C605.429 56.7455 607.017 55.3943 608.709 54.1823C611.842 51.9766 614.471 49.314 616.861 46.371C618.282 44.6253 619.617 42.8072 621.109 41.1245C621.638 40.529 622.488 39.9335 623.235 39.8641C625.291 39.6971 626.588 38.0145 627.445 36.8581C630.049 33.3542 632.734 30.074 636.456 27.7202C636.888 27.4461 637.051 26.7749 637.401 26.3085C637.611 25.9711 637.897 25.6874 638.235 25.4798C639.671 24.7866 641.151 24.1911 642.587 23.4947C643.324 23.1386 644.117 22.7637 644.675 22.1902C646.129 20.684 647.348 18.932 648.891 17.5362C650.333 16.277 651.919 15.1919 653.614 14.3032C655.148 13.4714 656.668 12.8033 657.635 11.19C658.013 10.5598 658.983 10.2794 659.691 9.85717C661.761 8.62618 663.833 7.40148 665.907 6.18309C667.091 5.49302 668.341 4.90693 669.481 4.15069C670.621 3.39445 671.225 4.40592 672.016 4.8187L672 5.7514ZM590.997 94.3764L590.796 94.3481C590.796 93.3019 590.937 92.2275 590.748 91.216C590.604 90.4156 590.053 89.6909 589.681 88.9315C589.081 89.2848 588.509 89.684 587.971 90.1258C587.496 90.57 587.184 91.1845 586.753 91.6824C586.104 92.4323 585.493 93.6265 584.719 93.7872C582.294 94.2819 581.201 96.1883 579.602 97.6598C577.158 99.9096 576.453 102.701 576.314 105.733C576.195 108.569 576.314 111.386 576.314 114.212C576.314 115.372 576.591 116.276 577.665 116.994C578.408 117.489 578.843 118.431 579.479 119.112C579.92 119.584 580.527 120.338 580.962 120.275C581.554 120.193 582.168 119.534 582.558 118.97C583.188 118.056 583.503 116.884 584.227 116.065C585.619 114.489 585.909 112.353 587.521 110.796C588.708 109.649 589.155 107.513 589.473 105.733C590.138 101.977 590.522 98.164 590.997 94.3764ZM524.463 51.2077L525.187 51.5449C525.442 51.1888 525.716 50.8422 525.949 50.4704C526.806 49.0934 527.618 47.6912 528.509 46.3394C529.199 45.2933 530.125 44.3827 530.691 43.283C531.951 40.8126 533.041 38.2414 534.243 35.7426C535.15 33.852 536.268 32.0591 537.024 30.1149C537.729 28.2272 538.271 26.2821 538.642 24.3013C538.882 23.104 538.393 22.0704 537.118 21.5253C536.668 21.3331 536.331 20.8762 535.774 20.3941C535.501 20.5772 535.264 20.8089 535.075 21.0779C533.267 24.503 531.372 27.8872 529.759 31.4006C528.708 33.6913 528.072 36.1712 527.275 38.5754C526.765 40.1194 526.271 41.6697 525.839 43.2389C525.533 44.3808 525.285 45.5377 525.096 46.705C524.847 48.1859 524.671 49.6953 524.463 51.2014V51.2077ZM579.778 53.0322C580.515 52.569 581.126 52.3768 581.415 51.964C582.801 49.9946 584.155 48.0032 585.389 45.9393C585.812 45.182 586.029 44.3269 586.019 43.4594C586.019 42.8513 585.619 41.8839 585.178 41.7264C584.381 41.4894 583.522 41.5731 582.785 41.9596C581.393 42.8355 581.123 44.3323 581.478 46.0054C581.576 46.456 581.091 47.061 580.808 47.5589C580.524 48.0567 579.891 48.5609 579.813 49.1123C579.668 50.2215 579.778 51.3779 579.778 53.0259V53.0322ZM388.369 88.3864C386.927 89.0544 385.57 89.3317 384.817 90.1384C384.203 90.8095 383.904 92.2684 384.188 93.157C384.817 95.1579 385.869 97.0201 386.656 98.7311L388.379 98.917L388.369 88.3864ZM486.835 83.14C487.15 81.9457 487.559 80.8555 487.685 79.7306C487.906 77.7833 488.12 75.7982 487.95 73.8634C487.903 73.3309 486.482 72.9181 485.692 72.4455C485.692 73.1356 485.664 73.8256 485.657 74.5126C485.639 75.9274 485.891 77.4083 485.544 78.738C485.091 80.5057 485.28 82.0812 486.838 83.14H486.835Z" fill="#F065CD"/>
<path d="M208.96 180.503L209.791 182.138C209.593 182.768 209.278 183.257 209.3 183.742C209.379 185.494 208.582 186.578 207.272 187.734C206.161 188.724 205.663 190.416 204.939 191.831C204.552 192.581 204.284 193.406 203.925 194.162C203.749 194.537 203.409 194.843 203.267 195.227C202.718 196.84 201.653 198.226 200.238 199.172C200.088 199.276 199.963 199.412 199.87 199.569C199.778 199.726 199.721 199.902 199.703 200.083C199.813 201.851 198.349 202.784 197.457 203.839C196.623 204.829 196.409 205.831 196.094 206.918C195.965 207.365 195.779 207.894 195.464 208.162C194.028 209.322 192.559 210.432 191.056 211.493C189.919 212.296 188.672 212.164 188.046 211.011C186.471 208.09 184.61 205.298 183.779 201.986C183.319 200.159 182.242 198.489 181.764 196.664C181.471 195.536 181.798 194.254 181.814 193.037C181.814 192.325 181.928 191.563 181.72 190.907C180.832 188.094 179.598 185.365 178.99 182.497C178.675 180.941 178.017 179.699 177.321 178.363C176.867 177.49 176.88 176.384 176.6 175.411C176.216 174.078 175.945 172.657 175.277 171.472C173.769 168.791 173.294 165.8 172.283 162.964C171.584 161.004 170.507 159.142 168.674 157.923C167.588 157.204 165.211 158.701 164.864 160.302C164.518 161.902 164.433 163.68 163.784 165.183C163.199 166.544 162.814 168.019 162.087 169.26C161.101 170.933 160.963 172.644 160.884 174.434C160.727 177.969 159.555 181.215 158.151 184.407C157.742 185.352 157.521 186.348 157.103 187.281C156.876 187.794 156.448 188.226 155.956 188.903C156.224 189.385 155.89 189.814 155.327 190.589C154.313 191.988 154.124 193.954 153.252 195.489C151.391 198.766 151.561 202.632 149.898 205.979C148.544 208.704 147.842 211.751 146.535 214.502C145.553 216.575 145.118 218.762 144.457 220.905C144.214 221.686 144.016 222.48 143.761 223.426C143.213 224.547 142.656 225.877 141.938 227.112C141.091 228.571 141.752 230.736 140.014 231.684C138.276 232.633 136.831 234.432 134.5 234.152C133.351 234.013 132.844 233.484 132.813 232.236C132.731 228.822 132.566 225.413 132.318 222.008C132.057 218.457 131.522 214.924 131.374 211.373C131.282 209.253 131.449 207.154 130.429 205.181C130.231 204.8 130.341 204.252 130.338 203.782C130.338 201.488 130.218 199.185 130.366 196.901C130.527 194.405 129.787 192.086 129.352 189.701C129.273 189.272 129.434 188.809 129.393 188.371C129.251 186.836 128.937 185.308 128.933 183.777C128.93 182.245 129.346 180.686 129.346 179.142C129.346 178.225 128.896 177.311 128.644 176.394C128.549 176.164 128.483 175.922 128.448 175.675C128.543 171.721 128.763 167.763 128.71 163.812C128.685 162.044 128.099 160.286 127.765 158.525C127.708 158.325 127.66 158.124 127.623 157.92C127.453 155.878 127.356 153.823 127.113 151.797C126.906 150.055 126.458 148.331 126.247 146.598C125.97 144.288 125.866 141.957 125.599 139.644C125.366 137.64 124.922 135.661 124.745 133.657C124.66 132.712 124.988 131.738 125.205 130.27C124.292 131.394 123.524 132.16 122.982 133.055C121.946 134.766 120.976 136.521 120.101 138.32C119.576 139.344 119.212 140.443 119.021 141.578C118.728 143.652 117.078 144.827 116.089 146.428C114.635 148.785 112.648 150.77 111.996 153.675C111.662 155.14 110.371 156.376 109.575 157.749C108.576 159.473 107.805 161.351 106.649 162.952C104.669 165.696 103.466 168.768 102.298 171.885C102.131 172.332 101.454 172.581 101.246 173.032C100.931 173.716 100.956 174.569 100.594 175.219C98.9474 178.177 97.0424 181.007 95.5561 184.041C94.2148 186.786 93.3205 189.751 92.1806 192.596C91.7272 193.724 91.1163 194.783 90.6314 195.899C90.4488 196.314 90.4173 196.797 90.2253 197.077C89.3279 198.508 88.336 199.897 87.5519 201.384C86.7679 202.872 86.9222 204.535 86.7584 206.155C86.5947 207.775 85.628 209.388 84.8125 210.882C82.3155 215.469 79.4123 219.837 77.5324 224.746C77.0601 225.984 76.1596 227.053 75.5613 228.253C73.9869 231.404 72.5637 234.596 70.9389 237.706C69.6258 240.227 68.105 242.641 66.6786 245.092C66.5733 245.309 66.4012 245.487 66.1874 245.599C64.5468 246.173 62.9063 246.768 61.2249 247.194C60.9824 247.257 60.2802 246.501 60.1984 246.053C59.5392 242.062 58.9388 238.055 58.3972 234.032C58.032 231.294 58.3185 228.587 58.7593 225.839C59.049 224.04 58.5326 222.128 58.561 220.268C58.6019 217.618 58.9042 214.972 58.9168 212.325C58.9168 210.778 58.5767 209.234 58.4067 207.683C58.3531 207.17 58.3405 206.647 58.3343 206.127C58.3059 203.77 58.7877 201.268 58.1642 199.084C56.6748 193.885 57.6825 188.654 57.3298 183.455C57.1199 180.342 56.91 177.227 56.7 174.109C56.7 174.005 56.7252 173.879 56.6811 173.794C55.5979 171.866 56.4513 169.975 56.7504 168.063C57.0522 166.396 57.2531 164.712 57.3518 163.021C57.4431 160.453 57.4746 157.872 57.3109 155.314C57.1283 152.421 56.5804 149.557 56.404 146.664C56.1773 143.006 56.2592 139.332 56.0294 135.674C55.8845 133.358 55.3586 131.067 55.1067 128.741C54.9178 127.03 54.9524 125.294 54.7919 123.577C54.6526 122.365 54.4423 121.162 54.1621 119.975C53.7842 118.217 53.3717 116.468 52.9026 114.732C52.7735 114.244 52.4114 113.818 52.1532 113.364C52.128 113.327 52.0493 113.289 52.0556 113.27C52.8743 110.967 49.9081 110.569 49.779 108.742C49.716 107.853 49.5869 106.971 49.5712 106.082C49.5082 102.683 49.5995 99.2731 49.3854 95.8858C49.2783 94.2473 48.6958 92.6182 48.1825 91.0333C47.8173 89.9084 47.0458 89.8863 46.2366 90.6835C45.4843 91.3598 44.6869 91.9841 43.8498 92.5521C43.22 93.031 42.5053 93.4406 41.8755 93.9416C40.0807 95.369 38.3111 96.8343 36.5225 98.2743C36.1006 98.6146 35.6157 98.8824 35.2001 99.2196C34.627 99.7017 34.0822 100.215 33.5438 100.735C33.2289 101.05 32.9707 101.617 32.5992 101.681C31.2704 101.977 30.6658 103.039 29.8377 103.915C28.4837 105.345 27.0384 106.691 25.5931 108.03C24.4532 109.085 23.2409 110.065 22.0853 111.108C21.2005 111.905 20.3472 112.747 19.4907 113.579C19.2364 113.795 19.0166 114.049 18.8389 114.332C18.2532 115.413 17.8282 116.635 16.3766 116.875C16.3293 116.875 16.2443 116.909 16.2443 116.931C16.1215 119.043 13.9614 119.298 12.9444 120.583C12.4091 121.261 11.9997 122.039 11.5337 122.764C11.2128 123.28 10.7591 123.7 10.22 123.981C9.68103 124.261 9.07657 124.392 8.46995 124.358C7.48123 124.339 6.84202 124.008 5.95091 123.221C3.53579 121.059 3.90103 118.516 3.76563 115.838C3.67431 114.007 4.62211 112.841 5.58879 111.694C7.95984 108.884 10.2175 105.881 13.0231 103.565C15.7814 101.287 18.0202 98.5736 20.5519 96.1221C21.994 94.7231 23.0709 92.8987 24.6233 91.6698C26.7436 89.9947 28.5982 88.0081 30.1242 85.7774C31.4341 83.8868 33.1974 82.3113 34.69 80.5152C35.8109 79.1761 36.7997 77.7266 37.886 76.3559C39.2337 74.6607 40.6821 73.0411 41.9794 71.3143C42.6942 70.347 43.0721 69.1338 43.7774 68.1633C44.8417 66.6855 46.054 65.3117 47.2064 63.8969C48.2802 62.5734 49.7758 61.7258 50.6229 60.0652C51.3565 58.6252 52.9498 57.6358 54.1243 56.4101C56.1616 54.2863 58.1327 52.0964 60.2015 50.0009C61.5523 48.6334 63.1204 47.4801 64.4114 46.0559C65.3309 45.0476 65.9575 43.8187 67.0722 42.9049C69.272 41.0989 71.3791 39.1828 73.3855 37.1638C75.5676 34.9581 77.5797 32.6043 79.6831 30.3387C80.0466 29.9157 80.5038 29.5833 81.0182 29.3682C83.3262 28.5804 84.5134 29.4186 84.4063 31.8228C84.252 35.2416 84.3055 38.7172 83.6947 42.0604C83.0901 45.3564 84.3496 48.1135 85.0864 51.088C85.5493 52.9786 85.6374 54.9575 85.7162 56.9048C85.9523 64.108 86.094 71.3143 86.3018 78.5206C86.3302 79.4659 86.6167 80.3797 86.6356 81.3093C86.6356 82.5382 86.4058 83.7639 86.4184 84.9897C86.4499 87.8445 86.6262 90.6961 86.6356 93.5478C86.6356 96.6357 86.5128 99.7237 86.4813 102.812C86.4813 104.318 86.5191 105.824 86.5758 107.33C86.5758 107.645 86.8907 107.96 86.8088 108.209C86.0405 110.651 87.1835 113.04 86.9537 115.498C86.7175 118.04 86.9757 120.627 86.9883 123.196C86.9883 125.716 86.8938 128.237 86.9883 130.758C87.0827 132.926 87.1835 135.138 87.681 137.236C88.8429 142.168 88.865 147.153 88.8713 152.16C88.8713 152.676 89.1452 153.19 89.2932 153.707C89.8852 153.489 90.729 153.448 91.0282 153.023C92.1901 151.369 93.1442 149.557 94.2431 147.868C95.6632 145.662 97.3919 143.617 98.5601 141.292C100.506 137.448 102.055 133.414 103.913 129.507C104.584 128.092 105.714 126.904 106.492 125.53C107.188 124.302 107.619 122.925 108.296 121.683C109.298 119.849 110.526 118.132 111.445 116.263C112.242 114.653 112.601 112.826 113.4 111.222C114.843 108.326 116.577 105.578 117.991 102.67C119.251 100.055 120.195 97.2817 121.398 94.6317C122.623 91.9187 124.018 89.275 125.29 86.5935C126.26 84.5485 127.085 82.431 128.124 80.4238C128.52 79.7666 129.132 79.2684 129.856 79.0154C130.964 78.6309 131.566 78.0165 132.277 77.0302C133.786 74.9443 135.152 72.4203 138.433 72.455C138.963 72.4392 139.488 72.5652 139.953 72.82C140.418 73.0748 140.806 73.4492 141.078 73.9044C141.925 75.2657 142.807 76.6458 142.709 78.445C142.566 80.907 142.566 83.3753 142.709 85.8373C142.876 88.5566 143.311 91.2601 143.569 93.9731C143.619 94.5088 143.273 95.0823 143.327 95.618C143.481 97.0958 143.752 98.561 143.956 100.029C144.117 101.098 144.246 102.172 144.422 103.24C144.81 105.61 145.26 107.967 145.6 110.343C145.751 111.376 145.6 112.447 145.748 113.494C146.173 116.645 146.658 119.777 147.149 122.912C147.357 124.229 147.747 125.53 147.845 126.854C147.902 127.597 147.489 128.366 147.379 129.135C147.235 129.945 147.178 130.768 147.209 131.59C147.426 134.599 147.65 137.611 147.984 140.608C148.358 143.976 148.777 147.348 149.366 150.691C149.486 151.369 150.452 151.898 151.028 152.494C151.513 151.983 151.969 151.447 152.395 150.887C153.255 149.642 154.007 148.325 154.892 147.105C156.869 144.373 157.987 141.285 159.036 138.112C159.826 135.724 161.158 133.521 162.125 131.18C162.585 130.068 162.644 128.789 163.092 127.667C163.835 125.798 164.694 123.974 165.611 122.184C165.91 121.668 166.381 121.275 166.942 121.075C168.391 120.582 169.874 120.195 171.379 119.919C172.031 119.82 172.695 119.983 173.227 120.372C174.685 121.648 177.034 121.069 178.203 122.852C178.439 123.208 178.672 123.567 178.924 123.914C181.367 127.282 183.017 131.045 184.506 134.902C184.96 136.071 185.892 137.047 186.43 138.191C186.818 139.007 186.852 139.981 187.155 140.847C188.402 144.419 189.676 147.99 190.977 151.561C191.79 153.785 192.574 156.029 193.562 158.178C194.869 161.014 196 163.828 196.554 166.963C197.124 170.193 198.443 173.281 199.388 176.454C199.605 177.188 199.419 178.029 199.611 178.785C199.867 179.967 200.269 181.113 200.808 182.195C201.482 183.414 203.062 183.663 204.271 182.907C205.414 182.198 206.491 181.376 207.653 180.701C208.015 180.452 208.551 180.544 208.96 180.503Z" fill="#ED61C6"/>
<path d="M391.556 68.1255C391.899 67.2117 392.434 65.9198 392.872 64.5901C393.31 63.2603 393.895 61.8802 393.996 60.4938C394.125 58.7796 394.818 57.4089 395.523 55.9154C396.103 54.6865 395.933 53.1204 396.178 51.7214C396.285 51.1132 396.449 50.3665 396.865 49.9883C398.257 48.7279 399.815 47.6219 401.229 46.371C401.956 45.6779 402.613 44.9148 403.191 44.0928C404.627 42.2022 405.521 41.8871 407.146 42.7599C408.544 43.5225 409.035 45.1106 408.282 46.9256C407.596 48.6082 406.815 50.253 406.043 51.8978C405.184 53.7317 404.551 55.7452 403.354 57.327C401.269 60.1423 399.475 63.1629 398.002 66.342C397.939 66.4712 397.768 66.5405 397.661 66.6571C396.433 67.8955 395.237 69.1779 393.965 70.3595C393.555 70.7408 392.944 70.9047 392.425 71.1694C392.135 70.5202 391.824 69.8774 391.559 69.2189C391.493 69.0235 391.556 68.7904 391.556 68.1255Z" fill="#EC68C6"/>
<path d="M569.602 35.3835C569.073 37.2299 568.698 38.5691 568.301 39.902C568.249 40.0504 568.144 40.1741 568.005 40.2486C564.542 41.9438 562.696 45.3753 559.989 47.8835C558.345 49.4023 557.076 51.3244 555.442 52.8526C554.497 53.738 553.206 54.321 551.978 54.8094C551.15 55.1402 549.708 53.2528 550.06 52.2886C550.759 50.3696 551.603 48.5074 552.346 46.6168C552.545 46.1095 552.548 45.5297 552.718 45.0129C553.08 43.9164 553.496 42.8387 553.896 41.7579C553.93 41.6634 554.056 41.6067 554.091 41.5153C555.237 38.3643 557.961 38.065 560.738 37.6805C561.752 37.5419 562.652 36.7037 563.673 36.458C565.483 36.0011 567.341 35.771 569.602 35.3835Z" fill="#EC68C6"/>
</g>
<defs>
<clipPath id="clip0_204_375">
<rect width="672" height="261.24" fill="white" transform="translate(0 0.880005)"/>
</clipPath>
</defs>
</svg>
