<?xml version="1.0" encoding="utf-8"?>
<!-- Generator: Adobe Illustrator 25.3.1, SVG Export Plug-In . SVG Version: 6.00 Build 0)  -->
<svg version="1.1" id="Layer_1" xmlns="http://www.w3.org/2000/svg" xmlns:xlink="http://www.w3.org/1999/xlink" x="0px" y="0px"
	 viewBox="0 0 398.6 229" style="enable-background:new 0 0 398.6 229;" xml:space="preserve">
<style type="text/css">
	.st0{fill:#FFFFFF;}
	.st1{fill:none;}
</style>
<g>
	<path class="st0" d="M240.3,104.5H161V52.9h79.3V104.5z M167.6,97.8h66.1V59.5h-66.1V97.8z"/>
	<path class="st0" d="M240.3,59.5h-60.8V0h60.8V59.5z M186.1,52.9h47.6V6.6h-47.6V52.9z"/>
	<path class="st0" d="M240.3,59.5h-45V25.1h45V59.5z M202,52.9h31.7V31.7H202V52.9z"/>
	<path class="st0" d="M276,104.5h-42.3V25.1H276V104.5z M240.3,97.8h29.1V31.7h-29.1V97.8z"/>
	<path class="st0" d="M28.5,73c-2.4-1.4-5.1-2.1-7.9-2.1c-8.9,0-14.7,6.4-14.7,15c0,9,6.5,15,14.5,15c2.8,0,6.4-0.7,8.4-1.9l0.3,5.3
		c-2.9,1.2-6.5,1.4-8.7,1.4C8.1,105.7,0,97.9,0,85.7C0,73.8,8.6,66,20.3,66c3,0,5.9,0.4,8.6,1.6L28.5,73z"/>
	<path class="st0" d="M47.2,66.6H53L69.2,105h-6l-3.9-9.7H40.5l-3.9,9.7h-5.8L47.2,66.6z M49.9,71.8l-7.6,19h15.3L49.9,71.8z"/>
	<path class="st0" d="M91.6,72.4c-2.8-1.1-4.3-1.6-7.2-1.6c-3.1,0-6.7,1.1-6.7,5.1c0,7.4,16.5,5.7,16.5,18.3c0,8.2-6.3,11.4-14,11.4
		c-2.7,0-5.3-0.8-7.9-1.6l0.6-5.1c1.9,0.8,5.2,1.9,8,1.9c3.1,0,7.5-1.8,7.5-6.3c0-8.6-16.5-6.2-16.5-18.1c0-6.8,5.4-10.5,12.3-10.5
		c2.5,0,5.6,0.4,8.2,1.4L91.6,72.4z"/>
	<path class="st0" d="M113.3,66.6h5.8l16.2,38.4h-6l-3.9-9.7h-18.8l-3.9,9.7h-5.8L113.3,66.6z M116,71.8l-7.6,19h15.3L116,71.8z"/>
	<path class="st0" d="M1.6,128.6H13c11.4,0,20.5,7,20.5,18.9c0,12.9-7.8,19.5-20.5,19.5H1.6V128.6z M7.1,162.2h5.8
		c9.5,0,14.7-4.6,14.7-14.5c0-9-6.1-14.2-14-14.2H7.1V162.2z"/>
	<polygon class="st0" points="41.4,128.6 62.9,128.6 62.9,133.5 46.9,133.5 46.9,144.7 61.5,144.7 61.5,149.5 46.9,149.5 
		46.9,162.2 62.9,162.2 62.9,167 41.4,167 	"/>
	<polygon class="st0" points="85.9,128.6 91.4,128.6 91.4,162.2 107.4,162.2 107.4,167 85.9,167 	"/>
	<path class="st0" d="M125,128.6h5.8L147,167h-6l-3.9-9.7h-18.8l-3.9,9.7h-5.8L125,128.6z M127.7,133.8l-7.6,19h15.3L127.7,133.8z"
		/>
	<path class="st0" d="M193.3,135c-2.4-1.4-5.1-2.1-7.9-2.1c-8.9,0-14.7,6.4-14.7,15c0,9,6.5,15,14.5,15c2.8,0,6.4-0.7,8.4-1.9
		l0.3,5.3c-2.9,1.2-6.5,1.4-8.7,1.4c-12.2,0-20.2-7.8-20.2-20c0-11.8,8.6-19.7,20.3-19.7c3,0,5.9,0.4,8.6,1.6L193.3,135z"/>
	<path class="st0" d="M229.6,151.1c0,10.8-5.4,16.6-14.9,16.6c-9.5,0-14.9-5.8-14.9-16.6v-22.5h5.5v21.8c0,7.4,2.3,12.4,9.4,12.4
		c7.1,0,9.4-5.1,9.4-12.4v-21.8h5.5V151.1z"/>
	<polygon class="st0" points="238.7,128.6 244.2,128.6 244.2,162.2 260.3,162.2 260.3,167 238.7,167 	"/>
	<polygon class="st0" points="270.2,133.5 258.3,133.5 258.3,128.6 287.6,128.6 287.6,133.5 275.7,133.5 275.7,167 270.2,167 	"/>
	<path class="st0" d="M322.3,151.1c0,10.8-5.4,16.6-14.9,16.6c-9.5,0-14.9-5.8-14.9-16.6v-22.5h5.5v21.8c0,7.4,2.3,12.4,9.4,12.4
		c7.1,0,9.4-5.1,9.4-12.4v-21.8h5.5V151.1z"/>
	<path class="st0" d="M331.2,128.6h9.4c7.6,0,14.9,1.2,14.9,10.4c0,4.7-3.5,8-7.9,8.7v0.1c1.7,0.7,2.5,1.5,3.7,3.9l7.3,15.3h-6.3
		l-5.9-13.3c-1.7-3.7-3.5-3.7-6.4-3.7h-3.3v17h-5.5V128.6z M336.7,145.1h4.7c5.2,0,8.3-2.3,8.3-6c0-3.5-2.6-5.7-7.7-5.7h-5.3V145.1z
		"/>
	<path class="st0" d="M376.6,128.6h5.8l16.2,38.4h-6l-3.9-9.7h-18.8L366,167h-5.8L376.6,128.6z M379.3,133.8l-7.6,19H387
		L379.3,133.8z"/>
	<path class="st0" d="M1.6,190.6H13c11.4,0,20.5,7,20.5,18.9c0,12.9-7.8,19.5-20.5,19.5H1.6V190.6z M7.1,224.2h5.8
		c9.5,0,14.7-4.6,14.7-14.5c0-9-6.1-14.2-14-14.2H7.1V224.2z"/>
	<polygon class="st0" points="41.4,190.6 62.9,190.6 62.9,195.5 46.9,195.5 46.9,206.7 61.5,206.7 61.5,211.5 46.9,211.5 
		46.9,224.2 62.9,224.2 62.9,229 41.4,229 	"/>
	<polygon class="st0" points="71.1,190.6 76.6,190.6 76.6,224.2 92.7,224.2 92.7,229 71.1,229 	"/>
	<polygon class="st0" points="112.5,190.6 132.9,190.6 132.9,195.5 118,195.5 118,206.7 132.3,206.7 132.3,211.5 118,211.5 118,229 
		112.5,229 	"/>
	<polygon class="st0" points="139.8,190.6 147.2,190.6 164.2,221.5 164.3,221.5 164.3,190.6 169.8,190.6 169.8,229 162.7,229 
		145.4,197.5 145.3,197.5 145.3,229 139.8,229 	"/>
	<path class="st0" d="M191.1,190.6h5.8l16.2,38.4h-6l-3.9-9.7h-18.8l-3.9,9.7h-5.8L191.1,190.6z M193.8,195.8l-7.6,19h15.3
		L193.8,195.8z"/>
</g>
<rect x="-96.8" y="-299.2" class="st1" width="595.3" height="841.9"/>
</svg>
