<?xml version="1.0" encoding="utf-8"?>
<!-- Generator: Adobe Illustrator 25.3.1, SVG Export Plug-In . SVG Version: 6.00 Build 0)  -->
<svg version="1.1" id="Layer_1" xmlns="http://www.w3.org/2000/svg" xmlns:xlink="http://www.w3.org/1999/xlink" x="0px" y="0px"
	 viewBox="0 0 764.3 159.7" style="enable-background:new 0 0 764.3 159.7;" xml:space="preserve">
<style type="text/css">
	.st0{fill:#FFFFFF;}
</style>
<polygon class="st0" points="347.8,44.2 370.3,44.2 370.3,50.5 355.9,50.5 355.9,60.5 369.6,60.5 369.6,66.9 355.9,66.9 355.9,84.6 
	347.8,84.6 "/>
<path class="st0" d="M389.5,54.1c8.9,0,15.7,6,15.7,15.8c0,8.6-5.7,15.4-15.7,15.4c-9.9,0-15.6-6.8-15.6-15.4
	C373.9,60,380.7,54.1,389.5,54.1 M389.5,79.3c6,0,7.5-5.3,7.5-10.3c0-4.6-2.4-8.9-7.5-8.9c-5,0-7.5,4.4-7.5,8.9
	C382.1,73.9,383.6,79.3,389.5,79.3"/>
<path class="st0" d="M411.6,54.8h7.4v4.1h0.1c2.4-3.4,5.7-4.8,9.8-4.8c7.1,0,10.1,5,10.1,11.7v18.8h-7.8V68.7c0-3.7-0.1-8.6-5-8.6
	c-5.6,0-6.8,6.1-6.8,9.9v14.6h-7.8V54.8z"/>
<path class="st0" d="M466.9,81.3h-0.1c-2.3,2.9-5.5,4.1-9.2,4.1c-9.2,0-12.5-7.5-12.5-15.7c0-8.2,3.4-15.5,12.5-15.5
	c3.9,0,6.6,1.3,8.9,4.2h0.1V41.1h7.8v43.5h-7.5V81.3z M459.8,79.3c5.2,0,6.8-5.4,6.8-9.7c0-4.2-2-9.5-7-9.5c-5,0-6.4,5.5-6.4,9.5
	C453.2,73.7,454.7,79.3,459.8,79.3"/>
<path class="st0" d="M496.1,54.1c8.9,0,15.7,6,15.7,15.8c0,8.6-5.7,15.4-15.7,15.4c-9.9,0-15.6-6.8-15.6-15.4
	C480.5,60,487.3,54.1,496.1,54.1 M496.1,79.3c6,0,7.5-5.3,7.5-10.3c0-4.6-2.4-8.9-7.5-8.9c-5,0-7.5,4.4-7.5,8.9
	C488.7,73.9,490.2,79.3,496.1,79.3"/>
<polygon class="st0" points="535.3,44.2 545.3,44.2 560.7,74.4 560.8,74.4 560.8,44.2 568.6,44.2 568.6,84.6 558.7,84.6 543.2,54.4 
	543.1,54.4 543.1,84.6 535.3,84.6 "/>
<path class="st0" d="M578.6,56.3c3-1.4,7.1-2.3,10.4-2.3c9.1,0,12.9,3.8,12.9,12.6v3.8c0,3,0.1,5.3,0.1,7.5c0.1,2.3,0.2,4.3,0.3,6.7
	h-6.8c-0.3-1.6-0.3-3.5-0.3-4.5H595c-1.8,3.3-5.7,5.2-9.2,5.2c-5.3,0-10.4-3.2-10.4-8.9c0-4.5,2.1-7.1,5.1-8.5c3-1.4,6.8-1.7,10-1.7
	h4.3c0-4.8-2.1-6.4-6.7-6.4c-3.3,0-6.6,1.3-9.2,3.2L578.6,56.3z M587.7,79.6c2.4,0,4.2-1,5.4-2.7c1.3-1.7,1.6-3.8,1.6-6.1h-3.4
	c-3.5,0-8.6,0.6-8.6,5.2C582.7,78.5,584.9,79.6,587.7,79.6"/>
<path class="st0" d="M629.8,61.2c-1.4-0.6-2.9-1.1-5.3-1.1c-4.8,0-7.9,3.8-7.9,9.5c0,5.5,2.6,9.7,8.1,9.7c2.2,0,4.6-0.8,6-1.4
	l0.3,6.4c-2.3,0.7-4.6,1-7.8,1c-9.8,0-14.7-6.7-14.7-15.8c0-8.6,5.1-15.5,14.4-15.5c3.1,0,5.4,0.3,7.5,1L629.8,61.2z"/>
<path class="st0" d="M636.3,41.9h7.8v7.4h-7.8V41.9z M636.3,54.8h7.8v29.9h-7.8V54.8z"/>
<path class="st0" d="M666.3,54.1c8.9,0,15.7,6,15.7,15.8c0,8.6-5.7,15.4-15.7,15.4c-9.9,0-15.6-6.8-15.6-15.4
	C650.7,60,657.5,54.1,666.3,54.1 M666.3,79.3c6,0,7.5-5.3,7.5-10.3c0-4.6-2.4-8.9-7.5-8.9c-5,0-7.5,4.4-7.5,8.9
	C658.8,73.9,660.4,79.3,666.3,79.3"/>
<path class="st0" d="M688.4,54.8h7.4v4.1h0.1c2.4-3.4,5.7-4.8,9.8-4.8c7.1,0,10.1,5,10.1,11.7v18.8H708V68.7c0-3.7-0.1-8.6-5-8.6
	c-5.6,0-6.8,6.1-6.8,9.9v14.6h-7.8V54.8z"/>
<path class="st0" d="M725.1,56.3c3-1.4,7.1-2.3,10.4-2.3c9.1,0,12.9,3.8,12.9,12.6v3.8c0,3,0.1,5.3,0.1,7.5c0.1,2.3,0.2,4.3,0.3,6.7
	H742c-0.3-1.6-0.3-3.5-0.3-4.5h-0.1c-1.8,3.3-5.7,5.2-9.2,5.2c-5.3,0-10.4-3.2-10.4-8.9c0-4.5,2.1-7.1,5.1-8.5c3-1.4,6.8-1.7,10-1.7
	h4.3c0-4.8-2.1-6.4-6.7-6.4c-3.3,0-6.6,1.3-9.2,3.2L725.1,56.3z M734.2,79.6c2.4,0,4.2-1,5.4-2.7c1.3-1.7,1.6-3.8,1.6-6.1h-3.4
	c-3.5,0-8.6,0.6-8.6,5.2C729.3,78.5,731.4,79.6,734.2,79.6"/>
<rect x="756.5" y="41.1" class="st0" width="7.8" height="43.5"/>
<path class="st0" d="M367,139.2h-0.1c-2.3,2.9-5.5,4.1-9.2,4.1c-9.2,0-12.5-7.5-12.5-15.7c0-8.2,3.4-15.5,12.5-15.5
	c3.9,0,6.6,1.3,8.9,4.2h0.1V99.1h7.8v43.5H367V139.2z M359.9,137.3c5.2,0,6.8-5.4,6.8-9.7c0-4.2-2-9.5-7-9.5c-5,0-6.4,5.5-6.4,9.5
	C353.3,131.7,354.8,137.3,359.9,137.3"/>
<path class="st0" d="M406.8,140.9c-2.8,1.6-6.1,2.4-10.3,2.4c-9.9,0-15.6-5.7-15.6-15.5c0-8.6,4.6-15.8,13.9-15.8
	c11.1,0,14.2,7.6,14.2,18h-20.6c0.3,4.8,3.7,7.5,8.5,7.5c3.8,0,7-1.4,9.9-3V140.9z M401.6,124.7c-0.2-3.8-2-7-6.3-7s-6.6,3-6.9,7
	H401.6z"/>
<rect x="430.9" y="99.1" class="st0" width="7.8" height="43.5"/>
<path class="st0" d="M448.2,114.3c3-1.4,7.1-2.3,10.4-2.3c9.1,0,12.9,3.8,12.9,12.6v3.8c0,3,0.1,5.3,0.1,7.5
	c0.1,2.3,0.2,4.3,0.3,6.7h-6.8c-0.3-1.6-0.3-3.5-0.3-4.5h-0.1c-1.8,3.3-5.7,5.2-9.2,5.2c-5.3,0-10.4-3.2-10.4-8.9
	c0-4.5,2.1-7.1,5.1-8.5c3-1.4,6.8-1.7,10-1.7h4.3c0-4.8-2.1-6.4-6.7-6.4c-3.3,0-6.6,1.3-9.2,3.2L448.2,114.3z M457.3,137.6
	c2.4,0,4.2-1,5.4-2.7c1.3-1.7,1.6-3.8,1.6-6.1H461c-3.5,0-8.6,0.6-8.6,5.2C452.4,136.5,454.5,137.6,457.3,137.6"/>
<path class="st0" d="M497.8,119c-2.4-0.8-4.1-1.3-7-1.3c-2.1,0-4.6,0.8-4.6,3.3c0,4.8,13.5,1.7,13.5,12.5c0,7-6.2,9.7-12.5,9.7
	c-3,0-6-0.5-8.8-1.3l0.5-6.4c2.4,1.2,5,2,7.7,2c2,0,5.1-0.8,5.1-3.7c0-5.9-13.5-1.9-13.5-12.6c0-6.4,5.6-9.3,11.7-9.3
	c3.7,0,6,0.6,8.5,1.1L497.8,119z"/>
<path class="st0" d="M533.7,102.1h9.2l15.9,40.5h-9l-3.5-9.3h-16.4l-3.5,9.3h-8.4L533.7,102.1z M538.2,110.2h-0.1l-5.9,16.7H544
	L538.2,110.2z"/>
<path class="st0" d="M561.7,112.7h6.9v6.8h0.1c0.3-2.8,3.5-7.5,8.2-7.5c0.8,0,1.6,0,2.4,0.2v7.8c-0.7-0.4-2.1-0.6-3.5-0.6
	c-6.3,0-6.3,7.9-6.3,12.2v11h-7.8V112.7z"/>
<path class="st0" d="M586.6,118.4h-5.7v-5.7h5.7v-6l7.8-2.5v8.5h6.9v5.7h-6.9v13.9c0,2.6,0.7,4.9,3.7,4.9c1.4,0,2.7-0.3,3.5-0.8
	l0.2,6.1c-1.6,0.5-3.4,0.7-5.7,0.7c-6.1,0-9.4-3.8-9.4-9.7V118.4z"/>
<path class="st0" d="M630.6,140.9c-2.8,1.6-6.1,2.4-10.3,2.4c-9.9,0-15.6-5.7-15.6-15.5c0-8.6,4.6-15.8,13.9-15.8
	c11.1,0,14.2,7.6,14.2,18h-20.6c0.3,4.8,3.7,7.5,8.5,7.5c3.8,0,7-1.4,9.9-3V140.9z M625.4,124.7c-0.2-3.8-2-7-6.3-7
	c-4.3,0-6.6,3-6.9,7H625.4z"/>
<path class="st0" d="M657.3,119c-2.4-0.8-4.1-1.3-7-1.3c-2.1,0-4.6,0.8-4.6,3.3c0,4.8,13.5,1.7,13.5,12.5c0,7-6.2,9.7-12.5,9.7
	c-3,0-6-0.5-8.8-1.3l0.5-6.4c2.4,1.2,5,2,7.7,2c2,0,5.1-0.8,5.1-3.7c0-5.9-13.5-1.9-13.5-12.6c0-6.4,5.6-9.3,11.7-9.3
	c3.7,0,6,0.6,8.5,1.1L657.3,119z"/>
<polygon class="st0" points="49.2,142.5 0.1,142.5 0.1,44.1 98.4,44.1 98.4,93.3 49.2,93.3 "/>
<path class="st0" d="M210.7,142.5h-14.1c0-26.8-21.8-48.6-48.6-48.6c-26.8,0-48.6,21.8-48.6,48.6H85.4c0-34.6,28.1-62.7,62.7-62.7
	S210.7,107.9,210.7,142.5"/>
<polygon class="st0" points="219.7,142.5 268.6,0 317.6,142.5 "/>
<rect y="150.3" class="st0" width="317" height="9.4"/>
</svg>
