<?xml version="1.0" encoding="utf-8"?>
<!-- Generator: Adobe Illustrator 25.3.1, SVG Export Plug-In . SVG Version: 6.00 Build 0)  -->
<svg version="1.1" id="Layer_1" xmlns="http://www.w3.org/2000/svg" xmlns:xlink="http://www.w3.org/1999/xlink" x="0px" y="0px"
	 viewBox="0 0 351.3 126.9" style="enable-background:new 0 0 351.3 126.9;" xml:space="preserve">
<style type="text/css">
	.st0{fill:#FFFFFF;}
</style>
<path class="st0" d="M123.4,98.5l-2.2-6.7c-0.1-0.2-0.3-0.4-0.5-0.4h-9.3c-0.2,0-0.5,0.2-0.5,0.4l-2.2,6.7c-0.1,0.2-0.3,0.4-0.5,0.4
	h-3.4c-0.4,0-0.7-0.4-0.5-0.7l8.4-24.8c0.1-0.2,0.3-0.4,0.5-0.4h6c0.2,0,0.5,0.2,0.5,0.4l8.4,24.8c0.1,0.4-0.1,0.7-0.5,0.7H124
	C123.7,98.9,123.5,98.7,123.4,98.5 M113,87.7h6.2c0.4,0,0.6-0.4,0.5-0.7l-3.1-9.4c-0.2-0.5-0.9-0.5-1.1,0l-3.1,9.4
	C112.3,87.3,112.6,87.7,113,87.7"/>
<path class="st0" d="M131.4,79.8h2.7c0.3,0,0.5,0.2,0.6,0.5l0.3,2h0.2c0.6-0.9,1.3-1.6,2.2-2c0.9-0.5,1.9-0.7,3-0.7
	c0.3,0,0.7,0,1,0.1c0.3,0,0.5,0.3,0.5,0.6v3c0,0.3-0.3,0.6-0.6,0.6c-0.3,0-0.7,0-1.2,0c-0.9,0-1.8,0.2-2.7,0.6
	c-0.8,0.3-1.5,0.8-2,1.4c-0.1,0.1-0.1,0.2-0.1,0.4v12.3c0,0.3-0.2,0.6-0.6,0.6h-3.5c-0.3,0-0.6-0.2-0.6-0.6v-18
	C130.8,80,131,79.8,131.4,79.8"/>
<path class="st0" d="M147.5,106.8c-0.9-0.1-1.8-0.3-2.6-0.5c-0.2-0.1-0.4-0.3-0.4-0.5v-2.5c0-0.4,0.3-0.6,0.7-0.5
	c1.8,0.5,3.5,0.7,5.1,0.7c1.3,0,2.4-0.2,3.2-0.5c0.8-0.3,1.4-0.9,1.8-1.6c0.4-0.7,0.6-1.7,0.6-2.9v-1.5h-0.2
	c-0.6,0.7-1.3,1.2-2.2,1.6c-0.9,0.4-1.8,0.6-2.9,0.6c-1.4,0-2.6-0.3-3.7-1c-1.1-0.7-2-1.7-2.7-3.1c-0.7-1.4-1-3.1-1-5.2
	c0-3.4,0.9-5.9,2.6-7.6c1.8-1.7,4.4-2.6,7.8-2.6c1.1,0,2.3,0.1,3.6,0.3c1.1,0.2,2,0.4,2.9,0.6c0.2,0.1,0.4,0.3,0.4,0.5v16.7
	c0,2.2-0.4,4-1.1,5.4c-0.7,1.4-1.8,2.4-3.2,3c-1.4,0.6-3.3,1-5.5,1C149.6,107,148.6,106.9,147.5,106.8 M154.3,94.9
	c0.6-0.2,1.1-0.6,1.5-1c0.1-0.1,0.2-0.2,0.2-0.4v-9.7c0-0.3-0.2-0.5-0.5-0.6c-0.7-0.1-1.5-0.2-2.2-0.2c-1.8,0-3.2,0.5-4.1,1.5
	c-0.9,1-1.4,2.6-1.4,4.8c0,2.2,0.4,3.7,1.1,4.6c0.8,0.9,1.8,1.3,3.3,1.3C152.9,95.3,153.6,95.2,154.3,94.9"/>
<path class="st0" d="M180,90.7h-10.7c-0.3,0-0.6,0.3-0.6,0.6c0.1,0.9,0.3,1.7,0.7,2.3c0.4,0.7,1,1.3,1.9,1.6c0.9,0.3,2,0.5,3.4,0.5
	c1.2,0,2.6-0.2,4.1-0.5c0.4-0.1,0.7,0.2,0.7,0.5v2.3c0,0.3-0.2,0.5-0.4,0.6c-1.7,0.4-3.4,0.6-5,0.6c-2.3,0-4.2-0.3-5.6-1
	c-1.5-0.7-2.6-1.8-3.3-3.2c-0.7-1.5-1.1-3.3-1.1-5.7c0-2.1,0.3-3.9,1-5.4c0.7-1.5,1.6-2.6,2.9-3.3c1.3-0.7,2.8-1.1,4.6-1.1
	c2.6,0,4.6,0.8,5.9,2.5c1.4,1.7,2,4.2,2,7.5v0.7C180.6,90.5,180.3,90.7,180,90.7 M169.7,83.7c-0.6,0.8-0.9,2-1,3.6
	c0,0.3,0.2,0.6,0.6,0.6h6.4c0.3,0,0.6-0.3,0.6-0.6c-0.1-1.7-0.4-2.9-1-3.6c-0.6-0.8-1.5-1.3-2.7-1.3
	C171.3,82.5,170.4,82.9,169.7,83.7"/>
<path class="st0" d="M184.5,79.8h2.8c0.3,0,0.5,0.2,0.6,0.5l0.2,1.5h0.2c0.7-0.7,1.6-1.3,2.6-1.7c1-0.4,2-0.6,3.2-0.6
	c2,0,3.5,0.6,4.7,1.7c1.1,1.2,1.7,3,1.7,5.5v11.6c0,0.3-0.2,0.6-0.6,0.6h-3.5c-0.3,0-0.6-0.2-0.6-0.6V87c0-1.3-0.3-2.2-0.8-2.7
	c-0.5-0.5-1.3-0.8-2.3-0.8c-0.8,0-1.5,0.2-2.3,0.5c-0.7,0.3-1.3,0.7-1.7,1.3c-0.1,0.1-0.1,0.2-0.1,0.4v12.7c0,0.3-0.2,0.6-0.6,0.6
	h-3.5c-0.3,0-0.6-0.2-0.6-0.6v-18C184,80,184.2,79.8,184.5,79.8"/>
<path class="st0" d="M216.3,95.9v2.6c0,0.3-0.2,0.5-0.4,0.6c-1,0.2-1.9,0.3-2.9,0.3c-4.5,0-6.8-2.3-6.8-6.9V84
	c0-0.3-0.2-0.6-0.6-0.6h-2.2c-0.3,0-0.6-0.2-0.6-0.6v-2.5c0-0.3,0.2-0.6,0.6-0.6h2.2c0.3,0,0.5-0.2,0.6-0.5l0.7-5.8
	c0-0.3,0.3-0.5,0.6-0.5h2.7c0.3,0,0.6,0.2,0.6,0.6v5.7c0,0.3,0.2,0.6,0.6,0.6h4.2c0.3,0,0.6,0.2,0.6,0.6v2.5c0,0.3-0.2,0.6-0.6,0.6
	h-4.2c-0.3,0-0.6,0.2-0.6,0.6v7.7c0,0.9,0.1,1.7,0.4,2.2c0.2,0.6,0.6,0.9,1.1,1.2c0.5,0.2,1.1,0.4,1.9,0.4c0.4,0,0.9,0,1.5-0.1
	C216,95.2,216.3,95.5,216.3,95.9"/>
<path class="st0" d="M219.6,75.9c-0.5-0.4-0.7-1-0.7-1.8c0-0.8,0.2-1.4,0.7-1.9c0.5-0.4,1.2-0.6,2.2-0.6c1,0,1.7,0.2,2.2,0.6
	c0.5,0.4,0.7,1.1,0.7,1.9c0,0.8-0.2,1.4-0.7,1.8c-0.5,0.4-1.2,0.6-2.2,0.6C220.8,76.5,220.1,76.3,219.6,75.9 M219.5,98.3v-18
	c0-0.3,0.2-0.6,0.6-0.6h3.5c0.3,0,0.6,0.2,0.6,0.6v18c0,0.3-0.2,0.6-0.6,0.6H220C219.7,98.9,219.5,98.7,219.5,98.3"/>
<path class="st0" d="M228.4,79.8h2.8c0.3,0,0.5,0.2,0.6,0.5l0.2,1.5h0.2c0.7-0.7,1.6-1.3,2.6-1.7s2-0.6,3.2-0.6c2,0,3.5,0.6,4.7,1.7
	c1.1,1.2,1.7,3,1.7,5.5v11.6c0,0.3-0.2,0.6-0.6,0.6h-3.5c-0.3,0-0.6-0.2-0.6-0.6V87c0-1.3-0.3-2.2-0.8-2.7c-0.5-0.5-1.3-0.8-2.3-0.8
	c-0.8,0-1.5,0.2-2.3,0.5c-0.7,0.3-1.3,0.7-1.7,1.3c-0.1,0.1-0.1,0.2-0.1,0.4v12.7c0,0.3-0.2,0.6-0.6,0.6h-3.5
	c-0.3,0-0.6-0.2-0.6-0.6v-18C227.9,80,228.1,79.8,228.4,79.8"/>
<path class="st0" d="M259.8,80.2c1.2,0.5,2.1,1.3,2.7,2.4c0.6,1.1,0.9,2.6,0.9,4.5v11.2c0,0.3-0.2,0.6-0.6,0.6h-2.8
	c-0.3,0-0.5-0.2-0.6-0.5l-0.2-1.5H259c-0.6,0.8-1.3,1.3-2.2,1.7c-0.9,0.4-1.9,0.6-3,0.6c-1.2,0-2.3-0.2-3.2-0.7
	c-0.9-0.4-1.6-1.1-2.1-1.9c-0.5-0.8-0.7-1.8-0.7-2.9c0-1.8,0.6-3.1,1.8-4.1c1.2-1,3.1-1.6,5.8-1.8l3.6-0.3v-0.8c0-1-0.2-1.7-0.5-2.3
	c-0.3-0.6-0.8-0.9-1.5-1.2c-0.7-0.2-1.5-0.4-2.7-0.4c-0.8,0-1.6,0.1-2.5,0.2c-0.7,0.1-1.3,0.2-1.9,0.4c-0.4,0.1-0.7-0.2-0.7-0.5
	v-2.4c0-0.2,0.2-0.5,0.4-0.5c0.8-0.2,1.6-0.4,2.5-0.5c1.1-0.1,2.1-0.2,3-0.2C257.1,79.5,258.6,79.7,259.8,80.2 M257.2,95.6
	c0.6-0.2,1.1-0.6,1.5-1.1c0.1-0.1,0.2-0.3,0.2-0.4v-3.2c0-0.3-0.3-0.6-0.6-0.6l-2.5,0.2c-1.2,0.1-2.1,0.4-2.6,0.9s-0.8,1.1-0.8,1.9
	c0,0.8,0.2,1.5,0.7,1.9c0.5,0.4,1.2,0.7,2.2,0.7C255.9,96,256.6,95.8,257.2,95.6"/>
<polygon class="st0" points="121.6,39.3 125.7,39.3 125.7,58.3 122.5,58.3 122.5,43.9 117.3,55.6 114.4,55.6 109.2,44.2 109.2,58.3 
	106,58.3 106,39.3 110.1,39.3 115.9,52.1 "/>
<path class="st0" d="M129.4,41.4c-0.4-0.3-0.5-0.8-0.5-1.4c0-0.6,0.2-1,0.5-1.4c0.4-0.3,0.9-0.5,1.6-0.5s1.2,0.2,1.6,0.5
	c0.4,0.3,0.5,0.8,0.5,1.4c0,0.6-0.2,1-0.5,1.4c-0.4,0.3-0.9,0.5-1.6,0.5S129.7,41.7,129.4,41.4 M129.3,44.3h3.4v14h-3.4V44.3z"/>
<path class="st0" d="M136,44.3h2.8l0.2,1.5h0.2c0.5-0.5,1.2-1,1.9-1.3c0.7-0.3,1.5-0.4,2.3-0.4c1.4,0,2.6,0.4,3.4,1.3
	c0.8,0.9,1.3,2.2,1.3,4v8.9h-3.4v-8.7c0-0.9-0.2-1.6-0.6-2c-0.4-0.4-1-0.6-1.7-0.6c-0.6,0-1.1,0.1-1.7,0.4c-0.5,0.2-1,0.6-1.4,1.1
	v9.9H136V44.3z"/>
<path class="st0" d="M151.4,41.4c-0.4-0.3-0.5-0.8-0.5-1.4c0-0.6,0.2-1,0.5-1.4c0.4-0.3,0.9-0.5,1.6-0.5s1.2,0.2,1.6,0.5
	c0.4,0.3,0.5,0.8,0.5,1.4c0,0.6-0.2,1-0.5,1.4c-0.4,0.3-0.9,0.5-1.6,0.5S151.8,41.7,151.4,41.4 M151.3,44.3h3.4v14h-3.4V44.3z"/>
<path class="st0" d="M157.6,58v-2.5c1.4,0.4,2.8,0.6,4.2,0.6c1,0,1.7-0.1,2.2-0.4c0.5-0.3,0.7-0.7,0.7-1.3c0-0.5-0.1-0.8-0.4-1
	c-0.2-0.2-0.7-0.4-1.2-0.5l-2.1-0.4c-1.3-0.3-2.2-0.7-2.8-1.4c-0.6-0.6-0.9-1.5-0.9-2.6c0-0.9,0.2-1.6,0.7-2.3
	c0.5-0.6,1.2-1.1,2.1-1.5c0.9-0.4,2.1-0.5,3.5-0.5c1.3,0,2.5,0.1,3.6,0.4V47c-1.1-0.3-2.3-0.4-3.5-0.4c-2.1,0-3.2,0.6-3.2,1.7
	c0,0.4,0.1,0.7,0.4,1c0.2,0.2,0.6,0.4,1.2,0.5l2.1,0.4c1.3,0.3,2.2,0.7,2.8,1.3c0.6,0.6,0.9,1.5,0.9,2.7c0,0.9-0.2,1.7-0.7,2.3
	c-0.5,0.7-1.1,1.2-2,1.5c-0.9,0.4-2,0.5-3.2,0.5C160.3,58.5,158.9,58.4,157.6,58"/>
<path class="st0" d="M178.5,55.6v2.7c-0.8,0.2-1.6,0.3-2.4,0.3c-3.3,0-5-1.7-5-5V47h-2.4v-2.7h2.4l0.6-5h2.8v5h3.9V47h-3.9v6
	c0,0.7,0.1,1.2,0.3,1.6c0.2,0.4,0.4,0.7,0.8,0.9c0.4,0.2,0.8,0.3,1.4,0.3C177.3,55.7,177.8,55.7,178.5,55.6"/>
<path class="st0" d="M191.7,52.3h-8.7c0,0.9,0.2,1.6,0.5,2.2c0.3,0.5,0.8,0.9,1.4,1.2c0.6,0.2,1.5,0.4,2.5,0.4c1,0,2.2-0.2,3.5-0.5
	V58c-1.3,0.3-2.7,0.5-4,0.5c-1.7,0-3-0.3-4.1-0.8c-1.1-0.5-1.9-1.3-2.4-2.4c-0.5-1.1-0.8-2.5-0.8-4.2c0-1.6,0.2-2.9,0.7-4
	c0.5-1.1,1.2-1.9,2.1-2.4c0.9-0.5,2-0.8,3.4-0.8c1.9,0,3.4,0.6,4.4,1.8c1,1.2,1.5,3.1,1.5,5.5V52.3z M183.8,47.2
	c-0.5,0.6-0.7,1.6-0.7,3.1h5.5c0-1.4-0.3-2.5-0.7-3.1c-0.4-0.6-1.1-0.9-2-0.9C185,46.3,184.3,46.6,183.8,47.2"/>
<path class="st0" d="M194.2,44.3h2.8l0.3,1.8h0.2c0.4-0.7,1-1.2,1.6-1.5c0.7-0.3,1.4-0.5,2.2-0.5c0.4,0,0.7,0,1.1,0.1v3.1
	c-0.3-0.1-0.8-0.1-1.3-0.1c-0.7,0-1.3,0.1-2,0.4c-0.6,0.3-1.2,0.7-1.5,1.2v9.5h-3.4V44.3z"/>
<path class="st0" d="M204.5,41.4c-0.4-0.3-0.5-0.8-0.5-1.4c0-0.6,0.2-1,0.5-1.4c0.4-0.3,0.9-0.5,1.6-0.5s1.2,0.2,1.6,0.5
	c0.4,0.3,0.5,0.8,0.5,1.4c0,0.6-0.2,1-0.5,1.4c-0.4,0.3-0.9,0.5-1.6,0.5S204.8,41.7,204.5,41.4 M204.4,44.3h3.4v14h-3.4V44.3z"/>
<path class="st0" d="M212.2,56.7c-1.2-1.2-1.7-3-1.7-5.4c0-2.4,0.6-4.2,1.7-5.4c1.1-1.2,2.7-1.8,4.8-1.8c2.1,0,3.7,0.6,4.8,1.8
	c1.1,1.2,1.7,3,1.7,5.4c0,1.6-0.3,3-0.8,4c-0.5,1.1-1.3,1.9-2.3,2.4c-1,0.5-2.1,0.8-3.5,0.8C214.9,58.5,213.3,57.9,212.2,56.7
	 M219.3,54.9c0.5-0.7,0.8-1.9,0.8-3.6c0-1.7-0.3-2.9-0.8-3.6c-0.5-0.7-1.3-1.1-2.3-1.1c-1,0-1.8,0.4-2.3,1.1
	c-0.5,0.7-0.8,1.9-0.8,3.6c0,1.2,0.1,2.1,0.4,2.8c0.2,0.7,0.6,1.2,1.1,1.5c0.5,0.3,1,0.4,1.7,0.4C218,56,218.8,55.6,219.3,54.9"/>
<path class="st0" d="M234.7,57.8c-0.9-0.5-1.5-1.2-2-2.3c-0.5-1-0.8-2.4-0.8-4c0-2.5,0.6-4.3,1.9-5.6c1.3-1.3,3.1-1.9,5.5-1.9
	c0.6,0,1.2,0,1.9,0.1v-6.7h3.4v20.8h-2.8l-0.2-1.5h-0.2c-0.4,0.5-1,1-1.6,1.3c-0.6,0.3-1.4,0.5-2.2,0.5
	C236.5,58.5,235.5,58.3,234.7,57.8 M240,55.4c0.5-0.2,0.9-0.5,1.2-0.9v-7.7c-0.6-0.1-1.2-0.2-1.9-0.2c-1.4,0-2.4,0.4-3,1.1
	c-0.7,0.7-1,1.9-1,3.6c0,1.6,0.3,2.8,0.8,3.4c0.6,0.7,1.3,1,2.4,1C239,55.8,239.5,55.7,240,55.4"/>
<path class="st0" d="M259.3,52.3h-8.7c0,0.9,0.2,1.6,0.5,2.2c0.3,0.5,0.8,0.9,1.4,1.2c0.6,0.2,1.5,0.4,2.5,0.4c1,0,2.2-0.2,3.5-0.5
	V58c-1.3,0.3-2.7,0.5-4,0.5c-1.7,0-3-0.3-4.1-0.8c-1.1-0.5-1.9-1.3-2.4-2.4c-0.5-1.1-0.8-2.5-0.8-4.2c0-1.6,0.2-2.9,0.7-4
	c0.5-1.1,1.2-1.9,2.1-2.4c0.9-0.5,2-0.8,3.4-0.8c1.9,0,3.4,0.6,4.4,1.8c1,1.2,1.5,3.1,1.5,5.5V52.3z M251.3,47.2
	c-0.5,0.6-0.7,1.6-0.7,3.1h5.5c0-1.4-0.3-2.5-0.7-3.1c-0.4-0.6-1.1-0.9-2-0.9C252.5,46.3,251.8,46.6,251.3,47.2"/>
<path class="st0" d="M270.1,56.2c-1.6-1.6-2.4-4-2.4-7.4c0-3.3,0.8-5.7,2.5-7.3c1.7-1.6,4-2.4,7.2-2.4c1.4,0,2.8,0.2,4.1,0.5v2.9
	c-1.2-0.3-2.5-0.5-3.8-0.5c-1.4,0-2.6,0.2-3.5,0.7c-0.9,0.5-1.6,1.2-2.1,2.2c-0.5,1-0.7,2.3-0.7,4c0,1.7,0.2,3,0.7,4
	c0.5,1,1.1,1.7,2,2.2c0.9,0.4,2,0.7,3.4,0.7c1.3,0,2.6-0.2,4-0.6v2.9c-0.6,0.2-1.3,0.4-2,0.5s-1.5,0.2-2.2,0.2
	C274.1,58.5,271.7,57.8,270.1,56.2"/>
<path class="st0" d="M284.7,57.3c-0.8-0.9-1.3-2.2-1.3-4v-9h3.4V53c0,0.9,0.2,1.6,0.6,2c0.4,0.4,0.9,0.6,1.7,0.6
	c0.5,0,1.1-0.1,1.6-0.4c0.5-0.2,1-0.6,1.4-1.1v-9.9h3.4v14h-2.8l-0.2-1.5h-0.2c-0.5,0.6-1.2,1-1.9,1.3c-0.7,0.3-1.4,0.4-2.2,0.4
	C286.7,58.5,285.5,58.1,284.7,57.3"/>
<rect x="298.7" y="37.5" class="st0" width="3.4" height="20.8"/>
<path class="st0" d="M313.8,55.6v2.7c-0.8,0.2-1.6,0.3-2.4,0.3c-3.3,0-5-1.7-5-5V47H304v-2.7h2.4l0.6-5h2.8v5h3.9V47h-3.9v6
	c0,0.7,0.1,1.2,0.3,1.6c0.2,0.4,0.4,0.7,0.8,0.9c0.4,0.2,0.8,0.3,1.4,0.3C312.7,55.7,313.2,55.7,313.8,55.6"/>
<path class="st0" d="M317,57.3c-0.8-0.9-1.3-2.2-1.3-4v-9h3.4V53c0,0.9,0.2,1.6,0.6,2c0.4,0.4,0.9,0.6,1.7,0.6
	c0.5,0,1.1-0.1,1.6-0.4c0.5-0.2,1-0.6,1.4-1.1v-9.9h3.4v14h-2.8l-0.2-1.5h-0.2c-0.5,0.6-1.2,1-1.9,1.3c-0.7,0.3-1.4,0.4-2.2,0.4
	C319,58.5,317.8,58.1,317,57.3"/>
<path class="st0" d="M331,44.3h2.8l0.3,1.8h0.2c0.4-0.7,1-1.2,1.6-1.5c0.7-0.3,1.4-0.5,2.2-0.5c0.4,0,0.7,0,1.1,0.1v3.1
	c-0.3-0.1-0.8-0.1-1.3-0.1c-0.7,0-1.3,0.1-2,0.4c-0.6,0.3-1.2,0.7-1.5,1.2v9.5H331V44.3z"/>
<path class="st0" d="M348.7,44.6c0.9,0.4,1.5,0.9,2,1.8c0.4,0.8,0.6,1.9,0.6,3.3v8.6h-2.8l-0.2-1.5h-0.2c-0.4,0.6-1,1-1.6,1.3
	c-0.7,0.3-1.4,0.4-2.2,0.4c-0.9,0-1.7-0.2-2.4-0.5c-0.7-0.3-1.2-0.8-1.5-1.4c-0.4-0.6-0.5-1.3-0.5-2.1c0-1.3,0.4-2.3,1.3-3
	c0.9-0.7,2.3-1.1,4.2-1.3L348,50v-0.6c0-0.7-0.1-1.3-0.3-1.7c-0.2-0.4-0.6-0.7-1.1-0.9c-0.5-0.2-1.1-0.3-1.9-0.3
	c-0.6,0-1.2,0.1-1.9,0.1c-0.7,0.1-1.3,0.2-1.9,0.4v-2.6c0.6-0.2,1.3-0.3,2.1-0.4c0.8-0.1,1.5-0.2,2.2-0.2
	C346.6,44.1,347.8,44.2,348.7,44.6 M346.7,55.9c0.5-0.2,0.9-0.5,1.3-0.9v-3l-2.3,0.2c-0.9,0.1-1.5,0.3-1.9,0.6
	c-0.4,0.3-0.6,0.8-0.6,1.4c0,0.6,0.2,1.1,0.5,1.4c0.4,0.3,0.9,0.5,1.6,0.5C345.8,56.1,346.3,56.1,346.7,55.9"/>
<path class="st0" d="M41.8,16.5L41.8,16.5L41.8,16.5c1.2-0.2,2.2-0.3,3.1-0.3c2.9,0,3.4,1,3.4,1.1c0,0,0.1,0.2,0.4,0.2
	c0,0,0.1,0,0.2,0c0.1,0,0.2-0.1,0.2-0.1c0-0.1,0-0.2,0-0.3c0,0-0.7-1.9-3.7-2.2c0,0-1.6-0.2-3.3,0.1c-0.5,0.1-0.6,1.2-0.6,1.2
	c0,0.1,0,0.2,0.1,0.3C41.6,16.6,41.8,16.6,41.8,16.5"/>
<path class="st0" d="M36.9,17.8L36.9,17.8c-0.7-0.3-2.3-0.2-2.3-0.2c-2.5,0.1-3.2,1.7-3.3,1.7c-0.1,0.2-0.1,0.3,0,0.4
	c0.1,0.1,0.2,0.1,0.2,0.1c0.5,0.1,0.7-0.3,0.7-0.3c0,0,0.2-0.5,1.3-0.8c0,0,0,0,0.1,0c0,0,0,0,0,0.1c-0.1,0.2-0.1,0.3-0.1,0.5
	c0,0.7,0.6,1.3,1.3,1.3c0.7,0,1.3-0.6,1.3-1.3c0-0.2,0-0.3-0.1-0.5c0,0,0,0,0-0.1c0,0,0,0,0.1,0c0.5,0.2,0.8,0.5,1,0.9
	c0.1,0.1,0.2,0.2,0.7,0.2c0.1,0,0.3,0,0.3-0.1c0-0.1,0-0.1,0-0.2C37.7,18.2,36.9,17.8,36.9,17.8"/>
<path class="st0" d="M41.7,19.8c0.5,0,0.7-0.1,0.7-0.2c0.2-0.4,0.5-0.7,1-0.9c0,0,0,0,0.1,0c0,0,0,0,0,0.1c-0.1,0.2-0.1,0.3-0.1,0.5
	c0,0.7,0.6,1.3,1.3,1.3c0.7,0,1.3-0.6,1.3-1.3c0-0.2,0-0.3-0.1-0.5c0,0,0,0,0-0.1c0,0,0,0,0.1,0c1.1,0.3,1.3,0.7,1.3,0.8
	c0,0,0.2,0.4,0.6,0.3c0.1,0,0.2-0.1,0.2-0.1c0.1-0.1,0-0.2,0-0.4c0,0-0.7-1.6-3.3-1.7c-0.2,0-1.6-0.1-2.3,0.2c0,0-0.8,0.4-1.2,1.7
	c0,0.1,0,0.1,0,0.2C41.5,19.8,41.6,19.8,41.7,19.8"/>
<path class="st0" d="M30.5,17.6L30.5,17.6C30.5,17.6,30.5,17.6,30.5,17.6c0.1,0,0.1,0,0.2,0c0.3,0,0.4-0.2,0.4-0.2
	c0-0.1,0.7-1.7,6.5-0.8c0,0,0.2,0,0.3-0.1c0.1-0.1,0.1-0.1,0.1-0.3c0,0-0.2-1.1-0.6-1.2c-0.6-0.1-1.3-0.2-2-0.2
	c-0.8,0-1.3,0.1-1.3,0.1c-3,0.3-3.7,2.2-3.7,2.2c-0.1,0.1-0.1,0.3,0,0.3C30.4,17.5,30.5,17.6,30.5,17.6"/>
<path class="st0" d="M79,80c0-0.2-0.1-0.4-0.2-0.6c-0.1-0.1-0.3-0.2-0.5-0.1c0.1-0.3,0.3-0.6,0.4-0.9c0.5-1.3,0.7-2.9,0.8-4.6
	c0-0.2-0.1-0.4-0.3-0.5c-0.1-0.1-0.3-0.1-0.5-0.1c0.1-0.3,0.2-0.6,0.3-0.9c0.4-1.4,0.5-2.9,0.3-4.6c0-0.2-0.1-0.4-0.3-0.5
	c-0.2-0.1-0.3-0.1-0.5,0c0.1-0.3,0.2-0.7,0.2-1.1c0.2-1.4,0.2-3-0.1-4.6c0-0.2-0.2-0.4-0.4-0.5c-0.1,0-0.3-0.1-0.4,0
	c0-0.2,0.1-0.5,0.1-0.8c0.2-1.4,0-3-0.4-4.6c-0.1-0.2-0.2-0.4-0.4-0.5c-0.2-0.1-0.4,0-0.6,0.1c0,0,0,0,0,0c0-0.4,0-0.8,0-1.2
	c0-1.4-0.4-3-1-4.5C75.4,49.2,75.2,49,75,49c-0.2,0-0.4,0-0.5,0.1c0-0.4,0-0.7-0.1-1.1c-0.2-1.4-0.7-2.9-1.5-4.4
	c-0.1-0.2-0.3-0.3-0.5-0.3c-0.2,0-0.4,0-0.5,0.2c-0.1-0.3-0.1-0.7-0.2-1c-0.4-1.4-1-2.8-2-4.2c-0.1-0.2-0.3-0.3-0.5-0.3
	c-0.2,0-0.4,0.1-0.5,0.3c0,0,0,0,0,0c-0.1-0.4-0.3-0.8-0.4-1.2c-0.6-1.3-1.5-2.6-2.6-3.9C65.4,33,65.2,33,65,33
	c-0.2,0-0.3,0.1-0.4,0.3c-0.2-0.4-0.4-0.8-0.6-1.1c-0.8-1.2-1.8-2.3-3.1-3.4c-0.2-0.1-0.4-0.2-0.6-0.1c-0.2,0.1-0.3,0.2-0.4,0.4
	c-0.8-1.1-2-2-3.4-2.5c0.2,0,0.4,0,0.5,0c1.9,0.1,3.2-0.3,3.3-0.3c0.4-0.1,0.7-0.6,0.7-1c-0.1-0.5-0.4-0.8-0.9-0.8
	c-2-0.1-2.8-0.5-3.7-1c-0.1-0.1-0.2-0.1-0.3-0.2l4.4-0.7c0.5-0.1,0.8-0.5,0.8-1c0-0.5-0.4-0.9-0.8-1L56.2,20
	c0.5-0.1,0.9-0.3,1.3-0.4c1.8-0.6,2.9-1.5,2.9-1.5c0.4-0.3,0.5-0.8,0.2-1.2c-0.2-0.4-0.7-0.6-1.2-0.4c-1.9,0.7-2.8,0.6-3.8,0.5
	c-0.1,0-0.2,0-0.3,0l3.8-2.3c0.4-0.2,0.6-0.8,0.4-1.2c-0.2-0.4-0.7-0.7-1.1-0.6l-4.2,1.1c0.4-0.3,0.8-0.6,1.1-0.9
	c1.4-1.3,2.1-2.5,2.1-2.5c0.2-0.4,0.1-0.9-0.3-1.2c-0.4-0.3-0.9-0.3-1.2,0c-1.5,1.4-2.3,1.6-3.4,1.9c-0.1,0-0.2,0.1-0.3,0.1L55,7.6
	c0.3-0.4,0.2-0.9-0.1-1.3C54.6,6,54,5.9,53.7,6.2l-3.4,2.6c0.2-0.4,0.5-0.9,0.7-1.3c0.8-1.7,1-3.1,1-3.2c0-0.5-0.3-0.9-0.7-1
	c-0.5-0.1-0.9,0.1-1.1,0.5c-0.9,1.8-1.5,2.4-2.4,3.1c-0.1,0.1-0.1,0.1-0.2,0.2l1.1-4.3c0.1-0.5-0.1-0.9-0.6-1.1
	c-0.4-0.2-1,0-1.2,0.4l-2.2,3.7c0.1-0.5,0.1-1,0.1-1.5c0.1-1.9-0.3-3.2-0.3-3.3c-0.1-0.5-0.6-0.7-1-0.7c-0.5,0.1-0.8,0.4-0.8,0.9
	c-0.1,2-0.5,2.8-1,3.7c0,0.1-0.1,0.2-0.1,0.2l-0.6-4.4c-0.1-0.5-0.5-0.8-1-0.8c-0.5,0-0.9,0.4-1,0.8L38.2,5
	c-0.1-0.5-0.3-0.9-0.4-1.3c-0.6-1.8-1.5-2.9-1.5-2.9c-0.3-0.4-0.8-0.5-1.2-0.2c-0.4,0.2-0.6,0.7-0.4,1.2c0.7,1.9,0.6,2.8,0.5,3.9
	c0,0.1,0,0.2,0,0.3L32.7,2c-0.2-0.4-0.8-0.6-1.2-0.4c-0.4,0.2-0.7,0.7-0.6,1.1L32,6.9c-0.3-0.4-0.6-0.7-0.9-1.1
	c-1.2-1.4-2.4-2-2.5-2.1c-0.4-0.2-0.9-0.1-1.2,0.3c-0.3,0.4-0.3,0.9,0,1.2c1.4,1.5,1.6,2.3,1.9,3.4c0,0.1,0.1,0.2,0.1,0.3l-3.6-2.7
	C25.4,6,24.8,6,24.5,6.3c-0.3,0.3-0.4,0.9-0.1,1.3L27,11c-0.4-0.2-0.8-0.5-1.3-0.7c-1.7-0.8-3.1-1-3.1-1c-0.5,0-0.9,0.3-1,0.7
	c-0.1,0.5,0.1,0.9,0.5,1.1c1.8,0.9,2.4,1.5,3.1,2.4c0.1,0.1,0.1,0.1,0.2,0.2L21,12.8c-0.5-0.1-0.9,0.1-1.1,0.6c-0.2,0.4,0,1,0.4,1.2
	l3.7,2.2c-0.5-0.1-1-0.1-1.4-0.1c-1.9-0.1-3.2,0.3-3.3,0.3c-0.4,0.1-0.7,0.6-0.7,1c0.1,0.5,0.4,0.8,0.9,0.8c2,0.1,2.8,0.5,3.7,1
	c0.1,0,0.2,0.1,0.2,0.1L19,20.6c-0.5,0.1-0.8,0.5-0.8,1c0,0.5,0.4,0.9,0.8,1l4.3,0.6c-0.5,0.1-0.9,0.3-1.4,0.4
	c-1.8,0.6-2.9,1.5-2.9,1.5c-0.4,0.3-0.5,0.8-0.2,1.2s0.7,0.6,1.2,0.4c1-0.3,1.7-0.5,2.4-0.6c-1.2,1.1-1.8,1.7-2,2
	c-0.2,0.3-0.4,0.5-0.6,0.8c-0.1-0.1-0.2-0.3-0.4-0.3c-0.2-0.1-0.4,0-0.6,0.1c-1.3,1-2.4,2.2-3.2,3.4c-0.2,0.4-0.4,0.7-0.6,1.1
	c-0.1-0.2-0.3-0.3-0.5-0.3c-0.2,0-0.4,0-0.6,0.2c-1.2,1.2-2,2.5-2.6,3.9c-0.2,0.4-0.3,0.7-0.4,1.1c-0.1-0.1-0.3-0.2-0.4-0.2
	c-0.2,0-0.4,0.1-0.6,0.3c-1,1.4-1.7,2.8-2.1,4.1c-0.1,0.4-0.2,0.8-0.3,1.1c0,0,0,0,0,0c-0.1-0.2-0.4-0.3-0.6-0.2
	c-0.2,0-0.4,0.1-0.5,0.3c-0.8,1.5-1.3,3-1.5,4.4c-0.1,0.4-0.1,0.7-0.1,1.1c0,0,0,0,0,0c-0.2-0.2-0.4-0.2-0.6-0.2
	c-0.2,0-0.4,0.2-0.5,0.4c-0.6,1.6-0.9,3.1-0.9,4.6c0,0.4,0,0.7,0,1.1c-0.2-0.1-0.4-0.1-0.6-0.1c-0.2,0.1-0.4,0.2-0.4,0.5
	C1.5,57,1.4,58.6,1.5,60c0,0.3,0.1,0.6,0.1,0.8c-0.1,0-0.2,0-0.3,0c-0.2,0.1-0.3,0.3-0.4,0.5C0.6,63,0.6,64.6,0.8,66
	c0.1,0.4,0.1,0.7,0.2,1.1c-0.1,0-0.2,0-0.3,0.1c-0.2,0.1-0.3,0.3-0.4,0.5c-0.2,1.7-0.2,3.3,0.1,4.6c0.1,0.3,0.2,0.6,0.3,0.9
	c-0.2,0-0.3,0-0.5,0.1C0.1,73.4,0,73.6,0,73.8c0,1.7,0.2,3.3,0.6,4.6c0.1,0.4,0.3,0.8,0.5,1.2c-0.1,0-0.1,0-0.1,0
	c-0.2-0.1-0.4,0-0.6,0.1c-0.2,0.1-0.2,0.4-0.2,0.6c0.3,1.7,0.7,3.2,1.4,4.4C1.7,85,1.9,85.2,2,85.5c-0.1,0-0.2,0.1-0.3,0.2
	c-0.2,0.2-0.2,0.4-0.2,0.6c0.4,1.7,1,3.1,1.8,4.3c0.2,0.3,0.4,0.6,0.6,0.9c-0.2,0-0.4,0.1-0.5,0.3c-0.1,0.2-0.2,0.4-0.1,0.6
	c0.6,1.6,1.3,3,2.2,4.1c0.2,0.3,0.4,0.5,0.7,0.7c-0.2,0-0.3,0.1-0.4,0.3c-0.1,0.2-0.1,0.4,0,0.6c0.8,1.5,1.7,2.8,2.7,3.8
	c0.2,0.2,0.5,0.4,0.7,0.6c-0.2,0.1-0.3,0.2-0.4,0.3c-0.1,0.2-0.1,0.4,0,0.6c0.9,1.4,2,2.6,3.1,3.5c0.4,0.3,0.7,0.5,1.1,0.8
	c-0.1,0-0.2,0.1-0.2,0.1c-0.2,0.1-0.4,0.2-0.4,0.5c-0.1,0.2,0,0.4,0.2,0.6c1.2,1.2,2.4,2.2,3.6,2.9c1,0.6,2,0.9,3,1.1
	c0.8,0.2,1.6,0.2,2.3,0c2.1,1.5,4.4,2.8,6.7,3.8c1.9,0.8,3.9,1.4,5.9,1.9c0.3,0.1,0.6,0.1,0.9,0.2l0.7,0.1c0.4,0.1,0.8,0.2,1.1,0.3
	c0,0.2-0.1,0.4-0.1,0.6c0,0.2,0,0.5,0.1,0.7c-0.7,0.7-3.2,2.9-6.7,3.3l-0.2,0l0.1,0.2c0.1,0.2,0.4,0.7,1,1.1l0.1,0l0.1,0
	c3.1-0.6,5.4-2.3,6.4-3.3c0.1,0.1,0.2,0.2,0.3,0.3c-0.2,0.9-1.2,3-4.8,4l-0.4,0.1l0.4,0.2c0.7,0.3,1.4,0.5,2.1,0.6l0,0l0,0
	c2.7-1.2,3.7-3.1,4-4.2c0.4,0.1,0.7,0.1,1.1,0c0.3,1,1.3,2.9,4,4.2l0,0l0,0c0.8-0.1,1.5-0.3,2.1-0.6l0.4-0.2l-0.4-0.1
	c-3.6-1-4.6-3.1-4.8-4c0.1-0.1,0.2-0.2,0.3-0.3c1.1,1,3.3,2.7,6.4,3.3l0.1,0l0,0c0.5-0.5,0.8-0.9,1-1.1l0.1-0.2l-0.2,0
	c-3.4-0.4-5.8-2.4-6.6-3.3c0.1-0.2,0.1-0.5,0.1-0.7c0-0.2,0-0.4-0.1-0.6c0.4-0.1,0.7-0.2,1-0.3l0.8-0.1c0.9-0.2,1.9-0.4,2.7-0.6
	c2-0.5,3.9-1.3,5.8-2.2c2.7-1.3,4.4-2.6,5-3c0.7,0.1,1.5,0.1,2.3,0c1-0.2,2-0.6,3-1.1c1.2-0.7,2.4-1.7,3.6-2.9
	c0.2-0.2,0.2-0.4,0.2-0.6c-0.1-0.2-0.2-0.4-0.4-0.5c0,0-0.1,0-0.2-0.1c0.4-0.2,0.8-0.5,1.1-0.8c1.1-0.9,2.2-2.1,3.1-3.5
	c0.1-0.2,0.1-0.4,0-0.6c-0.1-0.2-0.2-0.3-0.4-0.3c0.2-0.2,0.5-0.4,0.7-0.6c1-1,1.9-2.3,2.7-3.8c0.1-0.2,0.1-0.4,0-0.6
	c-0.1-0.2-0.3-0.3-0.5-0.3c0.3-0.2,0.5-0.5,0.7-0.8c0.9-1.1,1.7-2.5,2.2-4.1c0.1-0.2,0-0.4-0.1-0.6c-0.1-0.2-0.3-0.3-0.5-0.3
	c0,0,0,0-0.1,0h0c0.2-0.3,0.4-0.5,0.6-0.8c0.8-1.2,1.4-2.6,1.8-4.3c0.1-0.2,0-0.4-0.2-0.6c-0.1-0.2-0.4-0.2-0.6-0.2
	c0.2-0.3,0.4-0.6,0.5-1C78.4,83.2,78.8,81.7,79,80 M78.3,74.7L78.3,74.7C78.3,74.7,78.3,74.7,78.3,74.7c-0.1,1.2-0.3,2.3-0.6,3.2
	c-0.3,1-0.8,1.8-1.4,2.5c-0.7,0.8-1.4,1.3-1.7,1.4c0,0,0,0,0,0c0,0,0,0,0,0c-0.9-1.3-1.4-2.8-1.4-4.7c0-0.6,0.1-1.2,0.2-1.7
	c0,0,0,0,0,0c0,0,0,0,0.1,0c0.8,1,1.3,2.3,1.3,2.4c0.1,0.2,0.2,0.3,0.4,0.3c0,0,0,0,0,0c0.2,0,0.3-0.1,0.4-0.3
	C76.4,76.2,77.4,75.2,78.3,74.7C78.2,74.7,78.3,74.7,78.3,74.7 M78.1,68.6C78.1,68.6,78.2,68.6,78.1,68.6c0.1,0,0.1,0,0.1,0
	c0,1.2-0.1,2.3-0.3,3.2c-0.2,1-0.6,1.9-1.2,2.6c-0.6,0.9-1.3,1.4-1.5,1.6c0,0,0,0,0,0c0,0,0,0,0,0c-1.7-1.9-1.8-4.7-1.8-6.1
	c0,0,0,0,0-0.1c0,0,0.1,0,0.1,0c0.9,1,1.5,2.1,1.5,2.2c0.1,0.2,0.3,0.3,0.5,0.3c0.2,0,0.4-0.1,0.4-0.3
	C76.4,70.3,77.4,69.2,78.1,68.6 M77.5,62.5L77.5,62.5C77.5,62.4,77.5,62.4,77.5,62.5c0.1,0,0.1,0,0.1,0c0.1,1.2,0.1,2.3,0,3.2
	c-0.1,1-0.5,1.9-0.9,2.7c-0.5,1-1.2,1.5-1.4,1.7c0,0,0,0,0,0s0,0,0,0c-1.6-1.4-2.1-4.3-2.3-5.9c0,0,0-0.1,0-0.1c0,0,0,0,0.1,0
	c1,0.9,1.6,2,1.6,2c0.1,0.2,0.3,0.2,0.5,0.2c0.2,0,0.3-0.2,0.4-0.4C76,64.3,76.8,63.1,77.5,62.5 M76.5,56.6L76.5,56.6
	C76.5,56.6,76.5,56.6,76.5,56.6c0.1,0,0.1,0,0.1,0c0.2,1.2,0.2,2.2,0.1,3.2c-0.1,1-0.4,1.9-0.8,2.8c-0.5,1-1.1,1.6-1.3,1.8
	c0,0,0,0,0,0c0,0,0,0,0,0c-1.4-1.2-2-2.9-2.3-4.1c-0.1-0.6-0.2-1.1-0.3-1.7c0,0,0,0,0-0.1c0,0,0,0,0.1,0c1,0.8,1.8,1.9,1.8,1.9
	c0.1,0.2,0.3,0.2,0.5,0.2c0.2,0,0.3-0.2,0.4-0.4C75.1,58.5,75.9,57.3,76.5,56.6 M44.9,88.5c0.1,0.2,0.2,0.3,0.4,0.4
	c2,1,3.7,3,4.3,3.9c0,0,0,0,0,0c-0.1,0.2-0.2,0.3-0.3,0.5c-0.3,0.4-0.8,0.6-1.4,0.6c0,0-0.1,0-0.1,0c0,0,0,0,0,0
	c-0.2-0.5-0.6-1-1.1-1.6c-0.7-0.8-2.2-1.9-2.2-1.9c-0.3-0.2-0.8-0.2-1,0.2c-0.2,0.3-0.2,0.8,0.2,1c0.4,0.3,1.4,1.1,1.9,1.6
	c0.6,0.7,0.8,1.1,0.9,1.3c0,0,0,0,0,0c-0.1,0.2-0.2,0.4-0.4,0.6c-0.3,0.3-0.7,0.5-1.3,0.4c0,0,0,0,0,0C44.5,95,44,94,43.2,93.1
	c-0.3-0.3-0.7-0.3-1-0.1c-0.1,0.1-0.2,0.3-0.2,0.5c0,0.2,0.1,0.4,0.2,0.5c0.6,0.7,1,1.4,1.2,1.8c0,0,0,0,0,0
	c-0.2,0.1-0.3,0.2-0.5,0.3c-0.5,0.2-1,0.2-1.5,0.2c0,0,0,0,0,0c0,0,0,0,0,0c0.2-0.3,0.4-0.7,0.4-1.1c0-0.4,0-1.1-0.7-1.8
	c-0.4-0.4-1.1-0.7-2-0.5c0,0,0,0,0,0c0,0,0,0,0,0c0-0.5-0.3-1-0.8-1.4c-0.7-0.6-1.6-0.8-2.5-0.5c0,0,0,0-0.1,0l0,0c0,0,0,0,0,0
	c-0.1-0.4-0.4-0.9-1.2-1.3c-0.7-0.3-1.4-0.4-2.2-0.1c0,0,0,0,0,0c-0.7-0.6-1.6-0.7-1.8-0.7c-1.1-0.1-2.5,0.4-3.4,1.3c0,0,0,0,0,0
	c-4.8,2.6-11.1,5.4-13.5,6.5c0,0,0,0,0,0c0,0,0,0,0,0c-1.3-2.5-2.5-5.2-3.4-8c-0.3-0.8-0.5-1.6-0.7-2.4c0,0,0,0,0,0c0,0,0,0,0,0
	c7.1-0.8,12.8-1.6,16.9-2.5c4.3-0.9,7.1-1.7,8.5-2.7l0,0c1.7-1.2,2.8-1.8,4.4-1.6c0.5,0,0.9,0.1,1.4,0.2c0,0,0,0,0,0c0,0,0,0,0,0
	c-0.4,0.1-0.8,0.3-1.1,0.6c-0.7,0.5-1.1,0.8-1.4,1.1c-0.4,0.3-0.7,0.5-1.1,0.8c-0.3,0.2-0.8,0.4-1.2,0.6c-1,0.5-1.7,0.8-1.9,1.5l0,0
	l0,0c-0.2,0.7-0.1,1.3,0.3,1.9c0.7,1,1.9,0.9,2.9,0.9c1.1-0.1,2.4-0.5,3.4-1c0.3-0.2,0.7-0.4,0.9-0.6c0.4-0.3,0.8-0.5,1.1-0.6
	c0,0,0,0,0,0c0.9-0.2,1.9-0.1,3,0.3c1,0.4,2,1,3,1.6c2.2,1.5,3.9,3.5,4.4,4c0,0,0,0,0,0c0,0.3-0.1,0.6-0.4,0.9
	c-0.3,0.3-0.7,0.4-1.2,0.4c0,0,0,0,0,0c-0.7-0.9-2.5-3.2-4.8-4.3c-0.4-0.2-0.8,0-1,0.3C44.8,88.1,44.8,88.3,44.9,88.5 M39.4,96
	C39.4,96,39.4,96,39.4,96L39.4,96c-0.4,0.3-1.3,0.9-2.1,0.9c-0.1,0-0.2,0-0.3,0c-0.2,0-0.4-0.1-0.6-0.4c0,0,0,0,0,0
	c0.4-0.8,1.2-1.4,2-1.8c1-0.6,1.4-0.2,1.5-0.2c0.3,0.3,0.3,0.5,0.3,0.6C40.1,95.4,39.6,95.8,39.4,96L39.4,96L39.4,96z M31,91.9
	c1-1,1.8-1.3,2.5-0.9c0.2,0.1,0.5,0.3,0.5,0.5c0,0.1,0,0.2,0,0.2c0,0,0,0,0,0c-0.2,0.1-0.3,0.2-0.5,0.3c-1.1,0.8-1.7,1.6-2,2.4
	c0,0,0,0,0,0h0c-0.2,0-0.3-0.1-0.5-0.1c-0.9-0.3-0.9-0.8-1-0.9C30.1,92.9,30.3,92.5,31,91.9 M30,90.8c-0.5,0.5-1,1.1-1.2,1.9
	c0,0,0,0,0,0h0c-0.2,0-0.3,0-0.4,0c-0.5-0.1-0.9-0.3-1-0.5c0-0.1-0.2-0.4,0.2-0.9c0.5-0.7,1.7-1.2,2.5-1.1c0,0,0,0,0.1,0
	c0.1,0,0.3,0,0.5,0.1c0,0,0,0,0,0c0,0,0,0,0,0C30.3,90.5,30.2,90.7,30,90.8 M34.4,93.2c1.3-0.9,2-1.3,2.7-0.7
	c0.2,0.2,0.3,0.3,0.3,0.5c0,0.3-0.3,0.6-0.6,0.8c-0.8,0.6-1.4,1.2-1.7,2c0,0,0,0,0,0c-0.2,0-0.5,0.1-0.8,0.1c-0.4,0-0.7-0.1-1-0.2
	c-0.1-0.1-0.3-0.2-0.3-0.6C32.9,94.4,33.8,93.6,34.4,93.2 M49.2,28.7C49.2,28.7,49.1,28.7,49.2,28.7c0-0.1,0-0.1,0-0.1
	c0.6-0.2,1.2-0.3,1.8-0.3c1.7-0.1,3.2,0.4,4.3,1.6c0,0,0,0,0,0.1c0,0,0,0,0,0c-0.4,0.1-0.9,0.3-1.6,0.3c-0.1,0-0.2,0-0.2,0
	C52,30.3,50.5,29.8,49.2,28.7 M51.2,31.1H28.3c3.7-1.8,7.5-2.8,11.5-2.8C43.7,28.4,47.5,29.3,51.2,31.1 M54.1,26.4
	c-0.5,0.2-1.3,0.5-2.2,0.7c-0.6,0.1-1.1,0.2-1.6,0.2c-1.2,0-2.3-0.3-3.2-0.9c0,0,0,0,0-0.1c0,0,0,0,0-0.1c0.4-0.2,1-0.5,1.9-0.7
	c0.9-0.2,1.8-0.2,2.7-0.1c0.8,0.1,1.7,0.4,2.5,0.9C54.1,26.3,54.1,26.4,54.1,26.4C54.1,26.4,54.1,26.4,54.1,26.4 M48.6,24.5
	c-0.6,0.3-1.6,0.6-3.1,0.8c-0.2,0-0.4,0.2-0.4,0.4c0,0.2,0,0.4,0.2,0.5c0,0,1.2,0.8,2,1.9c0,0,0,0,0,0.1c0,0,0,0-0.1,0
	c-1.4,0-4-0.5-5.9-2.7c0,0,0-0.1,0-0.1c0.3-0.3,0.8-0.7,1.6-1c1.5-0.6,3.4-0.6,5.6,0C48.6,24.4,48.6,24.4,48.6,24.5
	C48.6,24.5,48.6,24.5,48.6,24.5 M42.3,23.5c-0.5,0.4-1.4,1-2.9,1.4c-0.2,0.1-0.3,0.2-0.3,0.4c0,0.2,0.1,0.4,0.3,0.5
	c0,0,1.3,0.5,2.3,1.3c0,0,0,0,0,0.1c0,0,0,0-0.1,0c-0.4,0-0.8,0.1-1.3,0.1c-1.4,0-3.5-0.3-5-1.4c0,0,0-0.1,0-0.1
	c0.2-0.3,0.7-0.8,1.4-1.3c1.4-0.9,3.3-1.2,5.6-1.1C42.3,23.4,42.3,23.4,42.3,23.5C42.3,23.4,42.3,23.5,42.3,23.5 M35.9,23.6
	c-0.4,0.5-1.1,1.3-2.6,2c-0.2,0.1-0.3,0.3-0.3,0.5c0,0.2,0.2,0.4,0.4,0.4c0,0,1.3,0.3,2.5,0.8c0,0,0,0,0,0.1c0,0,0,0,0,0.1
	c-0.6,0.2-1.1,0.3-1.7,0.4C33.6,28,33,28,32.5,28c-1.1,0-2.1-0.2-3-0.6c0,0,0,0,0-0.1c0.2-0.4,0.5-1,1.1-1.6
	C31.7,24.6,33.5,23.8,35.9,23.6C35.8,23.5,35.8,23.5,35.9,23.6C35.9,23.5,35.9,23.6,35.9,23.6 M29.8,24.6L29.8,24.6
	c-0.3,0.7-0.9,1.8-2.3,2.9c-0.2,0.1-0.2,0.3-0.1,0.5c0.1,0.2,0.2,0.3,0.4,0.3h0c0.1,0,0.6,0,1.3,0.1c0.5,0.1,1,0.2,1.4,0.3
	c0,0,0,0,0,0.1c0,0,0,0,0,0.1c-0.5,0.3-1.1,0.5-1.6,0.7c-1.1,0.4-2.1,0.6-3,0.6c-0.6,0-1.2-0.1-1.8-0.2c0,0,0,0,0-0.1
	C24.2,28.7,25.2,26.1,29.8,24.6C29.8,24.6,29.8,24.6,29.8,24.6C29.8,24.6,29.8,24.6,29.8,24.6 M53.9,32.7c1.3,0.8,2.5,1.7,3.6,2.7
	H21.9c1.2-1,2.4-1.9,3.6-2.7H53.9z M59.2,37c0.9,0.9,1.7,1.8,2.5,2.7H44.3c-2.3-1.7-4.8-1.6-5.1-1.5c-0.3,0-2.7,0.1-4.8,1.5H17.8
	c0.8-1,1.6-1.9,2.5-2.7H59.2z M34,57.1c-1.5-0.1-2.7,0.3-4.2,0.9c0,0,0,0,0,0c0,0,0,0,0,0c0-0.1,0-0.3,0.1-0.4
	c0.8-4.1,2.4-6.8,3.6-8.4c0.9-1.2,1.7-2,2.1-2.3c0.1-0.1,0.2-0.2,0.4-0.3c0.3-0.3,0.4-0.8,0.1-1.2c-0.3-0.4-0.8-0.4-1.1-0.2
	c0,0-0.2,0.1-0.4,0.3c-0.6,0.4-1.3,0.6-1.7,0.4c-0.3-0.2-0.5-0.6-0.4-1.1c0.2-0.9,1.1-2.1,1.5-2.5c0,0,0,0,0,0
	c2-2.4,5.2-2.4,5.2-2.4c0,0,1.1-0.1,2.3,0.3c1.7,0.6,3,1.7,3.9,3.5c1.3,2.5,2.2,5,2.9,7.6c0,0,0,0,0,0c0,0,0,0,0,0
	c-1.8-0.6-3.3-1.8-3.3-1.9c-0.4-0.3-0.9-0.2-1.2,0.1c-0.3,0.4-0.2,0.9,0.1,1.2c0.1,0.1,2.3,1.9,4.9,2.4c0,0,0,0,0,0
	c0.2,0.9,0.4,1.9,0.6,3.1c0,0,0,0,0,0c0,0,0,0,0,0c-0.9-0.5-1.9-0.8-2.8-1c-0.6-0.1-1.1-0.3-1.5-0.5c-1.8-0.7-3.3-1.9-3.4-2
	c-0.4-0.3-0.9-0.2-1.2,0.1c-0.3,0.4-0.2,0.9,0.1,1.2c0.1,0.1,1.7,1.4,3.8,2.2c0.5,0.2,1.1,0.4,1.7,0.5c2.3,0.6,3.4,1.1,3.4,2.3
	c0,0,0,0,0,0c0,0.2-0.2,0.4-0.3,0.5c-0.7,0.7-2,0.9-2.7,0.9c-0.1,0-2.4,0-2.4,0c-0.4,0-2.6-0.1-4.6-1.3C37.3,58,35.6,57.3,34,57.1
	 M38.5,60.8C38.5,60.8,38.5,60.8,38.5,60.8l-6.8,0c-0.7,0-1.2-0.2-1.5-0.5c-0.1-0.1-0.2-0.2-0.2-0.3c0,0,0,0,0,0
	C33,58.4,34.5,58.2,38.5,60.8C38.5,60.7,38.5,60.8,38.5,60.8 M40.8,66.9H72c0.1,1,0.1,2,0.2,2.9H40.8V66.9z M40.8,65.3v-2.7h30.8
	c0.1,0.9,0.3,1.8,0.4,2.7H40.8z M50.6,61c0.3-0.3,0.5-0.8,0.7-1.2c0-0.1,0-0.1,0-0.2c0.1-0.4,0.1-0.9,0.1-1.4h19.3
	c0.2,0.9,0.4,1.8,0.6,2.7H50.6z M51.2,56.8c-0.1-0.9-0.3-1.8-0.5-2.7h18.7c0.1,0.2,0.2,0.5,0.2,0.7c0.2,0.7,0.4,1.4,0.6,2H51.2z
	 M50.4,52.5c-0.2-0.9-0.4-1.8-0.7-2.7h18.1c0.4,0.9,0.8,1.8,1.1,2.7H50.4z M49.2,48.2c-0.3-0.9-0.6-1.8-1-2.7h17.4
	c0.5,0.9,1,1.8,1.4,2.7H49.2z M47.5,44c-0.2-0.4-0.3-0.7-0.5-1.1c-0.3-0.6-0.7-1.2-1.1-1.7h16.9c0.7,0.9,1.3,1.8,1.9,2.7H47.5z
	 M32.6,41.2c-0.4,0.4-1.3,1.5-1.7,2.7H14.7c0.6-0.9,1.2-1.8,1.9-2.7H32.6z M30.7,45.5c0.1,0.8,0.5,1.5,1.2,1.9
	c0.2,0.1,0.3,0.2,0.5,0.2c0,0,0,0,0,0c0,0,0,0,0,0c-0.1,0.2-0.3,0.4-0.4,0.6H12.4c0.5-0.9,0.9-1.8,1.4-2.7H30.7z M31,49.8
	c-0.5,0.8-0.9,1.7-1.4,2.7H10.6c0.3-0.9,0.7-1.8,1.1-2.7H31z M29,54c-0.3,0.8-0.5,1.7-0.8,2.7H9.2c0.2-0.7,0.4-1.4,0.6-2
	c0.1-0.2,0.2-0.5,0.2-0.7H29z M28,58.3c0,0.4,0,0.8,0,1.1c0,0.1,0,0.1,0,0.2c0.1,0.6,0.3,1,0.5,1.5H8.2c0.2-0.9,0.4-1.8,0.6-2.7H28z
	 M38.7,62.6v2.7H7.6c0.1-0.9,0.2-1.8,0.4-2.7H38.7z M38.7,66.9v2.9H7.2c0-1,0.1-2,0.2-2.9H38.7z M38.7,71.4v6.3c0,0,0,0,0,0
	c0,0,0,0,0,0c-0.1,0-0.1,0-0.2,0c-1.8,0-3.1,0.7-4.8,1.9c-2.5,1.7-10.9,3.3-25,4.9c0,0,0,0,0,0c-1-4.2-1.5-8.5-1.5-13
	c0-0.1,0-0.1,0-0.2H38.7z M48.8,85.4c-1.5-1-4.4-2.9-7.1-2.1c-0.5,0.1-1,0.4-1.6,0.8c-0.3,0.2-0.5,0.4-0.9,0.5
	c-0.9,0.5-2,0.8-2.7,0.8c-0.8,0-1.4,0.1-1.6-0.3c-0.2-0.3-0.2-0.4-0.2-0.5c0,0,0,0,0,0c0.2-0.2,0.8-0.5,1.2-0.7
	c0.5-0.2,0.9-0.5,1.3-0.7c0.5-0.3,0.9-0.6,1.2-0.9c0.3-0.3,0.7-0.6,1.3-1c0.9-0.6,1.8-0.6,3.2-0.7c0.2,0,0.4,0,0.7,0
	c0.2,0,0.3,0,0.5,0c1.5-0.1,2.9,0.4,4.9,1.2c0.6,0.2,1.3,0.5,2,0.7c0,0,0,0,0,0c0,0,2.7,0.9,6.5,1.8c3.2,0.8,8,1.8,12.5,2
	c0,0,0,0,0,0c0,0,0,0,0,0c-0.2,0.8-0.4,1.5-0.7,2.2c-0.9,2.9-2.1,5.7-3.5,8.3c0,0,0,0,0,0c0,0,0,0,0,0c-2.2-0.9-7.7-3.3-11.2-5.9
	c-0.7-0.5-1.2-1-1.5-1.3c0,0,0,0,0,0c0,0,0,0,0,0l0,0c-0.1-0.1-0.1-0.1-0.1-0.2C52.5,88.5,50.9,86.7,48.8,85.4 M51.7,81
	c-0.7-0.2-1.4-0.5-2-0.7c-2.1-0.8-3.6-1.3-5.4-1.2c-0.1,0-0.2,0-0.3,0c0,0,0,0,0,0c-1-0.5-1.9-0.8-3.2-1.1c0,0,0,0,0,0v-6.6h31.5
	c0,0.1,0,0.1,0,0.2c0,4.5-0.5,8.9-1.5,13.1c0,0,0,0,0,0h0C62.2,84.3,52.1,81.1,51.7,81 M74.6,50.7C74.7,50.6,74.7,50.6,74.6,50.7
	c0.1,0,0.1,0,0.1,0c0.4,1.1,0.6,2.2,0.6,3.2c0,1-0.1,2-0.4,2.8c-0.3,1-0.8,1.7-1,1.9c0,0,0,0,0,0c0,0,0,0,0,0
	c-1.3-0.8-2.3-2.1-2.9-3.8c-0.2-0.5-0.4-1.1-0.5-1.6c0,0,0,0,0-0.1c0,0,0,0,0.1,0c1.1,0.7,2.1,1.7,2.1,1.7c0.1,0.1,0.3,0.2,0.5,0.1
	c0.2-0.1,0.3-0.2,0.3-0.4C73.5,52.8,74.1,51.5,74.6,50.7 M71.1,49.4c0.2-0.1,0.3-0.3,0.3-0.5c-0.1-1.8,0.4-3.2,0.8-4c0,0,0,0,0.1,0
	c0,0,0,0,0.1,0c0.5,1.1,0.8,2.1,0.9,3.1c0.1,1,0.1,2-0.1,2.9c-0.2,1-0.7,1.8-0.8,2c0,0,0,0-0.1,0c0,0,0,0,0,0
	c-1.4-0.7-2.5-1.8-3.3-3.5c-0.3-0.5-0.5-1-0.7-1.6c0,0,0,0,0-0.1c0,0,0,0,0.1,0c1.2,0.6,2.2,1.5,2.2,1.5
	C70.7,49.5,70.9,49.5,71.1,49.4L71.1,49.4 M68.6,44.2c0.2-0.1,0.3-0.3,0.2-0.5c-0.3-1.8,0-3.2,0.4-4c0,0,0,0,0.1,0h0c0,0,0,0,0.1,0
	c0.6,1,1,2,1.3,3c0.3,1,0.3,1.9,0.2,2.8c-0.1,1.1-0.5,1.8-0.6,2.1c0,0,0,0-0.1,0c0,0,0,0,0,0c-1.5-0.5-2.8-1.6-3.8-3.1
	c-0.3-0.5-0.6-1-0.8-1.6c0,0,0,0,0-0.1c0,0,0,0,0.1,0c1.3,0.4,2.4,1.3,2.4,1.3C68.2,44.3,68.4,44.3,68.6,44.2 M64.9,39.3
	c0.2,0.1,0.4,0.1,0.6,0c0.2-0.1,0.2-0.3,0.2-0.5c-0.5-1.6-0.4-3.1-0.3-4c0,0,0,0,0,0c0,0,0,0,0.1,0c0.7,0.9,1.3,1.8,1.7,2.7
	c0.4,0.9,0.6,1.9,0.7,2.8c0.1,1-0.1,1.8-0.2,2.2c0,0,0,0-0.1,0h0c-1.5-0.3-2.9-1.1-4.1-2.4c-0.4-0.4-0.8-0.9-1.2-1.5c0,0,0,0,0-0.1
	s0,0,0.1,0C63.7,38.6,64.8,39.3,64.9,39.3 M61.1,35c0.2,0.1,0.4,0,0.5-0.1c0.1-0.1,0.2-0.4,0.1-0.5c-0.8-1.6-1-3-0.9-4
	c0,0,0,0,0-0.1c0,0,0,0,0.1,0c0.9,0.8,1.6,1.6,2.1,2.4c0.5,0.9,0.9,1.7,1.1,2.6c0.2,1.1,0.2,1.9,0.1,2.2c0,0,0,0.1-0.1,0.1
	c0,0-0.1,0-0.1,0c-1.7,0-3.2-0.9-4.2-1.7c-0.5-0.4-1-0.8-1.5-1.3c0,0,0,0,0-0.1c0,0,0,0,0.1,0C59.8,34.5,61.1,35,61.1,35 M59.6,31.1
	c0.4,1,0.4,2,0.4,2.5c0,0,0,0.1-0.1,0.1c-0.1,0-0.2,0-0.3,0c-2.1,0-4.5-1.4-5.8-2.3c0,0,0,0,0-0.1c0,0,0,0,0,0c1.3-0.2,2.5,0,2.6,0
	c0.2,0,0.4,0,0.5-0.2c0.1-0.2,0.1-0.4,0-0.6c-0.8-1-1.3-2.2-1.6-3c0,0,0,0,0-0.1c0,0,0,0,0.1,0C57.5,28.1,58.9,29.4,59.6,31.1
	 M21,25.3C21,25.3,21,25.3,21,25.3C21,25.3,21,25.3,21,25.3c0.4-0.3,0.8-0.5,1.3-0.6c1.2-0.4,2.4-0.7,3-0.8c1.3-0.3,2.2-0.9,2.3-0.9
	c0.1,0,0.1-0.1,0.1-0.2c0-0.1-0.1-0.1-0.1-0.1l-6.9-1c0,0,0,0,0,0c0,0,0,0,0,0l6.9-1c0.1,0,0.1-0.1,0.1-0.2c0-0.1-0.1-0.2-0.1-0.2
	c0,0-1.3-0.2-2.7-0.8c-0.4-0.2-0.7-0.4-1.1-0.5c-0.8-0.4-1.5-0.8-2.7-1c0,0,0,0,0,0c0,0,0,0,0,0c0.5,0,0.9,0,1.4,0
	c1.3,0.1,2.5,0.3,3.1,0.4c1.3,0.2,2.4,0.1,2.4,0c0.1,0,0.1-0.1,0.1-0.1c0-0.1,0-0.1-0.1-0.2l-6-3.6c0,0,0,0,0,0c0,0,0,0,0,0l6.8,1.7
	c0.1,0,0.2,0,0.2-0.1c0-0.1,0-0.2-0.1-0.2c0,0-1.1-0.7-2.2-1.8c-0.3-0.3-0.5-0.6-0.8-0.9c-0.6-0.7-1.1-1.3-2.1-2c0,0,0,0,0,0
	c0,0,0,0,0,0c0.4,0.1,0.9,0.3,1.3,0.5c1.2,0.6,2.2,1.2,2.7,1.5c1.1,0.7,2.2,1,2.2,1c0.1,0,0.1,0,0.2-0.1c0-0.1,0-0.1,0-0.2L26.2,8
	c0,0,0,0,0,0c0,0,0,0,0,0l5.6,4.2c0.1,0.1,0.2,0,0.2,0c0.1-0.1,0.1-0.2,0-0.2c0,0-0.8-1.1-1.3-2.5c-0.2-0.4-0.3-0.8-0.4-1.1
	c-0.3-0.9-0.5-1.6-1.2-2.7c0,0,0,0,0,0c0,0,0,0,0,0c0.4,0.3,0.7,0.6,1,1c0.9,1,1.6,1.9,1.9,2.4c0.8,1.1,1.7,1.7,1.7,1.8
	c0.1,0,0.1,0,0.2,0c0.1,0,0.1-0.1,0.1-0.2l-1.7-6.8c0,0,0,0,0,0c0,0,0,0,0,0l3.6,6c0,0.1,0.1,0.1,0.2,0.1c0.1,0,0.1-0.1,0.1-0.2
	c0-0.1-0.3-1.3-0.3-2.8c0-0.4,0.1-0.8,0.1-1.2c0.1-0.9,0.2-1.7-0.1-2.9c0,0,0,0,0,0c0,0,0,0,0,0c0.2,0.4,0.4,0.9,0.6,1.3
	c0.4,1.2,0.7,2.4,0.8,3c0.3,1.3,0.8,2.2,0.9,2.3c0,0.1,0.1,0.1,0.2,0.1c0.1,0,0.1-0.1,0.1-0.1l1-6.9c0,0,0,0,0,0c0,0,0,0,0,0l1,6.9
	c0,0.1,0.1,0.1,0.2,0.1c0.1,0,0.2-0.1,0.2-0.1c0-0.1,0.2-1.3,0.8-2.7c0.2-0.4,0.4-0.7,0.5-1.1c0.4-0.8,0.8-1.5,1-2.7c0,0,0,0,0,0
	c0,0,0,0,0,0c0,0.5,0,1,0,1.4c-0.1,1.3-0.3,2.5-0.4,3.1c-0.2,1.3-0.1,2.4,0,2.5c0,0.1,0.1,0.1,0.1,0.1c0.1,0,0.1,0,0.2-0.1l3.6-6
	c0,0,0,0,0,0c0,0,0,0,0,0l-1.7,6.8c0,0.1,0,0.2,0.1,0.2c0.1,0,0.2,0,0.2-0.1c0,0,0.7-1.1,1.8-2.2c0.3-0.3,0.6-0.5,0.9-0.8
	c0.7-0.6,1.3-1.1,2-2.1c0,0,0,0,0,0c0,0,0,0,0,0c-0.1,0.5-0.3,0.9-0.5,1.3c-0.6,1.2-1.2,2.2-1.5,2.7c-0.7,1.1-1,2.2-1,2.2
	c0,0.1,0,0.1,0.1,0.2c0.1,0,0.1,0,0.2,0L53.3,8c0,0,0,0,0,0c0,0,0,0,0,0l-4.2,5.6c-0.1,0.1,0,0.2,0,0.2c0.1,0.1,0.2,0.1,0.2,0
	c0,0,1.1-0.8,2.5-1.3c0.4-0.2,0.8-0.3,1.1-0.4c0.9-0.3,1.6-0.5,2.6-1.2c0,0,0,0,0,0c0,0,0,0,0,0c-0.3,0.4-0.6,0.7-1,1
	c-1,0.9-1.9,1.6-2.4,1.9c-1.1,0.8-1.7,1.7-1.8,1.7c0,0.1,0,0.1,0,0.2c0,0.1,0.1,0.1,0.2,0.1l6.8-1.7c0,0,0,0,0,0c0,0,0,0,0,0l-6,3.6
	c-0.1,0-0.1,0.1-0.1,0.2c0,0.1,0.1,0.1,0.2,0.1c0.1,0,1.3-0.3,2.8-0.3c0.4,0,0.8,0.1,1.2,0.1c0.9,0.1,1.7,0.2,2.9-0.1c0,0,0,0,0,0
	c0,0,0,0,0,0c-0.4,0.2-0.9,0.4-1.3,0.6c-1.2,0.4-2.4,0.7-3,0.8c-1.3,0.3-2.2,0.9-2.3,0.9c-0.1,0-0.1,0.1-0.1,0.2
	c0,0.1,0.1,0.1,0.1,0.1l6.9,1c0,0,0,0,0,0c0,0,0,0,0,0l-6.9,1c-0.1,0-0.1,0.1-0.1,0.2c0,0.1,0.1,0.2,0.1,0.2c0,0,1.3,0.2,2.7,0.8
	c0.4,0.2,0.7,0.4,1.1,0.5c0.8,0.4,1.5,0.8,2.7,1c0,0,0,0,0,0c0,0,0,0,0,0c-0.3,0-0.5,0-0.8,0c-0.2,0-0.4,0-0.6,0
	c-1.3-0.1-2.5-0.3-3.1-0.4c-0.1,0-0.1,0-0.2,0c0,0,0,0,0,0c-1.1-0.5-2.2-0.7-3.3-0.7h-0.1c0,0,0,0,0,0c0,0,0,0,0,0c0,0,0-0.1,0-0.1
	c0-0.2-0.2-0.3-0.3-0.4c-1.3-0.4-2.5-0.7-3.6-0.8c-0.1,0-0.1,0-0.2,0l0,0c0,0-0.1,0-0.1,0c-0.1,0-0.1,0-0.2,0l0,0c0,0,0,0-0.1,0
	c-0.1,0-0.2,0-0.3,0h-0.1c-0.5,0-1,0-1.5,0.1c0,0,0,0,0,0c0,0,0,0,0,0c0,0,0,0,0,0c0-0.1,0-0.1,0-0.2c0,0,0,0,0,0
	c-0.1-0.2-0.2-0.3-0.4-0.3c-0.1,0-0.2,0-0.3,0c0,0,0,0-0.1,0l0,0c-0.1,0-0.1,0-0.2,0c0,0-0.1,0-0.1,0c-0.1,0-0.1,0-0.2,0
	c-1.3-0.1-2.5,0-3.6,0.2c-0.3,0.1-0.6,0.1-0.9,0.2c0,0,0,0-0.1,0c0,0-0.1,0-0.1,0l-0.1,0c-0.1,0-0.1,0-0.2,0.1l0,0
	c-0.1,0-0.3,0.1-0.4,0.2c0,0,0,0,0,0c0,0,0,0,0,0l0,0c0,0,0,0,0,0c0,0,0,0,0,0l0,0c0-0.2,0-0.3-0.1-0.4l0,0c0,0,0,0,0,0l0,0
	c-0.1-0.1-0.2-0.1-0.4-0.1c-1.7,0.1-3.2,0.5-4.4,1c-0.4,0.2-0.8,0.4-1.2,0.6c0,0,0,0,0,0c0,0,0,0,0,0c0-0.1,0-0.1,0-0.1v0
	c0,0,0,0,0,0c0-0.2-0.1-0.3-0.2-0.4l0,0c0,0,0,0,0,0l0,0c0,0,0,0,0,0l0,0c-0.1-0.1-0.2-0.1-0.4,0c-1.6,0.5-3.1,1.1-4.2,1.9
	c0,0,0,0-0.1,0l0,0c0,0,0,0,0,0c-0.3,0-0.7,0-1,0c-0.3,0-1.1-0.1-1.2-0.1C23,25.1,22.3,25,21,25.3 M23.7,26.7L23.7,26.7
	C23.7,26.7,23.7,26.7,23.7,26.7C23.8,26.7,23.8,26.7,23.7,26.7c0,1-0.2,2.4-1.2,3.9c-0.1,0.2-0.1,0.4,0,0.5c0.1,0.2,0.3,0.2,0.5,0.2
	c0,0,1.3-0.3,2.6-0.2c0,0,0,0,0.1,0c0,0,0,0.1,0,0.1c-1.1,0.9-3.3,2.4-5.7,2.4c-0.1,0-0.2,0-0.3,0c0,0-0.1,0-0.1-0.1
	C19.5,32.4,19.8,29.5,23.7,26.7 M15.5,35.4c0.2-0.9,0.6-1.8,1.1-2.6c0.6-0.8,1.3-1.7,2.2-2.4c0,0,0,0,0.1,0c0,0,0,0,0,0.1
	c0,0.9-0.1,2.4-0.9,4c-0.1,0.2-0.1,0.4,0.1,0.5c0.1,0.1,0.3,0.2,0.5,0.1c0,0,1.2-0.4,2.5-0.5c0,0,0,0,0.1,0c0,0,0,0,0,0.1
	c-0.5,0.5-1,0.9-1.5,1.3c-1,0.8-2.5,1.7-4,1.7c-0.1,0-0.1,0-0.2,0c0,0-0.1,0-0.1,0C15.3,37.3,15.2,36.5,15.5,35.4 M14.2,34.7
	L14.2,34.7C14.2,34.7,14.2,34.7,14.2,34.7c0.1,0,0.1,0,0.1,0c0.2,0.9,0.3,2.3-0.3,4.1c-0.1,0.2,0,0.4,0.2,0.5c0.2,0.1,0.4,0.1,0.6,0
	c0,0,1.1-0.8,2.5-0.9c0,0,0,0,0.1,0c0,0,0,0,0,0.1c-0.9,1.3-2.8,3.5-5.3,3.9h0c0,0-0.1,0-0.1,0C11.6,41.3,11.1,38.4,14.2,34.7
	 M8.9,42.6c0.3-1,0.8-2,1.4-2.9c0,0,0,0,0.1,0c0,0,0,0,0.1,0c0.3,0.9,0.6,2.3,0.2,4.1c0,0.2,0.1,0.4,0.2,0.5
	c0.2,0.1,0.4,0.1,0.6-0.1c0,0,1-1,2.5-1.2c0,0,0,0,0.1,0c0,0,0,0,0,0.1c-0.2,0.4-0.5,1-1,1.7c-1.1,1.5-2.4,2.5-3.8,2.9c0,0,0,0,0,0
	c0,0,0,0-0.1,0c-0.1-0.3-0.4-1.1-0.5-2.1C8.5,44.5,8.6,43.6,8.9,42.6 M6.1,48.1c0.1-1,0.5-2,0.9-3.1c0,0,0,0,0.1,0c0,0,0,0,0.1,0
	c0.4,0.8,0.9,2.2,0.8,4c0,0.2,0.1,0.4,0.3,0.5c0.2,0.1,0.4,0.1,0.5-0.1c0,0,1.1-1,2.4-1.5c0,0,0,0,0.1,0c0,0,0,0,0,0.1
	c-0.1,0.5-0.3,1-0.5,1.5C9.9,51,8.6,52.2,7,53c0,0,0,0,0,0c0,0,0,0-0.1,0c-0.2-0.3-0.6-1-0.8-2C5.9,50,5.9,49.1,6.1,48.1 M4.5,50.6
	C4.5,50.6,4.6,50.6,4.5,50.6c0.1,0,0.1,0,0.1,0c0.5,0.8,1.2,2.1,1.3,3.9c0,0.2,0.1,0.4,0.3,0.4c0.2,0.1,0.4,0,0.5-0.2
	c0,0,0.9-1.1,2.2-1.8c0,0,0,0,0.1,0c0,0,0,0,0,0.1c-0.1,0.5-0.2,1.1-0.3,1.6c-0.6,1.7-1.6,3-3.1,4c0,0,0,0,0,0c0,0,0,0,0,0
	c-0.2-0.2-0.7-0.9-1.1-1.9C4.1,55.8,4,54.8,4,53.8C4,52.8,4.2,51.7,4.5,50.6 M2.8,56.6L2.8,56.6C2.8,56.5,2.8,56.5,2.8,56.6
	c0.1-0.1,0.1,0,0.1,0c0.6,0.7,1.4,1.9,1.8,3.7c0,0.2,0.2,0.3,0.4,0.4c0.2,0,0.4,0,0.5-0.2c0.1-0.1,0.8-1.2,1.9-2c0,0,0,0,0.1,0
	c0,0,0,0,0,0.1c0,0.5-0.1,1.1-0.2,1.6c-0.4,1.7-1.2,3.2-2.5,4.3c0,0,0,0,0,0s0,0,0,0c-0.3-0.3-0.8-0.8-1.3-1.8
	c-0.4-0.8-0.7-1.7-0.8-2.8C2.5,58.8,2.6,57.7,2.8,56.6 M1.9,62.5C1.9,62.5,1.9,62.5,1.9,62.5C2,62.4,2,62.4,2,62.5
	c0.6,0.7,1.5,1.8,1.9,3.6c0.1,0.2,0.2,0.3,0.4,0.4c0.2,0,0.4-0.1,0.5-0.3c0,0,0.6-1.2,1.6-2.1c0,0,0,0,0.1,0c0,0,0,0,0,0.1
	c0,0.6-0.1,1.2-0.1,1.8c-0.3,1.8-1,3.3-2.1,4.3c0,0,0,0,0,0c0,0,0,0,0,0c-0.2-0.2-0.9-0.8-1.4-1.7c-0.4-0.8-0.7-1.7-0.9-2.7
	C1.8,64.7,1.8,63.7,1.9,62.5 M1.4,68.7L1.4,68.7C1.4,68.7,1.4,68.7,1.4,68.7c0.1-0.1,0.1-0.1,0.1,0c0.1,0.1,0.3,0.2,0.4,0.4
	c0.5,0.6,1.3,1.6,1.8,3.1c0.1,0.2,0.2,0.3,0.5,0.3c0,0,0,0,0,0c0.2,0,0.4-0.2,0.4-0.4c0,0,0.2-1.3,1.3-2.3c0,0,0,0,0.1,0
	c0,0,0,0,0,0c0.1,0.7,0.2,1.8,0,3c-0.2,1.4-0.8,2.6-1.7,3.4c0,0,0,0,0,0c0,0,0,0,0,0C3.3,75.6,1.1,73.5,1.4,68.7 M1.2,74.8
	C1.2,74.8,1.2,74.8,1.2,74.8c0.2,0.1,0.3,0.2,0.5,0.3c0.6,0.5,1.5,1.5,2.1,2.9c0.1,0.2,0.2,0.3,0.4,0.3l0,0l0,0
	c0.2,0,0.4-0.1,0.4-0.3c0-0.1,0.6-1.4,1.4-2.4c0,0,0,0,0.1,0c0,0,0,0,0,0c0.3,1.3,0.5,3.8-1.4,6.4c0,0,0,0-0.1,0c0,0,0,0,0,0
	C3.7,81.4,1.4,79.6,1.2,74.8C1.2,74.8,1.2,74.8,1.2,74.8 M1.5,81.1L1.5,81.1C1.5,81.1,1.5,81.1,1.5,81.1C1.5,81,1.5,81,1.5,81.1
	c0.9,0.4,2.1,1.2,3.1,2.7C4.7,83.9,4.9,84,5.1,84c0.2,0,0.3-0.2,0.4-0.4c0,0,0,0,0,0c0-0.1,0.3-1.5,1-2.6c0,0,0,0,0.1,0h0
	c0,0,0,0,0.1,0C6.8,81.5,7,82,7.1,82.6c0.4,1.7,0.1,3.4-0.8,5c0,0,0,0-0.1,0c0,0,0,0,0,0c-0.3-0.1-1.1-0.4-1.9-1.2
	c-0.7-0.6-1.3-1.4-1.8-2.3C2.1,83.3,1.7,82.2,1.5,81.1 M2.9,87L2.9,87C2.9,86.9,2.9,86.9,2.9,87C2.9,86.9,3,86.9,2.9,87
	c0.2,0,0.4,0.1,0.6,0.1c0.7,0.4,1.8,1.1,2.7,2.3c0.1,0.2,0.3,0.2,0.5,0.2c0.2,0,0.3-0.2,0.3-0.4c0-0.1,0.2-1.4,0.8-2.6
	c0,0,0,0,0.1,0c0,0,0,0,0.1,0c0.6,1.3,1.4,3.9,0.2,6.5c0,0,0,0-0.1,0c0,0,0,0,0,0C7,92.8,4.3,91.5,2.9,87 M6.4,95.6
	c-0.6-0.8-1.2-1.7-1.7-2.8c0,0,0,0,0-0.1c0,0,0,0,0.1,0c0.2,0,0.3,0.1,0.5,0.2c0.8,0.3,1.9,0.9,3,2C8.5,95,8.7,95.1,8.9,95
	c0.2-0.1,0.3-0.2,0.3-0.4c0,0,0-1.4,0.5-2.7c0,0,0,0,0.1,0c0,0,0,0,0.1,0c0.3,0.5,0.5,1,0.7,1.6c0.6,1.7,0.7,3.3,0.3,4.8
	c0,0,0,0-0.1,0l0,0c-0.3-0.1-1.1-0.2-2.1-0.8C7.8,97.1,7.1,96.4,6.4,95.6 M7.3,98.4C7.3,98.4,7.3,98.4,7.3,98.4
	C7.3,98.3,7.3,98.3,7.3,98.4c1,0.1,2.4,0.5,3.8,1.6c0.2,0.1,0.4,0.1,0.5,0c0.2-0.1,0.3-0.3,0.2-0.5c0-0.1-0.1-1.3,0.1-2.6
	c0,0,0,0,0,0c0,0,0,0,0.1,0c0.3,0.5,0.6,1,0.9,1.5c0.6,1.1,1.2,2.9,0.9,4.7c0,0,0,0.1-0.1,0.1c-0.4,0-1.2-0.1-2.1-0.5
	c-0.8-0.4-1.6-0.9-2.4-1.6C8.5,100.3,7.9,99.4,7.3,98.4 M12.6,106c-0.8-0.6-1.5-1.4-2.2-2.4c0,0,0,0,0-0.1c0,0,0,0,0.1,0
	c0.9,0.1,2.3,0.3,3.9,1.3c0.2,0.1,0.4,0.1,0.5,0c0.2-0.1,0.2-0.3,0.2-0.5c0,0-0.3-1.3-0.2-2.6c0,0,0,0,0-0.1c0,0,0,0,0.1,0
	c1,1.2,2.6,3.5,2.4,5.9c0,0,0,0.1-0.1,0.1c-0.1,0-0.2,0-0.2,0c-0.4,0-1.1-0.1-1.9-0.3C14.3,107.1,13.4,106.6,12.6,106 M21.3,111.7
	c-0.1,0-0.4,0.1-0.8,0.1c-0.4,0-0.8,0-1.2-0.1c-1.7-0.3-3.4-1.3-5.2-3c0,0,0,0,0-0.1c0,0,0,0,0,0c0.9-0.1,2.4-0.1,4.1,0.5
	c0.2,0.1,0.4,0,0.5-0.1c0.1-0.1,0.2-0.3,0.1-0.5c0,0-0.5-1.2-0.6-2.6c0,0,0,0,0-0.1c0,0,0,0,0.1,0C19.5,106.9,21.5,109,21.3,111.7
	C21.3,111.7,21.3,111.7,21.3,111.7 M32.8,116.8c-1.3-0.4-2.7-0.8-4-1.4c-2.2-0.9-4.4-2.2-6.5-3.6c0,0,0,0,0,0c0-0.8-0.1-1.6-0.3-2.4
	c0,0,0,0,0,0c0,0,0,0,0,0c1.6,1.3,3,2.3,4.5,3.2c1.8,1,3.6,1.8,5.5,2.4v0l0.5,0.1c0,0.7,0.1,1.3,0.5,1.8L32.8,116.8z M35.9,115.3
	c-0.2,0.7-0.2,1.3,0.1,2c0,0,0,0.1,0,0.1c0,0,0,0-0.1,0c0,0,0,0,0,0c-0.8-0.3-1.5-0.7-1.8-1.1c-0.3-0.4-0.5-0.9-0.4-1.4
	c0-0.4,0.2-0.7,0.5-0.9c0.5-0.3,1.5-0.5,2.7-0.3c0,0,0.1,0,0.1,0.1c0,0,0,0.1,0,0.1C36.5,114.2,36.1,114.7,35.9,115.3 M39.7,121.3
	c-0.9,0-1.6-0.7-1.6-1.6c0-0.9,0.7-1.6,1.6-1.6c0.9,0,1.6,0.7,1.6,1.6C41.4,120.6,40.6,121.3,39.7,121.3 M41.8,117.5
	c0,0-0.1,0-0.1,0c-0.5-0.5-1.2-0.7-1.9-0.7c-0.7,0-1.4,0.3-1.9,0.7c0,0,0,0-0.1,0c0,0,0,0-0.1,0c-0.4-0.5-0.9-1.1-0.6-1.8
	c0.5-1.5,2.6-1.5,2.6-1.5h0c0.1,0,0.6,0,1.1,0.2c0.8,0.2,1.3,0.7,1.5,1.3C42.6,116.4,42.2,117.1,41.8,117.5 M45.3,116.3
	c-0.4,0.5-1,0.8-1.8,1.1c0,0,0,0,0,0c0,0,0,0-0.1,0c0,0,0-0.1,0-0.1c0.3-0.7,0.4-1.4,0.1-2c-0.2-0.6-0.6-1.1-1.1-1.5
	c0,0,0-0.1,0-0.1c0,0,0-0.1,0.1-0.1c0.9-0.1,2.1-0.1,2.7,0.3c0.3,0.2,0.5,0.5,0.5,0.9C45.8,115.4,45.7,115.9,45.3,116.3 M57.2,111.7
	C57.2,111.7,57.2,111.8,57.2,111.7c-0.5,0.4-2.2,1.7-4.8,3c-1.8,0.9-3.7,1.6-5.5,2.1l-0.4,0.1c0.4-0.6,0.6-1.2,0.5-1.9l0.5-0.2v0
	c1.9-0.6,3.7-1.4,5.4-2.3c1.6-0.9,3.1-2.1,4.5-3.2c0,0,0,0,0,0c0,0,0,0,0,0C57.2,110.1,57.1,110.9,57.2,111.7 M52.3,111.5
	c-1.8,1-3.6,1.8-5.5,2.3l-0.2,0.1c-0.2-0.4-0.5-0.7-0.8-0.9c-1.8-1.2-5.1-0.3-6.1,0c0,0,0,0,0,0c-1-0.3-4.4-1.1-6.1,0
	c-0.3,0.2-0.6,0.5-0.8,0.9l-0.3-0.1c-1.8-0.6-3.6-1.3-5.3-2.3c-3.9-2.2-7.3-5.3-10.3-9.2c-1-1.4-2-2.8-2.9-4.4c0,0,0,0,0,0
	c0,0,0,0,0,0c2.1-0.9,7.3-3.3,11.9-5.6c0,0,0,0,0,0c0,0,0,0,0,0c0,0.2,0.1,0.4,0.2,0.6c0.4,0.9,1.4,1.2,2.1,1.3
	c0.2,0,0.5,0.1,0.7,0.1c0,0,0,0,0,0c0.3,0.7,0.9,1.3,1.8,1.5c0.3,0.1,0.6,0.2,1,0.2c0,0,0,0,0,0c0.2,0.4,0.4,0.7,0.8,1
	c0.9,0.6,2.1,0.5,2.8,0.4c0,0,0,0,0,0c0.4,0.5,0.9,0.8,1.5,0.9c0.6,0.1,1.2,0,1.9-0.2c0,0,0,0,0,0s0,0,0,0v8c0,0.6,0.5,1,1,1
	c0.6,0,1-0.5,1-1v-8.4c0,0,0,0,0,0c0,0,0,0,0,0c1.1,0.2,2,0,2.5-0.2c0.5-0.2,0.9-0.4,1.1-0.6c0,0,0,0,0,0c1,0.2,1.9-0.1,2.6-0.8
	c0.2-0.2,0.4-0.5,0.6-0.7c0,0,0,0,0,0h0c0.1,0,0.1,0,0.2,0c1.3,0,2.1-0.6,2.5-1.1c0.2-0.2,0.4-0.5,0.5-0.8c0,0,0,0,0,0
	c0.9,0,1.6-0.3,2.1-0.8c0.2-0.2,0.4-0.5,0.6-0.8c0,0,0,0,0,0c0,0,0,0,0,0c3.7,2.9,9.5,5.4,11.8,6.4c0,0,0,0,0,0c0,0,0,0,0,0
	c-0.8,1.4-1.8,2.8-2.7,4.1C59.7,106.2,56.2,109.3,52.3,111.5 M65.3,108.7L65.3,108.7c-2.2,2-4,2.7-5.2,3c-0.4,0.1-0.8,0.1-1.2,0.1
	c-0.4,0-0.6,0-0.8-0.1c0,0,0,0-0.1-0.1c-0.1-1.5,0.5-3.1,1.7-4.5c0.4-0.4,0.8-0.9,1.3-1.3c0,0,0,0,0.1,0c0,0,0,0,0,0.1
	c-0.1,1.3-0.6,2.5-0.6,2.5c-0.1,0.2,0,0.4,0.1,0.5c0.1,0.1,0.3,0.2,0.5,0.1c1.7-0.7,3.1-0.7,4.1-0.5
	C65.3,108.6,65.4,108.6,65.3,108.7C65.4,108.7,65.4,108.7,65.3,108.7 M69.2,103.6c-0.7,0.9-1.4,1.7-2.2,2.4
	c-0.8,0.6-1.7,1.1-2.5,1.4c-0.8,0.3-1.5,0.3-1.9,0.3c-0.1,0-0.2,0-0.2,0c0,0-0.1,0-0.1-0.1c-0.1-1.5,0.3-3,1.3-4.6
	c0.3-0.5,0.7-0.9,1-1.4c0,0,0,0,0.1,0c0,0,0,0,0,0.1c0.1,1.3-0.1,2.5-0.1,2.7c0,0.2,0,0.4,0.2,0.5c0.2,0.1,0.4,0.1,0.5,0
	C66.7,103.9,68.2,103.6,69.2,103.6C69.1,103.5,69.1,103.5,69.2,103.6C69.2,103.6,69.2,103.6,69.2,103.6 M72.3,98.4
	c-0.6,1-1.2,1.9-2,2.6c-0.7,0.7-1.5,1.3-2.4,1.6c-1,0.4-1.8,0.5-2.1,0.5c0,0-0.1,0-0.1-0.1c-0.3-1.5,0-3.1,0.8-4.7
	c0.3-0.5,0.6-1,0.9-1.5c0,0,0,0,0.1,0c0,0,0,0,0,0c0.3,1.3,0.1,2.6,0.1,2.7c0,0.2,0.1,0.4,0.2,0.5c0.2,0.1,0.4,0.1,0.5,0
	C69.9,98.9,71.3,98.5,72.3,98.4C72.2,98.3,72.3,98.3,72.3,98.4C72.3,98.4,72.3,98.4,72.3,98.4 M74.8,92.7L74.8,92.7
	c-0.5,1.1-1,2.1-1.7,2.9c-0.6,0.8-1.4,1.4-2.2,1.9c-0.9,0.5-1.7,0.7-2.1,0.8l0,0c0,0,0,0-0.1,0c-0.4-1.5-0.3-3.1,0.3-4.8
	c0.2-0.5,0.4-1,0.7-1.5c0,0,0,0,0.1,0c0,0,0,0,0.1,0c0.4,1.3,0.5,2.6,0.5,2.6c0,0.2,0.1,0.4,0.3,0.4c0.2,0.1,0.4,0,0.5-0.1
	c0,0,0,0,0,0c1.1-1.2,2.2-1.8,3-2C74.3,92.7,74.5,92.6,74.8,92.7C74.7,92.6,74.8,92.6,74.8,92.7C74.8,92.6,74.8,92.7,74.8,92.7
	 M76.6,86.9L76.6,86.9c-0.4,1.1-0.8,2.1-1.4,2.9c-0.6,0.9-1.2,1.6-2,2.1c-0.9,0.6-1.7,0.9-2,1c0,0,0,0,0,0c0,0-0.1,0-0.1,0
	c-0.7-1.7-0.5-3.6-0.2-4.9c0.1-0.6,0.3-1.1,0.5-1.7c0,0,0,0,0.1,0c0,0,0,0,0.1,0c0.5,1.2,0.7,2.6,0.7,2.7c0,0.2,0.2,0.3,0.3,0.4
	c0.2,0.1,0.4,0,0.5-0.2C74.4,87.9,75.6,87.2,76.6,86.9C76.5,86.8,76.5,86.8,76.6,86.9C76.6,86.9,76.6,86.9,76.6,86.9 M76.8,83.9
	c-0.5,0.9-1,1.7-1.7,2.3c-0.8,0.7-1.5,1.1-1.8,1.2c0,0,0,0,0,0c0,0,0,0-0.1,0c-0.8-1.4-1-3-0.8-4.9c0.1-0.6,0.2-1.1,0.3-1.7
	c0,0,0,0,0,0c0,0,0,0,0.1,0c0.7,1.2,1,2.6,1.1,2.6c0,0.2,0.2,0.3,0.4,0.4c0.2,0,0.4-0.1,0.5-0.2c1-1.5,2.1-2.4,2.9-2.8
	c0,0,0,0,0.1,0c0,0,0,0,0,0.1C77.6,82,77.2,83,76.8,83.9"/>
</svg>
